<?xml version="1.0" encoding="utf-8"?>
<!-- Generator: Adobe Illustrator 28.2.0, SVG Export Plug-In . SVG Version: 6.00 Build 0)  -->
<svg version="1.1" id="레이어_1" xmlns="http://www.w3.org/2000/svg" xmlns:xlink="http://www.w3.org/1999/xlink" x="0px"
	 y="0px" viewBox="0 0 26.27 20.51" style="enable-background:new 0 0 26.27 20.51;" xml:space="preserve">
<style type="text/css">
	.st0{fill:#0074E0;}
	.st1{fill:#298C45;}
	.st2{fill:#026FD4;}
</style>
<g>
	<path d="M6.58,20.51C2.77,20.51,0,18.44,0,10.28C0,2.11,2.77,0,6.58,0v1.06c-2.49,0-3.83,1.89-3.83,9.22
		c0,7.28,1.32,9.18,3.83,9.18V20.51z"/>
	<path d="M7.99,16.77v-1.01l0.95,0.04l2.95-4.71L9.26,6.58L8.21,6.62V5.57h4.86v1.06l-1.21-0.04l1.8,3.12l1.98-3.12l-1.21,0.04V5.57
		h3.5v1.06l-1.17-0.04l-2.57,4l3.01,5.21l1.01-0.04v1.01h-5.06v-0.99l1.47,0.02l-2.2-3.78l-2.38,3.81l1.56-0.04v0.99H7.99z"/>
	<path d="M23.5,10.28c0-7.33-1.34-9.22-3.81-9.22V0c3.79,0,6.58,2.11,6.58,10.28c0,8.16-2.79,10.23-6.58,10.23v-1.06
		C22.18,19.45,23.5,17.56,23.5,10.28z"/>
</g>
</svg>
