<?xml version="1.0" encoding="utf-8"?>
<!-- Generator: Adobe Illustrator 28.2.0, SVG Export Plug-In . SVG Version: 6.00 Build 0)  -->
<svg version="1.1" id="레이어_1" xmlns="http://www.w3.org/2000/svg" xmlns:xlink="http://www.w3.org/1999/xlink" x="0px"
	 y="0px" viewBox="0 0 33.02 20.51" style="enable-background:new 0 0 33.02 20.51;" xml:space="preserve">
<style type="text/css">
	.st0{fill:#0074E0;}
	.st1{fill:#298C45;}
	.st2{fill:#026FD4;}
</style>
<g>
	<path d="M6.58,20.51C2.77,20.51,0,18.44,0,10.28C0,2.11,2.77,0,6.58,0v1.06c-2.49,0-3.83,1.89-3.83,9.22
		c0,7.28,1.32,9.18,3.83,9.18V20.51z"/>
	<path d="M12.34,10.28c0-7.33-1.34-9.22-3.81-9.22V0c3.79,0,6.58,2.11,6.58,10.28c0,8.16-2.79,10.23-6.58,10.23v-1.06
		C11.02,19.45,12.34,17.56,12.34,10.28z"/>
	<path d="M0.25,10.24c0-4.71,2.13-5.79,4.82-5.79c2.62,0,4.75,1.06,4.75,5.68c0,4.71-1.92,5.92-4.82,5.92S0.25,14.91,0.25,10.24z
		 M7.34,10.22C7.34,6.17,6.61,5.4,5,5.4c-1.56,0-2.27,0.75-2.27,4.75c0,4.05,0.73,4.97,2.33,4.97C6.63,15.13,7.34,14.18,7.34,10.22z
		"/>
	<path d="M24.49,20.51c-3.81,0-6.58-2.07-6.58-10.23C17.91,2.11,20.68,0,24.49,0v1.06c-2.49,0-3.83,1.89-3.83,9.22
		c0,7.28,1.32,9.18,3.83,9.18V20.51z"/>
	<path d="M30.25,10.28c0-7.33-1.34-9.22-3.81-9.22V0c3.79,0,6.58,2.11,6.58,10.28c0,8.16-2.79,10.23-6.58,10.23v-1.06
		C28.93,19.45,30.25,17.56,30.25,10.28z"/>
	<path d="M18.16,10.24c0-4.71,2.13-5.79,4.82-5.79c2.62,0,4.75,1.06,4.75,5.68c0,4.71-1.92,5.92-4.82,5.92S18.16,14.91,18.16,10.24z
		 M25.24,10.22c0-4.05-0.73-4.82-2.33-4.82c-1.56,0-2.27,0.75-2.27,4.75c0,4.05,0.73,4.97,2.33,4.97
		C24.54,15.13,25.24,14.18,25.24,10.22z"/>
</g>
</svg>
