<?xml version="1.0" encoding="utf-8"?>
<!-- Generator: Adobe Illustrator 28.2.0, SVG Export Plug-In . SVG Version: 6.00 Build 0)  -->
<svg version="1.1" id="레이어_1" xmlns="http://www.w3.org/2000/svg" xmlns:xlink="http://www.w3.org/1999/xlink" x="0px"
	 y="0px" viewBox="0 0 173.6 31.53" style="enable-background:new 0 0 173.6 31.53;" xml:space="preserve">
<g>
	<g>
		<path d="M0.5,5.89C0.5,1.07,2.36,0,5.09,0c2.72,0,4.55,1.07,4.55,5.81c0,4.8-1.86,5.87-4.59,5.87C2.32,11.69,0.5,10.64,0.5,5.89z
			 M7.61,5.87c0-4.19-0.9-5.07-2.54-5.07c-1.63,0-2.53,0.9-2.53,5.03c0,4.18,0.9,5.07,2.56,5.07C6.71,10.9,7.61,10,7.61,5.87z"/>
		<path d="M10.96,10.76l1.3,0.06V0.93l-1.3,0.05V0.14h4.87c2.13,0,3.41,0.72,3.41,3.44c0,2.77-1.28,3.52-3.43,3.52h-1.58v3.71
			l2.11-0.06v0.78h-5.38V10.76z M15.22,6.32c1.52,0,2.02-0.51,2.02-2.72c0-2.21-0.48-2.66-2.02-2.66h-0.99v5.38H15.22z"/>
		<path d="M20.42,10.76l1.3,0.06V0.93l-1.3,0.05V0.14h4.87c2.13,0,3.41,0.72,3.41,3.44c0,2.77-1.28,3.52-3.43,3.52h-1.58v3.71
			l2.11-0.06v0.78h-5.38V10.76z M24.68,6.32c1.52,0,2.02-0.51,2.02-2.72c0-2.21-0.48-2.66-2.02-2.66h-0.99v5.38H24.68z"/>
	</g>
	<g>
		<path d="M84.33,9.12c0-5.23,5.01-2.59,5.01-6.1c0-1.74-0.56-2.22-1.5-2.22c-0.98,0-1.63,0.43-1.6,3.36h-1.68
			C84.51,1.1,85.7,0,87.98,0c2.15,0,3.33,1.12,3.33,3.38c0,5.03-6.19,1.57-6.19,6.03v0.62h5.55l-0.03-2.63h0.86v4.13h-7.17V9.12z"/>
		<path d="M99.28,9.28v2.26h-1.97V9.28h-4.42V8.55l3.28-8.4h2.26l-4.72,8.28h3.6V3.76h1.97v4.66h1.52v0.86H99.28z"/>
	</g>
	<g>
		<path d="M119.63,10.26l0.05,1.28h-1.52v-4.1h1.46c0.21,2.53,0.99,3.46,2.71,3.46c1.26,0,1.91-0.7,1.91-2.1
			c0-3.15-5.94-1.18-5.94-5.71c0-1.94,1.12-3.09,2.99-3.09c1.07,0,1.95,0.37,2.51,1.2l-0.05-1.06h1.47v3.51h-1.39
			c-0.18-2.21-0.94-2.83-2.24-2.85c-1.02,0-1.71,0.51-1.71,1.86c0,3.11,5.94,1.02,5.94,5.65c0,2.08-1.3,3.38-3.35,3.38
			C121.14,11.68,120.23,11.17,119.63,10.26z"/>
		<path d="M127.25,10.76l1.3,0.06V0.93l-1.3,0.05V0.14h4.87c2.13,0,3.41,0.72,3.41,3.44c0,2.77-1.28,3.52-3.43,3.52h-1.58v3.71
			l2.11-0.06v0.78h-5.38V10.76z M131.51,6.32c1.52,0,2.02-0.51,2.02-2.72c0-2.21-0.48-2.66-2.02-2.66h-0.99v5.38H131.51z"/>
		<path d="M143.06,9.78l0.1-2.19c0.06-1.26-0.46-1.65-1.54-1.65h-1.63v4.88l1.7-0.06v0.78h-4.98v-0.78l1.3,0.06V0.93l-1.3,0.05V0.14
			h4.66c2.34,0,3.41,0.61,3.41,2.69c0,1.66-0.69,2.38-2.11,2.64c1.54,0.16,2.51,0.74,2.45,2.32l-0.08,2.08
			c-0.03,0.7,0.18,0.96,0.62,0.93l0.64-0.05v0.78l-1.54,0.02C143.51,11.56,143,11.04,143.06,9.78z M139.99,5.15h1.09
			c1.2,0,1.73-0.24,1.73-2.02c0-1.95-0.51-2.18-1.73-2.18h-1.09V5.15z"/>
		<path d="M147.1,10.76l1.44,0.06V0.93l-1.44,0.05V0.14h4.83v0.83l-1.42-0.05v9.89l1.42-0.06v0.78h-4.83V10.76z"/>
		<path d="M160.26,11.56l-4.91-9.92v9.19l1.89-0.06v0.78h-4.05v-0.78l1.31,0.06V0.93l-1.31,0.05V0.14h3.54l4.39,9.03V0.93
			l-1.82,0.05V0.14h3.87v0.83l-1.22-0.05v10.63H160.26z"/>
		<path d="M170.9,10.56c-0.53,0.62-1.36,1.12-2.62,1.12c-2.59,0-4.07-1.46-4.07-5.83c0-4.77,1.78-5.86,4.02-5.86
			c1.07,0,1.97,0.42,2.51,1.17l-0.05-1.02h1.7v4.15h-1.58c-0.05-2.37-0.69-3.49-2.13-3.49c-1.52,0-2.42,0.91-2.43,5.04
			c0,4.16,0.96,5.04,2.51,5.04c1.58,0,2.13-0.77,2.13-3.3v-0.3l-2.5,0.03V6.5h5.22v0.82l-1.06-0.02v4.24h-1.62L170.9,10.56z"/>
	</g>
	<g>
		<path d="M9.64,31.33L2.77,17.38v13.07l2.6-0.07v0.92H0v-0.92l1.8,0.07V16.56L0,16.63v-0.99h4.27l6.29,13V16.56l-2.49,0.07v-0.99
			h5.15v0.99l-1.67-0.07v14.76H9.64z"/>
		<path d="M14.74,31.31v-0.92l1.8,0.07V16.56l-1.8,0.07v-0.99h10.25v4.86h-1.85l0.04-3.92H18.7v5.98h4v0.99h-4v6.84h5.33l-0.04-4.75
			h1.85v5.65H14.74z"/>
		<path d="M36.5,17.6l-2.77,13.93h-2.07L28.6,16.56l-1.45,0.07v-0.99h6.07v0.99l-2.51-0.07l2.44,12.78l2.73-13.71h2.27l2.73,13.6
			l2.46-12.67l-2.35,0.07v-0.99h4.82v0.99l-1.39-0.07l-3.06,14.96h-2.07L36.5,17.6z"/>
		<path d="M50.86,31.31v-0.92l1.8,0.07V16.56l-1.8,0.07v-0.99h10.1v4.86h-1.87l0.04-3.92h-4.31v6.42h4.16V24h-4.16v6.45l3.12-0.07
			v0.92H50.86z"/>
		<path d="M61.03,31.31v-0.92l1.47,0.07l4.49-15.03h1.96l4.45,15.01l1.56-0.04v0.92h-6.27v-0.92l2.44,0.07l-1.56-5.52h-4.42
			l-1.63,5.52l2.62-0.07v0.92H61.03z M67.39,17.29l-1.96,6.69h3.87L67.39,17.29z"/>
		<path d="M81.42,31.5c-3.92,0-5.81-1.96-5.81-8.08c0-6.49,2.38-7.99,5.21-7.99c1.83,0,2.99,0.68,3.52,1.8l-0.02-1.61h1.83v5.9
			h-1.83c0-3.61-0.77-5.17-2.93-5.15c-2.18,0.02-3.56,1.23-3.56,7.06c0,5.85,1.43,7.04,3.89,7.04c2.4,0,3.78-0.84,3.67-5.74h1.3
			C86.9,29.44,85.03,31.5,81.42,31.5z"/>
		<path d="M88.57,31.31v-0.92l1.8,0.07V16.56l-1.8,0.07v-0.99h10.25v4.86h-1.85l0.04-3.92h-4.49v5.98h4v0.99h-4v6.84h5.32
			l-0.04-4.75h1.85v5.65H88.57z"/>
	</g>
</g>
</svg>
