<?xml version="1.0" encoding="utf-8"?>
<!-- Generator: Adobe Illustrator 28.2.0, SVG Export Plug-In . SVG Version: 6.00 Build 0)  -->
<svg version="1.1" id="레이어_1" xmlns="http://www.w3.org/2000/svg" xmlns:xlink="http://www.w3.org/1999/xlink" x="0px"
	 y="0px" viewBox="0 0 113.39 43.16" style="enable-background:new 0 0 113.39 43.16;" xml:space="preserve">
<style type="text/css">
	.st0{fill:#086FE0;}
	.st1{fill:#FFFFFF;}
	.st2{fill:#0F83F0;}
	.st3{fill:#298C45;}
	.st4{fill:#026FD4;}
	.st5{fill:#808080;}
</style>
<g>
	<path d="M0,21.61C0,9.19,7.85,0,20.38,0c12.53,0,20.38,9.19,20.38,21.61c0,12.36-7.85,21.55-20.38,21.55
		C7.85,43.16,0,33.97,0,21.61z M32.86,21.61c0-8.63-4.23-15.26-12.42-15.26c-8.24,0-12.59,6.63-12.59,15.26
		c0,8.58,4.34,15.04,12.59,15.04C28.63,36.64,32.86,30.18,32.86,21.61z"/>
	<path d="M45.85,0.78h17.93c4.68,0,8.24,1.39,10.52,3.9c2.23,2.39,3.51,5.4,3.51,9.08c0,7.8-4.96,12.86-13.7,12.86H53.65v15.59h-7.8
		V0.78z M53.65,20.44h9.24c4.73,0,7.18-2.56,7.18-6.57c0-4.18-2.56-6.46-7.07-6.46h-9.36V20.44z"/>
	<path d="M81.42,0.78h17.93c4.68,0,8.24,1.39,10.53,3.9c2.23,2.39,3.51,5.4,3.51,9.08c0,7.8-4.96,12.86-13.7,12.86H89.22v15.59h-7.8
		V0.78z M89.22,20.44h9.24c4.73,0,7.18-2.56,7.18-6.57c0-4.18-2.56-6.46-7.07-6.46h-9.36V20.44z"/>
</g>
</svg>
