<?xml version="1.0" encoding="UTF-8"?>
<svg id="_레이어_1" data-name="레이어 1" xmlns="http://www.w3.org/2000/svg" viewBox="0 0 131.61 27.02">
  <path d="M127.79,24.14c-.4.32-.63.68-.63,1.22,0,.76.44,1.39,1.25,1.39h1.65c.81,0,1.23-.61,1.23-1.39,0-.54-.27-1.06-.7-1.22v-8.1c0-.97-.27-1.3-1.15-1.3h-.91c-.91,0-1.39.58-1.39,1.37,0,.54.23.95.65,1.24v6.79ZM123.09,24.14c-.4.32-.63.68-.63,1.22,0,.76.44,1.39,1.25,1.39h1.65c.81,0,1.23-.61,1.23-1.39,0-.54-.28-1.06-.7-1.22v-8.1c0-.97-.28-1.3-1.15-1.3h-.91c-.91,0-1.39.58-1.39,1.37,0,.54.23.95.65,1.24v6.79ZM118.2,23.31c0,.88-.23,1.35-.65,1.35-.29,0-.49-.31-.49-.58,0-.4.34-.77.97-.77h.16ZM118.28,26.14c.26.4.57.61.97.61h1.23c.84,0,1.38-.58,1.38-1.31,0-.63-.21-1.01-.71-1.33v-3.28c0-2.39-.83-2.9-2.83-2.9-2.46,0-3.14.38-3.14,1.49v.68c0,1.04.45,1.49,1.02,1.49.31,0,.63-.22.86-.52l.58-.81c.24-.18.57-.11.57.67v.85c-2.4.07-3.68.7-3.68,2.61,0,1.67.7,2.52,2.07,2.52.86,0,1.23-.31,1.68-.77M111.48,18.14c.32.67.7.92,1.17.92.58,0,1.1-.61,1.1-1.75v-1.17c0-1.39-.68-1.8-3.08-1.8-2.75,0-4.7,2.27-4.7,6.41,0,1.87.45,3.51,1.2,4.57.88,1.24,1.8,1.62,3.27,1.62.94,0,1.67-.13,2.41-.79.88-.77,1.13-1.67,1.13-3.04,0-1.19-.55-2.12-1.47-2.12-.45,0-.79.22-1.04.65-.29.52-.23.97-.23,1.84,0,.43-.26.72-.67.72-.81,0-1.28-1.21-1.28-3.44,0-1.57.23-2.66.62-3.15.19-.25.5-.45.71-.45.11,0,.26.02.4.07l.44.92ZM42.9,22.48c0,1.1-.18,1.73-.66,1.73-.4,0-.71-.72-.71-1.73,0-1.1.24-1.69.71-1.69.42,0,.66.67.66,1.69M42.79,26.1c.13.43.49.65.97.65h1.28c.97,0,1.41-.67,1.41-1.39,0-.58-.28-1.08-.75-1.31v-8.12c0-.95-.28-1.19-1.18-1.19h-.99c-.96,0-1.49.59-1.49,1.46,0,.59.26,1.06.75,1.37v1.42c-.28-.4-.68-.97-1.59-.97-1.49,0-2.53,1.87-2.53,4.27,0,3.04,1.04,4.61,2.51,4.61.73,0,1.12-.31,1.6-.79M34.17,21.17c.03-.58.34-.88.6-.88s.5.29.55.88h-1.15ZM36.88,22.68c.68,0,1.04-.27,1.04-1.13,0-1.93-1.13-3.64-3.24-3.64-1.94,0-3.42,1.73-3.42,4.52,0,2.39,1.33,4.59,3.6,4.59,1.81,0,2.88-1.22,2.88-2.56,0-.86-.47-1.44-1.13-1.44-1.25,0-.83,1.49-1.64,1.49-.45,0-.75-.63-.75-1.6v-.23h2.66ZM26.96,24.08c-.29-.61-.63-.92-1.17-.92-.49,0-.99.41-.99,1.17v.81c0,1.15.89,1.71,2.7,1.71.99,0,1.8-.27,2.27-.7.5-.47.88-1.35.88-2.23s-.45-1.75-.96-2.02c-1.72-.9-2.27-1.06-2.27-1.58,0-.16.15-.41.44-.41.08,0,.16.04.21.05l.13.31c.27.65.55.95,1.15.95.68,0,.97-.45.97-1.37v-.52c0-1.03-.68-1.49-2.45-1.49-.89,0-1.73.29-2.25.72-.58.49-.83,1.1-.83,1.98,0,1.46.57,1.98,2.79,3.11.32.16.57.4.57.63,0,.47-.42.67-.89.47l-.31-.67ZM20.26,24.08c-.29-.61-.63-.92-1.17-.92-.49,0-.99.41-.99,1.17v.81c0,1.15.89,1.71,2.7,1.71.99,0,1.8-.27,2.27-.7.5-.47.88-1.35.88-2.23s-.45-1.75-.96-2.02c-1.72-.9-2.27-1.06-2.27-1.58,0-.16.15-.41.44-.41.08,0,.16.04.21.05l.13.31c.27.65.55.95,1.15.95.68,0,.97-.45.97-1.37v-.52c0-1.03-.68-1.49-2.45-1.49-.89,0-1.73.29-2.25.72-.58.49-.83,1.1-.83,1.98,0,1.46.57,1.98,2.79,3.11.32.16.57.4.57.63,0,.47-.42.67-.89.47l-.31-.67ZM13.65,24.08c-.45.34-.73.85-.73,1.31,0,.83.52,1.35,1.26,1.35h1.72c.84,0,1.35-.56,1.35-1.31,0-.59-.19-.99-.65-1.28v-4.68c0-.92-.37-1.39-1.12-1.39h-1.22c-.84,0-1.34.56-1.34,1.4,0,.58.26,1.04.73,1.24v3.35ZM13.71,16.07c0,.92.53,1.67,1.34,1.67.75,0,1.35-.83,1.35-1.67,0-1.15-.67-1.75-1.35-1.75-.78,0-1.34.77-1.34,1.75M1.19,24.12c-.45.27-.68.74-.68,1.31,0,.74.45,1.31,1.39,1.31h.55c1.04,0,1.49-.58,1.49-1.31,0-.67-.18-.99-.68-1.31v-5.06l1.47,6.41c.26,1.1.44,1.31,1.21,1.31.61,0,.99-.38,1.22-1.31l1.52-6.41v5.06c-.47.32-.7.7-.7,1.28,0,.95.52,1.35,1.47,1.35h1.12c1.05,0,1.46-.65,1.46-1.31,0-.61-.23-1.1-.68-1.31v-6.73c.44-.27.68-.77.68-1.37,0-.63-.42-1.17-.71-1.21-.18-.02-.45-.07-.66-.07h-2.33c-.74,0-.91.2-1.1,1.03l-1.01,4.27-1-4.27c-.19-.81-.26-1.03-1.09-1.03H1.71c-.84,0-1.2.68-1.2,1.21,0,.72.14,1.08.68,1.44v6.73Z"/>
  <path d="M126.97,2.66c.66,0,1.04.41,1.04,1.15,0,.58-.37,1.08-1.04,1.08h-.49v-2.23h.49ZM123.29,9.67c-.53.25-.78.68-.78,1.3,0,.9.52,1.39,1.51,1.39h1.49c1.02,0,1.6-.72,1.6-1.42,0-.59-.21-1.06-.63-1.33v-2.23h.29c.45,0,.52.29.58.7l.44,2.77c.16,1.01.68,1.51,1.56,1.51h.68c1.08,0,1.57-.63,1.57-1.42,0-.59-.24-.99-.7-1.33l-.24-1.44c-.23-1.31-.57-1.6-1.1-1.84.49-.29.91-.67,1.12-.99.24-.38.49-1.17.49-1.71,0-1.15-.32-1.98-1.09-2.61-.74-.61-1.51-.68-2.48-.68h-3.58c-1,0-1.51.49-1.51,1.42,0,.58.26.97.78,1.28v6.64ZM114.76,9.76c-.47.31-.68.68-.68,1.28,0,.94.5,1.31,1.46,1.31h4.6c1.21,0,1.85-.25,1.85-1.94v-1.12c0-1.28-.28-1.98-1.04-1.98-.4,0-.7.25-.97.72l-.96,1.62h-1.07v-2.34h.55c.97,0,1.34-.59,1.34-1.26,0-1.03-.49-1.39-1.34-1.39h-.55v-1.66h1.07l.66,1.24c.31.58.62.97,1.13.97.62,0,1.02-.59,1.02-1.78v-1.03c0-1.82-.4-2.05-1.77-2.05h-4.6c-.96,0-1.38.52-1.38,1.3,0,.59.19.92.66,1.22v6.88ZM102.67,9.72c-.45.27-.68.74-.68,1.31,0,.74.45,1.31,1.39,1.31h.55c1.04,0,1.49-.58,1.49-1.31,0-.67-.18-.99-.68-1.31v-5.06l1.47,6.41c.26,1.1.44,1.31,1.21,1.31.62,0,.99-.38,1.22-1.31l1.52-6.41v5.06c-.47.32-.7.7-.7,1.28,0,.95.52,1.35,1.47,1.35h1.12c1.05,0,1.46-.65,1.46-1.31,0-.61-.23-1.1-.68-1.31V2.99c.44-.27.68-.77.68-1.37,0-.63-.42-1.17-.71-1.21-.18-.02-.45-.07-.66-.07h-2.33c-.75,0-.91.2-1.1,1.03l-1.01,4.27-1-4.27c-.19-.81-.26-1.03-1.08-1.03h-2.43c-.84,0-1.2.68-1.2,1.21,0,.72.15,1.08.68,1.44v6.73ZM90.59,9.72c-.45.27-.68.74-.68,1.31,0,.74.45,1.31,1.39,1.31h.55c1.04,0,1.49-.58,1.49-1.31,0-.67-.18-.99-.68-1.31v-5.06l1.47,6.41c.26,1.1.44,1.31,1.21,1.31.62,0,.99-.38,1.22-1.31l1.52-6.41v5.06c-.47.32-.7.7-.7,1.28,0,.95.52,1.35,1.47,1.35h1.12c1.05,0,1.46-.65,1.46-1.31,0-.61-.23-1.1-.68-1.31V2.99c.44-.27.68-.77.68-1.37,0-.63-.42-1.17-.71-1.21-.18-.02-.45-.07-.66-.07h-2.33c-.75,0-.91.2-1.1,1.03l-1,4.27-1-4.27c-.19-.81-.26-1.03-1.08-1.03h-2.43c-.84,0-1.2.68-1.2,1.21,0,.72.15,1.08.68,1.44v6.73ZM81.06,8.06c0,2.93,1.38,4.52,3.79,4.52,2.54,0,3.99-1.8,3.99-4.52V3.01c.5-.31.73-.7.73-1.33,0-.83-.44-1.33-1.38-1.33h-1.01c-1.02,0-1.46.61-1.46,1.35,0,.63.23.99.73,1.31v5.06c0,1.17-.37,1.76-1.1,1.76-.6,0-1.1-.54-1.1-1.76V3.01c.49-.38.73-.65.73-1.33,0-.76-.44-1.33-1.41-1.33h-1.78c-.99,0-1.46.5-1.46,1.39,0,.58.26.99.73,1.28v5.06ZM75.39,8.75c-.4-.72-.68-1.15-1.26-1.15-.7,0-.99.56-.99,1.58v1.58c0,.63.1,1.13.36,1.37.23.2,1.05.45,2.12.45,1.59,0,2.7-.13,3.58-1.12.6-.68,1.04-1.87,1.04-2.9,0-1.17-.47-2.21-1.25-2.86-.53-.45-1.49-.85-2.74-1.44-.16-.07-.32-.41-.32-.63,0-.52.36-.85.74-.85.1,0,.24.05.32.07l.49.9c.29.56.63.92,1.17.92.62,0,1.02-.61,1.02-1.87v-.88c0-1.48-.24-1.82-2.45-1.82-2.77,0-4.15,1.28-4.15,3.92s1.51,3.04,3.6,4.09c.42.22.71.54.71.95,0,.58-.34.88-.92.88-.08,0-.26,0-.4-.02l-.66-1.19ZM61.38,3.24h2.24c.92,0,1.33-.68,1.33-1.4,0-.92-.49-1.49-1.47-1.49h-3.45c-.88,0-1.13.34-1.2,1.22l-.29,4.36c0,.07-.02.09-.02.16,0,.41,0,.74.49.79l1.62.16s.06.02.1.02c.1,0,.23,0,.34-.14.11-.14.39-.32.55-.32.55,0,.89.76.89,1.51,0,1.21-.28,1.75-.92,1.75-.79,0-.78-.85-.79-1.51-.02-.49-.52-.97-1.08-.97-.78,0-1.38.67-1.38,1.96,0,1.85,1.22,3.2,3.4,3.2,2.43,0,3.79-1.69,3.79-4.43,0-2.21-1.12-3.89-2.77-3.89-.53,0-.97.13-1.41.36l.05-1.33ZM53.52,9.7c1.1-2.29,3.99-3.46,3.99-6.32,0-1.93-1.26-3.24-3.48-3.24-1.98,0-3.24,1.3-3.24,3.22,0,1.17.6,1.94,1.44,1.94.52,0,1.05-.41,1.05-1.33,0-.18-.02-.31-.02-.49,0-.32.28-.77.67-.77.36,0,.61.34.61.67,0,.77-.63,1.35-1.8,2.72-1.26,1.48-1.96,2.59-1.96,3.62v1.13c0,.99.44,1.49,1.31,1.49h4.02c1,0,1.44-.36,1.44-1.49v-1.87c0-1.04-.31-1.66-.97-1.66-.36,0-.71.27-.91.63l-.96,1.75h-1.2ZM47.12,6.35c0,2.38-.36,3.6-1.13,3.6-.73,0-1.05-1.24-1.05-3.6s.42-3.6,1.05-3.6c.79,0,1.13,1.06,1.13,3.6M41.83,6.35c0,1.62.31,3.08.88,4.16.76,1.46,1.83,2.12,3.29,2.12,2.46,0,4.15-2.38,4.15-6.28,0-1.53-.1-2.83-.81-4.1-.79-1.42-2.06-2.25-3.34-2.25-2.12,0-4.16,2.99-4.16,6.35M37.11,9.7c1.1-2.29,3.99-3.46,3.99-6.32,0-1.93-1.26-3.24-3.48-3.24-1.98,0-3.24,1.3-3.24,3.22,0,1.17.6,1.94,1.44,1.94.52,0,1.05-.41,1.05-1.33,0-.18-.02-.31-.02-.49,0-.32.28-.77.66-.77.36,0,.62.34.62.67,0,.77-.63,1.35-1.8,2.72-1.26,1.48-1.96,2.59-1.96,3.62v1.13c0,.99.44,1.49,1.31,1.49h4.02c1,0,1.44-.36,1.44-1.49v-1.87c0-1.04-.31-1.66-.97-1.66-.36,0-.71.27-.91.63l-.96,1.75h-1.2ZM22.94,2.7c.66,0,.96.49.96,1.1,0,.58-.32,1.12-.96,1.12h-.37v-2.21h.37ZM19.42,9.68c-.5.34-.76.76-.76,1.33,0,.95.49,1.33,1.46,1.33h1.62c.45,0,.78.02,1.1-.29.31-.29.45-.54.45-1.03,0-.65-.21-1.03-.73-1.35v-2.29h.92c2.15,0,3.37-1.6,3.37-3.67,0-1.48-.88-2.79-2.06-3.19-.37-.13-.94-.18-1.57-.18h-3.19c-.97,0-1.38.58-1.38,1.35,0,.54.27,1.01.76,1.3v6.68ZM14.45,2.7c.66,0,.96.49.96,1.1,0,.58-.32,1.12-.96,1.12h-.37v-2.21h.37ZM10.94,9.68c-.5.34-.76.76-.76,1.33,0,.95.49,1.33,1.46,1.33h1.62c.45,0,.78.02,1.1-.29.31-.29.45-.54.45-1.03,0-.65-.21-1.03-.73-1.35v-2.29h.92c2.15,0,3.37-1.6,3.37-3.67,0-1.48-.88-2.79-2.06-3.19-.37-.13-.94-.18-1.57-.18h-3.19c-.97,0-1.38.58-1.38,1.35,0,.54.28,1.01.76,1.3v6.68ZM6.59,6.35c0,2.38-.61,3.58-1.62,3.58s-1.64-1.35-1.64-3.58.62-3.51,1.64-3.51,1.62,1.17,1.62,3.51M0,6.35c0,3.69,1.99,6.43,4.97,6.43s4.97-2.56,4.97-6.43c0-3.56-1.94-6.35-4.97-6.35S0,2.7,0,6.35"/>
</svg>