<svg width="385" height="275" viewBox="0 0 385 275" fill="none" xmlns="http://www.w3.org/2000/svg">
<path d="M89.1894 272.749L3.25391 161.057L89.1894 49.3652L296.68 49.3652L382.615 161.057L296.68 272.749L89.1894 272.749Z" fill="#FF3000"/>
<path d="M295.777 51.1967L380.309 161.057L295.777 270.918L90.0932 270.918L5.56145 161.057L90.0932 51.1967L295.777 51.1967ZM297.583 47.5347L88.2988 47.5347L87.2002 48.9629L2.66846 158.824L0.947266 161.057L2.66846 163.291L87.2002 273.152L88.2988 274.58L297.583 274.58L298.682 273.152L383.214 163.291L384.935 161.057L383.214 158.824L298.682 48.9629L297.583 47.5347Z" fill="white"/>
<path d="M320.178 2.13086L62.7373 2.13086L62.7373 39.2638L320.178 39.2638V2.13086Z" fill="#009B00"/>
<path d="M318.345 3.96134V37.4322L64.5663 37.4322V3.96134L318.345 3.96134ZM322.007 0.299316L60.9043 0.299316L60.9043 41.0943L322.007 41.0943V0.299316Z" fill="white"/>
<path d="M95.4663 64.0155C96.646 64.0155 97.6024 63.0591 97.6024 61.8793C97.6024 60.6996 96.646 59.7432 95.4663 59.7432C94.2865 59.7432 93.3301 60.6996 93.3301 61.8793C93.3301 63.0591 94.2865 64.0155 95.4663 64.0155Z" fill="white"/>
<path d="M289.552 64.0155C290.732 64.0155 291.688 63.0591 291.688 61.8793C291.688 60.6996 290.732 59.7432 289.552 59.7432C288.372 59.7432 287.416 60.6996 287.416 61.8793C287.416 63.0591 288.372 64.0155 289.552 64.0155Z" fill="white"/>
<path d="M365.234 162.888C366.414 162.888 367.37 161.931 367.37 160.751C367.37 159.572 366.414 158.615 365.234 158.615C364.054 158.615 363.098 159.572 363.098 160.751C363.098 161.931 364.054 162.888 365.234 162.888Z" fill="white"/>
<path d="M19.7817 162.888C20.9615 162.888 21.9179 161.931 21.9179 160.751C21.9179 159.572 20.9615 158.615 19.7817 158.615C18.6019 158.615 17.6455 159.572 17.6455 160.751C17.6455 161.931 18.6019 162.888 19.7817 162.888Z" fill="white"/>
<path d="M95.4663 262.984C96.646 262.984 97.6024 262.028 97.6024 260.848C97.6024 259.668 96.646 258.712 95.4663 258.712C94.2865 258.712 93.3301 259.668 93.3301 260.848C93.3301 262.028 94.2865 262.984 95.4663 262.984Z" fill="white"/>
<path d="M289.552 262.984C290.732 262.984 291.688 262.028 291.688 260.848C291.688 259.668 290.732 258.712 289.552 258.712C288.372 258.712 287.416 259.668 287.416 260.848C287.416 262.028 288.372 262.984 289.552 262.984Z" fill="white"/>
</svg>
