<svg width="79" height="34" viewBox="0 0 79 34" fill="none" xmlns="http://www.w3.org/2000/svg">
<rect width="79" height="34" fill="white"/>
<path d="M17.75 13.8958C17.6042 12.4896 16.375 11.6875 14.6458 11.6875C12.8021 11.6875 11.6354 12.6354 11.625 13.9167C11.625 15.3437 13.1771 15.9062 14.375 16.1875L15.8333 16.5833C17.7604 17.0521 20.1771 18.1042 20.1875 20.8333C20.1771 23.3854 18.1458 25.25 14.5833 25.25C11.2083 25.25 9.08333 23.5625 8.9375 20.8125H11.2292C11.3646 22.4583 12.8229 23.2396 14.5833 23.25C16.5104 23.2396 17.9063 22.2708 17.9167 20.7917C17.9063 19.4792 16.6563 18.9479 15.0625 18.5208L13.2708 18.0417C10.8438 17.375 9.34375 16.1458 9.33333 14.0417C9.34375 11.4375 11.6563 9.70833 14.7083 9.70833C17.7708 9.70833 19.9063 11.4583 19.9792 13.8958H17.75ZM21.2558 11.8958V9.91667H32.9433V11.8958H28.2558V25H25.9642V11.8958H21.2558ZM34.1158 25H31.6783L37.095 9.91667H39.7408L45.1783 25H42.7408L41.3658 21.0208H35.4908L34.1158 25ZM36.1471 19.1042H40.6992L38.47 12.6667H38.3658L36.1471 19.1042ZM46.455 25V9.91667H51.83C55.3404 9.91667 57.0592 11.8646 57.0592 14.6458C57.0592 16.6771 56.1425 18.2083 54.3092 18.9062L57.6425 25H55.0383L51.9758 19.3125H51.83H48.7467V25H46.455ZM48.7467 17.3333H51.6008C53.8196 17.3229 54.7467 16.3437 54.7467 14.6458C54.7467 12.9479 53.8196 11.8854 51.6008 11.875H48.7467V17.3333ZM58.2108 11.8958V9.91667H69.8983V11.8958H65.2108V25H62.9192V11.8958H58.2108Z" fill="black"/>
</svg>
