<svg width="622" height="576" viewBox="0 0 622 576" fill="none" xmlns="http://www.w3.org/2000/svg">
<path d="M616.15 113.775H5.52344V570.947H616.15V113.775Z" fill="white"/>
<path d="M611.104 118.857V565.894H10.6061V118.857H611.104ZM621.234 108.694H0.476562V576.001H621.234V108.694Z" fill="black"/>
<path d="M55.5249 390.283V367.823C103.452 367.823 142.429 328.827 142.429 280.876C142.429 232.924 103.452 193.928 55.5249 193.928V171.468C115.827 171.468 164.877 220.543 164.877 280.876C164.877 341.208 115.827 390.283 55.5249 390.283Z" fill="black"/>
<path d="M568.978 507.441H508.788V484.981H546.529V444.498H73.6521V484.981H421.492V507.441H51.2036V422.038H568.978V507.441Z" fill="black"/>
<path d="M571.028 359.851H293.003V382.31H571.028V359.851Z" fill="black"/>
<path d="M526.212 173.914H423.482V196.374H526.212V173.914Z" fill="black"/>
<path d="M441.363 173.914H418.914V361.679H441.363V173.914Z" fill="black"/>
<path d="M440.124 303.982H392.364C366.1 303.982 344.746 282.617 344.746 256.339C344.746 230.061 366.1 208.696 392.364 208.696C418.629 208.696 440.124 230.089 440.124 256.339V303.982ZM392.505 231.128C378.503 231.128 367.194 242.442 367.194 256.311C367.194 270.18 378.502 281.494 392.364 281.494H417.675V256.311C417.675 242.414 406.367 231.128 392.505 231.128Z" fill="black"/>
<path d="M526.775 281.524H423.932V303.984H526.775V281.524Z" fill="black"/>
<path d="M181.462 168.182H159.014V426.583H181.462V168.182Z" fill="black"/>
<path d="M181.346 371.249H158.898C158.898 315.633 204.131 270.376 259.72 270.376H278.465V292.836H259.72C216.506 292.836 181.346 328.014 181.346 371.249Z" fill="black"/>
<path d="M171.218 135.673L145.627 180.031H196.838L171.218 135.673Z" fill="black"/>
<path d="M266.907 371.223L311.271 396.856V345.591L266.907 371.223Z" fill="black"/>
<path d="M468.941 497.558L513.305 523.191V471.926L468.941 497.558Z" fill="black"/>
<path d="M555.398 292.613L511.034 266.98V318.245L555.398 292.613Z" fill="black"/>
<path d="M316.885 281.383L272.521 255.75V307.015L316.885 281.383Z" fill="black"/>
<path d="M34.8696 145.838C37.5816 145.838 39.7802 143.638 39.7802 140.925C39.7802 138.211 37.5816 136.012 34.8696 136.012C32.1575 136.012 29.959 138.211 29.959 140.925C29.959 143.638 32.1575 145.838 34.8696 145.838Z" fill="black"/>
<path d="M587.671 145.838C590.383 145.838 592.581 143.639 592.581 140.925C592.581 138.212 590.383 136.012 587.671 136.012C584.959 136.012 582.76 138.212 582.76 140.925C582.76 143.639 584.959 145.838 587.671 145.838Z" fill="black"/>
<path d="M34.8696 550.114C37.5816 550.114 39.7802 547.915 39.7802 545.201C39.7802 542.488 37.5816 540.288 34.8696 540.288C32.1575 540.288 29.959 542.488 29.959 545.201C29.959 547.915 32.1575 550.114 34.8696 550.114Z" fill="black"/>
<path d="M587.671 550.114C590.383 550.114 592.581 547.915 592.581 545.201C592.581 542.488 590.383 540.288 587.671 540.288C584.959 540.288 582.76 542.488 582.76 545.201C582.76 547.915 584.959 550.114 587.671 550.114Z" fill="black"/>
<path d="M312.985 4.23877H4.2334V82.9326H312.985V4.23877Z" fill="white"/>
<path d="M308.751 8.50669V78.6939H8.50177V8.50669H308.751ZM317.225 0H0V87.1725H317.225V0Z" fill="black"/>
<path d="M53.3405 58.8436H46.522V29.7861H53.3405V58.8436Z" fill="black"/>
<path d="M64.4825 58.8444H57.6914V37.0583H64.1174V41.0169H64.3702C65.3523 38.3779 67.7932 36.7495 70.9921 36.7495C75.5941 36.7495 78.541 40.0062 78.541 44.9474V58.8444H71.806V46.2388C71.806 43.7963 70.4871 42.3364 68.2422 42.3083C65.9974 42.3083 64.5106 43.8244 64.5106 46.3511V58.8164L64.4825 58.8444Z" fill="black"/>
<path d="M95.0134 42.0279H90.8886V58.8448H84.0981V42.0279H81.1235V37.0587H84.0981V35.8515C84.0981 30.9103 86.9881 28.4116 91.5058 28.4116C93.0492 28.4116 94.2281 28.552 95.4066 28.7766V33.802C94.4806 33.7178 93.8629 33.6897 93.5542 33.6897C91.8425 33.6897 90.8605 34.3635 90.8605 36.0199V37.0587H94.9853V42.0279H95.0134Z" fill="black"/>
<path d="M96.7236 48.0068C96.7236 41.2969 100.876 36.7769 107.667 36.7769C114.486 36.7769 118.61 41.2969 118.61 48.0068C118.61 54.7167 114.486 59.2368 107.667 59.2368C100.876 59.2368 96.7236 54.7167 96.7236 48.0068ZM107.695 54.1552C110.277 54.1552 111.736 51.6285 111.708 47.9787C111.708 44.3571 110.277 41.8303 107.695 41.8023C105.029 41.8023 103.57 44.3571 103.598 47.9787C103.598 51.6285 105.029 54.1271 107.695 54.1552Z" fill="black"/>
<path d="M122.088 37.0576H128.655V40.9881H128.851C129.665 38.1244 131.574 36.7488 133.987 36.7207C134.604 36.7207 135.362 36.833 135.923 36.9734V42.8691C135.277 42.6726 134.071 42.5322 133.229 42.5603C130.704 42.5603 128.823 44.3009 128.851 46.94V58.8437H122.061V37.0576H122.088Z" fill="black"/>
<path d="M138.674 37.0583H145.1V41.0169H145.352C146.278 38.3779 148.552 36.7495 151.526 36.7495C154.5 36.7495 156.829 38.4059 157.418 41.0169H157.671C158.513 38.434 161.038 36.7495 164.237 36.7495C168.334 36.7495 171.169 39.5289 171.169 44.1332V58.8164H164.377V45.6492C164.377 43.4313 163.115 42.2522 161.291 42.2522C159.355 42.2522 158.176 43.6279 158.176 45.7335V58.8164H151.666V45.565C151.666 43.5156 150.432 42.2241 148.608 42.2241C146.784 42.2241 145.408 43.6559 145.436 45.8738V58.7883H138.646V37.0022L138.674 37.0583Z" fill="black"/>
<path d="M182.477 45.9573C184.048 45.845 186.771 45.7608 187.697 45.7047V43.9359C187.697 42.4199 186.574 41.5496 184.722 41.5777C182.926 41.5777 181.776 42.3638 181.523 43.7956H175.238C175.547 39.9493 178.801 36.7769 184.891 36.7769C190.278 36.7769 194.459 39.3317 194.487 44.0482V58.8437H188.117V55.7835H187.949C186.771 58.0015 184.666 59.2087 181.608 59.2368C177.427 59.2368 174.396 57.1031 174.424 52.7795C174.424 47.9507 178.156 46.21 182.477 45.9573ZM183.628 54.7448C185.929 54.7448 187.753 53.2287 187.725 51.095V49.6913C186.911 49.6913 184.61 49.8317 183.6 49.944C181.888 50.1124 180.822 51.067 180.822 52.4988C180.822 53.9587 181.972 54.7448 183.628 54.7448Z" fill="black"/>
<path d="M210.761 42.0291H206.777V52.0237C206.777 53.3994 207.478 53.8205 208.628 53.8205C209.19 53.8486 210.284 53.8205 211.042 53.7363V58.9021C210.369 59.0144 209.246 59.1267 207.674 59.1547C202.876 59.1547 200.014 57.1614 200.042 52.7817V42.0291H197.124V37.0598H200.042V31.8379H206.777V37.0598H210.761V42.0291Z" fill="black"/>
<path d="M217.634 27.934C219.57 27.934 221.142 29.3658 221.17 31.1907C221.17 32.9875 219.599 34.4474 217.634 34.4474C215.67 34.4474 214.155 33.0155 214.155 31.1907C214.155 29.3658 215.726 27.9059 217.634 27.934ZM214.239 37.0583H221.029V58.8444H214.239V37.0583Z" fill="black"/>
<path d="M224.507 48.0068C224.507 41.2969 228.661 36.7769 235.451 36.7769C242.27 36.7769 246.395 41.2969 246.395 48.0068C246.395 54.7167 242.27 59.2368 235.451 59.2368C228.661 59.2368 224.507 54.7167 224.507 48.0068ZM235.479 54.1552C238.061 54.1552 239.52 51.6285 239.492 47.9787C239.492 44.3571 238.061 41.8303 235.479 41.8023C232.814 41.8023 231.355 44.3571 231.383 47.9787C231.383 51.6285 232.814 54.1271 235.479 54.1552Z" fill="black"/>
<path d="M256.67 58.8444H249.879V37.0583H256.305V41.0169H256.558C257.54 38.3779 259.981 36.7495 263.18 36.7495C267.782 36.7495 270.728 40.0062 270.728 44.9474V58.8444H263.993V46.2388C263.993 43.7963 262.675 42.3364 260.43 42.3083C258.185 42.3083 256.698 43.8244 256.698 46.3511V58.8164L256.67 58.8444Z" fill="black"/>
</svg>
