<svg width="156" height="144" viewBox="0 0 156 144" fill="none" xmlns="http://www.w3.org/2000/svg">
<path d="M153.903 28.4043H1.38171V142.538H153.903V28.4043Z" fill="white"/>
<path d="M152.642 29.6729V141.276H2.65074V29.6729H152.642ZM155.173 27.1356H0.120605V143.8H155.173V27.1356Z" fill="black"/>
<path d="M13.8707 97.4351V91.8279C25.842 91.8279 35.5774 82.0925 35.5774 70.1212C35.5774 58.1499 25.842 48.4145 13.8707 48.4145V42.8073C28.933 42.8073 41.1846 55.0589 41.1846 70.1212C41.1846 85.1834 28.933 97.4351 13.8707 97.4351Z" fill="black"/>
<path d="M142.121 126.684H127.087V121.077H136.514V110.97H18.3989V121.077H105.282V126.684H12.7917V105.363H142.121V126.684Z" fill="black"/>
<path d="M142.633 89.8375H73.1877V95.4447H142.633V89.8375Z" fill="black"/>
<path d="M131.439 43.4181H105.779V49.0253H131.439V43.4181Z" fill="black"/>
<path d="M110.244 43.4181H104.637V90.294H110.244V43.4181Z" fill="black"/>
<path d="M109.936 75.8899H98.0067C91.4463 75.8899 86.1125 70.5561 86.1125 63.9957C86.1125 57.4353 91.4463 52.1015 98.0067 52.1015C104.567 52.1015 109.936 57.4423 109.936 63.9957V75.8899ZM98.0418 57.7017C94.5443 57.7017 91.7197 60.5263 91.7197 63.9887C91.7197 67.4511 94.5443 70.2757 98.0067 70.2757H104.329V63.9887C104.329 60.5193 101.504 57.7017 98.0418 57.7017Z" fill="black"/>
<path d="M131.579 70.283H105.891V75.8901H131.579V70.283Z" fill="black"/>
<path d="M45.3279 41.9873H39.7207V106.498H45.3279V41.9873Z" fill="black"/>
<path d="M45.2986 92.6832H39.6914C39.6914 78.7984 50.9898 67.5 64.8745 67.5H69.5566V73.1072H64.8745C54.0807 73.1072 45.2986 81.8894 45.2986 92.6832Z" fill="black"/>
<path d="M42.769 33.8711L36.377 44.9452H49.1683L42.769 33.8711Z" fill="black"/>
<path d="M66.6699 92.6766L77.7511 99.0758V86.2774L66.6699 92.6766Z" fill="black"/>
<path d="M117.134 124.217L128.215 130.616V117.817L117.134 124.217Z" fill="black"/>
<path d="M138.729 73.0515L127.647 66.6524V79.4507L138.729 73.0515Z" fill="black"/>
<path d="M79.1535 70.2478L68.0723 63.8486V76.647L79.1535 70.2478Z" fill="black"/>
<path d="M8.71119 36.4088C9.3886 36.4088 9.93775 35.8597 9.93775 35.1823C9.93775 34.5048 9.3886 33.9557 8.71119 33.9557C8.03377 33.9557 7.48462 34.5048 7.48462 35.1823C7.48462 35.8597 8.03377 36.4088 8.71119 36.4088Z" fill="black"/>
<path d="M146.789 36.4088C147.467 36.4088 148.016 35.8597 148.016 35.1823C148.016 34.5048 147.467 33.9557 146.789 33.9557C146.112 33.9557 145.563 34.5048 145.563 35.1823C145.563 35.8597 146.112 36.4088 146.789 36.4088Z" fill="black"/>
<path d="M8.71119 137.337C9.3886 137.337 9.93775 136.788 9.93775 136.11C9.93775 135.433 9.3886 134.884 8.71119 134.884C8.03377 134.884 7.48462 135.433 7.48462 136.11C7.48462 136.788 8.03377 137.337 8.71119 137.337Z" fill="black"/>
<path d="M146.789 137.337C147.467 137.337 148.016 136.788 148.016 136.11C148.016 135.433 147.467 134.884 146.789 134.884C146.112 134.884 145.563 135.433 145.563 136.11C145.563 136.788 146.112 137.337 146.789 137.337Z" fill="black"/>
<path d="M78.1786 1.05805H1.05908V20.7041H78.1786V1.05805Z" fill="white"/>
<path d="M77.1205 2.12371V19.6461H2.12466V2.12371H77.1205ZM79.2372 0H0.00109863V21.7628H79.2372V0Z" fill="black"/>
<path d="M13.3248 14.6906H11.6217V7.43629H13.3248V14.6906Z" fill="black"/>
<path d="M16.1079 14.6904H14.4116V9.25149H16.0167V10.2398H16.0798C16.3252 9.58091 16.9348 9.17439 17.7339 9.17439C18.8833 9.17439 19.6194 9.98743 19.6194 11.221V14.6904H17.9371V11.5434C17.9371 10.9336 17.6077 10.5692 17.047 10.5622C16.4863 10.5622 16.1149 10.9406 16.1149 11.5715V14.6834L16.1079 14.6904Z" fill="black"/>
<path d="M23.7333 10.4925H22.703V14.6908H21.0069V10.4925H20.2639V9.25187H21.0069V8.95049C21.0069 7.71691 21.7288 7.09311 22.8572 7.09311C23.2427 7.09311 23.5372 7.12816 23.8315 7.18423V8.43883C23.6002 8.4178 23.4459 8.4108 23.3688 8.4108C22.9413 8.4108 22.696 8.57901 22.696 8.99254V9.25187H23.7263V10.4925H23.7333Z" fill="black"/>
<path d="M24.1605 11.9851C24.1605 10.31 25.1978 9.18152 26.8939 9.18152C28.5971 9.18152 29.6274 10.31 29.6274 11.9851C29.6274 13.6602 28.5971 14.7887 26.8939 14.7887C25.1978 14.7887 24.1605 13.6602 24.1605 11.9851ZM26.901 13.5201C27.5458 13.5201 27.9102 12.8893 27.9032 11.9781C27.9032 11.0739 27.5458 10.4431 26.901 10.4361C26.2351 10.4361 25.8707 11.0739 25.8777 11.9781C25.8777 12.8893 26.2351 13.5131 26.901 13.5201Z" fill="black"/>
<path d="M30.4963 9.25178H32.1365V10.233H32.1856C32.3889 9.51812 32.8655 9.17468 33.4683 9.16768C33.6225 9.16768 33.8117 9.19571 33.9519 9.23076V10.7026C33.7907 10.6536 33.4893 10.6185 33.2791 10.6255C32.6482 10.6255 32.1786 11.0601 32.1856 11.7189V14.6907H30.4895V9.25178H30.4963Z" fill="black"/>
<path d="M34.639 9.25149H36.2441V10.2398H36.307C36.5383 9.58091 37.1062 9.17439 37.8491 9.17439C38.5921 9.17439 39.1737 9.58792 39.3209 10.2398H39.384C39.5943 9.59493 40.225 9.17439 41.024 9.17439C42.0473 9.17439 42.7554 9.86827 42.7554 11.0177V14.6834H41.0591V11.3962C41.0591 10.8425 40.7438 10.5481 40.2882 10.5481C39.8046 10.5481 39.5102 10.8916 39.5102 11.4173V14.6834H37.884V11.3752C37.884 10.8635 37.5758 10.5411 37.1202 10.5411C36.6646 10.5411 36.3211 10.8986 36.3281 11.4523V14.6764H34.632V9.23747L34.639 9.25149Z" fill="black"/>
<path d="M45.5803 11.4734C45.9728 11.4454 46.6527 11.4244 46.884 11.4104V10.9688C46.884 10.5903 46.6036 10.373 46.141 10.38C45.6924 10.38 45.4051 10.5763 45.3421 10.9338H43.7721C43.8492 9.97353 44.6622 9.18152 46.1831 9.18152C47.5288 9.18152 48.5731 9.81933 48.5801 10.9968V14.6906H46.9891V13.9266H46.9471C46.6528 14.4803 46.1271 14.7817 45.3631 14.7887C44.3188 14.7887 43.5618 14.256 43.5688 13.1766C43.5688 11.9711 44.5009 11.5365 45.5803 11.4734ZM45.8677 13.6672C46.4425 13.6672 46.898 13.2888 46.891 12.7561V12.4056C46.6878 12.4056 46.113 12.4407 45.8607 12.4687C45.4332 12.5108 45.1668 12.7491 45.1668 13.1065C45.1668 13.471 45.4542 13.6672 45.8677 13.6672Z" fill="black"/>
<path d="M52.6453 10.4928H51.6501V12.988C51.6501 13.3314 51.8252 13.4365 52.1126 13.4365C52.2528 13.4435 52.5262 13.4365 52.7154 13.4155V14.7052C52.5472 14.7332 52.2667 14.7612 51.8742 14.7682C50.6757 14.7682 49.9608 14.2706 49.9678 13.1772V10.4928H49.239V9.25219H49.9678V7.94853H51.6501V9.25219H52.6453V10.4928Z" fill="black"/>
<path d="M54.3621 6.97407C54.8458 6.97407 55.2383 7.33152 55.2453 7.78711C55.2453 8.23568 54.8528 8.60014 54.3621 8.60014C53.8715 8.60014 53.493 8.24269 53.493 7.78711C53.493 7.33152 53.8855 6.96706 54.3621 6.97407ZM53.5141 9.25198H55.2102V14.6909H53.5141V9.25198Z" fill="black"/>
<path d="M56.079 11.9851C56.079 10.31 57.1164 9.18152 58.8126 9.18152C60.5157 9.18152 61.546 10.31 61.546 11.9851C61.546 13.6602 60.5157 14.7887 58.8126 14.7887C57.1164 14.7887 56.079 13.6602 56.079 11.9851ZM58.8196 13.5201C59.4644 13.5201 59.8288 12.8893 59.8218 11.9781C59.8218 11.0739 59.4644 10.4431 58.8196 10.4361C58.1537 10.4361 57.7893 11.0739 57.7963 11.9781C57.7963 12.8893 58.1537 13.5131 58.8196 13.5201Z" fill="black"/>
<path d="M64.1118 14.6904H62.4155V9.25149H64.0206V10.2398H64.0837C64.3291 9.58091 64.9387 9.17439 65.7378 9.17439C66.8872 9.17439 67.6233 9.98743 67.6233 11.221V14.6904H65.9411V11.5434C65.9411 10.9336 65.6116 10.5692 65.0509 10.5622C64.4902 10.5622 64.1188 10.9406 64.1188 11.5715V14.6834L64.1118 14.6904Z" fill="black"/>
</svg>
