<svg width="600" height="529" viewBox="0 0 600 529" fill="none" xmlns="http://www.w3.org/2000/svg">
<path d="M402.279 130.765H198.025C91.3863 130.765 4.93848 217.212 4.93848 323.851V331.176C4.93848 437.815 91.3863 524.262 198.025 524.262H402.279C508.917 524.262 595.365 437.815 595.365 331.176V323.851C595.365 217.212 508.917 130.765 402.279 130.765Z" fill="#FF0000"/>
<path d="M402.302 135.4C506.387 135.4 590.754 219.767 590.754 323.851V331.2C590.754 435.284 506.387 519.651 402.302 519.651H198.025C93.9405 519.651 9.57329 435.284 9.57329 331.2V323.851C9.57329 219.767 93.9405 135.4 198.025 135.4H402.302ZM402.302 126.154H198.025C89.0172 126.154 0.327148 214.844 0.327148 323.851V331.2C0.327148 440.207 89.0172 528.898 198.025 528.898H402.302C511.31 528.898 600 440.207 600 331.2V323.851C600 214.844 511.31 126.154 402.302 126.154Z" fill="white"/>
<path d="M39.9535 340.014C42.2746 340.014 44.1562 338.133 44.1562 335.812C44.1562 333.491 42.2746 331.609 39.9535 331.609C37.6324 331.609 35.7507 333.491 35.7507 335.812C35.7507 338.133 37.6324 340.014 39.9535 340.014Z" fill="white"/>
<path d="M561.095 340.014C563.416 340.014 565.298 338.133 565.298 335.812C565.298 333.491 563.416 331.609 561.095 331.609C558.774 331.609 556.892 333.491 556.892 335.812C556.892 338.133 558.774 340.014 561.095 340.014Z" fill="white"/>
<path d="M350.285 327.502C319.377 327.502 294.208 302.357 294.208 271.425C294.208 240.493 319.353 215.348 350.285 215.348C381.217 215.348 406.361 240.493 406.361 271.425C406.361 302.357 381.217 327.502 350.285 327.502ZM350.285 234.561C329.968 234.561 313.421 251.108 313.421 271.425C313.421 291.742 329.968 308.289 350.285 308.289C370.602 308.289 387.149 291.742 387.149 271.425C387.149 251.108 370.602 234.561 350.285 234.561Z" fill="white"/>
<path d="M411.188 481.178V461.966C441.232 461.966 465.656 437.542 465.656 407.498C465.656 377.454 441.232 353.03 411.188 353.03V333.818C451.823 333.818 484.868 366.864 484.868 407.498C484.868 448.133 451.823 481.178 411.188 481.178Z" fill="white"/>
<path d="M465.033 396.763L464.528 212.971L289.622 321.93L279.463 305.623L483.645 178.436L484.245 396.715L465.033 396.763Z" fill="white"/>
<path d="M271.489 206.727H252.277V437.374H271.489V206.727Z" fill="white"/>
<path d="M198.025 415.328C177.78 415.328 161.305 398.853 161.305 378.608V291.167C161.305 269.288 143.509 251.493 121.631 251.493H70.7656V232.28H121.631C154.1 232.28 180.518 258.697 180.518 291.167V378.608C180.518 388.262 188.371 396.115 198.025 396.115C207.679 396.115 215.532 388.262 215.532 378.608V216.43H234.745V378.608C234.745 398.853 218.27 415.328 198.025 415.328Z" fill="white"/>
<path d="M44.4446 242.677L82.4134 264.604V220.775L44.4446 242.677Z" fill="white"/>
<path d="M261.883 472.124L283.81 434.155H239.957L261.883 472.124Z" fill="white"/>
<path d="M261.883 176.539L239.957 214.507H283.81L261.883 176.539Z" fill="white"/>
<path d="M390.271 470.827L428.24 492.753V448.925L390.271 470.827Z" fill="white"/>
<path d="M114.668 113.652C106.071 113.652 99.1784 107.985 97.5454 99.5312C95.9123 91.0777 100.163 83.2486 108.16 80.0305L291.04 6.47029C293.658 5.4136 296.395 4.88525 299.205 4.88525C302.015 4.88525 304.777 5.4136 307.371 6.47029L490.25 80.0305C498.224 83.2486 502.498 91.0777 500.865 99.5312C499.232 107.985 492.34 113.652 483.742 113.652H114.668Z" fill="#FF0000"/>
<path d="M299.204 9.49556C301.39 9.49556 303.575 9.90383 305.665 10.7444L488.544 84.3045C501.633 89.564 497.862 109.017 483.765 109.017H114.692C100.594 109.017 96.8239 89.564 109.912 84.3045L292.792 10.7444C294.858 9.90383 297.043 9.49556 299.253 9.49556M299.204 0.249512C295.794 0.249512 292.456 0.897937 289.31 2.17077L106.43 75.7309C96.4876 79.7416 90.9641 89.8762 93.0054 100.395C95.0468 110.914 103.957 118.263 114.668 118.263H483.741C494.452 118.263 503.362 110.914 505.403 100.395C507.445 89.8762 501.921 79.7416 491.979 75.7309L309.099 2.17077C305.929 0.897937 302.615 0.249512 299.204 0.249512Z" fill="white"/>
<path d="M212.075 85.2166H206.239V60.3604H212.075V85.2166Z" fill="white"/>
<path d="M221.634 85.2182H215.822V66.582H221.321V69.9683H221.537C222.378 67.7108 224.467 66.3179 227.205 66.3179C231.144 66.3179 233.665 69.1037 233.665 73.3305V85.2182H227.902V74.4352C227.902 72.3458 226.773 71.097 224.852 71.073C222.93 71.073 221.658 72.3698 221.658 74.5312V85.1942L221.634 85.2182Z" fill="white"/>
<path d="M247.738 70.8322H244.207V85.2176H238.396V70.8322H235.85V66.5814H238.396V65.5487C238.396 61.322 240.869 59.1846 244.736 59.1846C246.057 59.1846 247.065 59.3047 248.074 59.4968V63.7956C247.281 63.7235 246.753 63.6995 246.489 63.6995C245.024 63.6995 244.183 64.2759 244.183 65.6928V66.5814H247.714V70.8322H247.738Z" fill="white"/>
<path d="M249.202 75.9476C249.202 70.2078 252.756 66.3413 258.568 66.3413C264.38 66.3413 267.934 70.2078 267.934 75.9476C267.934 81.6874 264.404 85.5539 258.568 85.5539C252.732 85.5539 249.202 81.6874 249.202 75.9476ZM258.616 81.207C260.825 81.207 262.074 79.0456 262.05 75.9236C262.05 72.8256 260.825 70.6641 258.616 70.6401C256.335 70.6401 255.086 72.8256 255.11 75.9236C255.11 79.0456 256.335 81.183 258.616 81.207Z" fill="white"/>
<path d="M270.936 66.5812H276.556V69.9434H276.724C277.42 67.4938 279.053 66.317 281.119 66.293C281.647 66.293 282.296 66.389 282.776 66.5091V71.5524C282.224 71.3843 281.191 71.2642 280.47 71.2882C278.309 71.2882 276.7 72.7772 276.724 75.0347V85.2174H270.912V66.5812H270.936Z" fill="white"/>
<path d="M285.107 66.582H290.606V69.9683H290.822C291.615 67.7108 293.56 66.3179 296.106 66.3179C298.651 66.3179 300.645 67.7348 301.149 69.9683H301.365C302.086 67.7588 304.247 66.3179 306.985 66.3179C310.491 66.3179 312.917 68.6954 312.917 72.634V85.1942H307.105V73.9309C307.105 72.0336 306.024 71.025 304.463 71.025C302.806 71.025 301.798 72.2017 301.798 74.0029V85.1942H296.226V73.8588C296.226 72.1057 295.169 71.0009 293.608 71.0009C292.047 71.0009 290.87 72.2257 290.894 74.123V85.1702H285.083V66.534L285.107 66.582Z" fill="white"/>
<path d="M322.595 74.2174C323.94 74.1213 326.269 74.0493 327.062 74.0012V72.4883C327.062 71.1914 326.101 70.4469 324.516 70.4709C322.979 70.4709 321.995 71.1434 321.778 72.3682H316.399C316.663 69.078 319.449 66.3643 324.66 66.3643C329.271 66.3643 332.85 68.5497 332.874 72.5843V85.2406H327.422V82.6229H327.278C326.269 84.5201 324.468 85.5528 321.85 85.5768C318.272 85.5768 315.678 83.7516 315.702 80.0532C315.702 75.9225 318.896 74.4335 322.595 74.2174ZM323.603 81.7103C325.573 81.7103 327.134 80.4135 327.11 78.5883V77.3875C326.413 77.3875 324.444 77.5075 323.58 77.6036C322.115 77.7477 321.202 78.5642 321.202 79.789C321.202 81.0379 322.187 81.7103 323.603 81.7103Z" fill="white"/>
<path d="M346.802 70.8324H343.392V79.382C343.392 80.5588 343.993 80.9191 344.977 80.9191C345.458 80.9431 346.394 80.9191 347.043 80.847V85.2659C346.466 85.362 345.506 85.458 344.161 85.482C340.054 85.482 337.604 83.7769 337.628 80.0305V70.8324H335.131V66.5817H337.628V62.1147H343.392V66.5817H346.802V70.8324Z" fill="white"/>
<path d="M352.71 58.8001C354.368 58.8001 355.712 60.0249 355.736 61.586C355.736 63.123 354.392 64.3718 352.71 64.3718C351.029 64.3718 349.732 63.147 349.732 61.586C349.732 60.0249 351.077 58.7761 352.71 58.8001ZM349.781 66.5812H355.592V85.2174H349.781V66.5812Z" fill="white"/>
<path d="M358.57 75.9476C358.57 70.2078 362.124 66.3413 367.936 66.3413C373.748 66.3413 377.302 70.2078 377.302 75.9476C377.302 81.6874 373.772 85.5539 367.936 85.5539C362.1 85.5539 358.57 81.6874 358.57 75.9476ZM367.984 81.207C370.193 81.207 371.442 79.0456 371.418 75.9236C371.418 72.8256 370.193 70.6641 367.984 70.6401C365.702 70.6401 364.453 72.8256 364.478 75.9236C364.478 79.0456 365.702 81.183 367.984 81.207Z" fill="white"/>
<path d="M386.117 85.2182H380.305V66.582H385.805V69.9683H386.021C386.862 67.7108 388.951 66.3179 391.689 66.3179C395.627 66.3179 398.149 69.1037 398.149 73.3305V85.2182H392.385V74.4352C392.385 72.3458 391.257 71.097 389.335 71.073C387.414 71.073 386.141 72.3698 386.141 74.5312V85.1942L386.117 85.2182Z" fill="white"/>
</svg>
