<svg width="181" height="208" viewBox="0 0 181 208" fill="none" xmlns="http://www.w3.org/2000/svg">
<path d="M137.558 138.878L137.558 68.3068C137.558 31.4622 107.69 1.59369 70.8454 1.59369L68.3146 1.59369C31.47 1.59368 1.60148 31.4622 1.60148 68.3068L1.60148 138.878C1.60148 175.723 31.47 205.591 68.3146 205.591L70.8454 205.591C107.69 205.591 137.558 175.723 137.558 138.878Z" fill="#FF0000"/>
<path d="M135.956 138.886C135.956 174.848 106.807 203.998 70.8447 203.998L68.3057 203.998C32.3437 203.998 3.19401 174.848 3.19401 138.886L3.19401 68.3066C3.19401 32.3446 32.3437 3.19496 68.3057 3.19496L70.8448 3.19496C106.807 3.19496 135.956 32.3446 135.956 68.3066L135.956 138.886ZM139.151 138.886L139.151 68.3066C139.151 30.6436 108.508 0.000334354 70.8448 0.000332708L68.3057 0.000332597C30.6426 0.00033095 -0.000581173 30.6436 -0.00058282 68.3066L-0.000585905 138.886C-0.000587551 176.549 30.6426 207.193 68.3057 207.193L70.8447 207.193C108.508 207.193 139.151 176.549 139.151 138.886Z" fill="white"/>
<path d="M65.2596 13.6924C65.2596 14.4944 65.9098 15.1445 66.7117 15.1445C67.5137 15.1445 68.1638 14.4944 68.1638 13.6924C68.1638 12.8904 67.5137 12.2403 66.7117 12.2403C65.9098 12.2403 65.2596 12.8904 65.2596 13.6924Z" fill="white"/>
<path d="M65.2596 193.75C65.2596 194.552 65.9098 195.202 66.7117 195.202C67.5137 195.202 68.1638 194.552 68.1638 193.75C68.1638 192.948 67.5137 192.298 66.7117 192.298C65.9098 192.298 65.2596 192.948 65.2596 193.75Z" fill="white"/>
<path d="M69.5826 120.915C69.5826 110.236 78.2703 101.54 88.9576 101.54C99.645 101.54 108.333 110.228 108.333 120.915C108.333 131.602 99.645 140.29 88.9576 140.29C78.2703 140.29 69.5826 131.602 69.5826 120.915ZM101.695 120.915C101.695 113.895 95.9774 108.178 88.9576 108.178C81.9378 108.178 76.2207 113.895 76.2207 120.915C76.2207 127.935 81.9378 133.652 88.9576 133.652C95.9774 133.652 101.695 127.935 101.695 120.915Z" fill="white"/>
<path d="M16.4867 141.957L23.1249 141.957C23.1249 152.338 31.5636 160.776 41.9439 160.776C52.3243 160.776 60.763 152.338 60.763 141.957L67.4011 141.957C67.4011 155.997 55.9835 167.414 41.9439 167.414C27.9043 167.414 16.4867 155.997 16.4867 141.957Z" fill="white"/>
<path d="M45.6541 160.561L109.156 160.387L71.5096 99.9552L77.1437 96.4453L121.088 166.992L45.6707 167.199L45.6541 160.561Z" fill="white"/>
<path d="M111.312 93.691L111.312 87.0529L31.6215 87.0529L31.6215 93.691L111.312 93.691Z" fill="white"/>
<path d="M39.2394 68.3071C39.2394 61.3122 44.9316 55.62 51.9265 55.62L82.1383 55.62C89.6974 55.62 95.846 49.4715 95.846 41.9123L95.846 24.3379L102.484 24.3379L102.484 41.9123C102.484 53.1307 93.3567 62.2582 82.1383 62.2582L51.9265 62.2582C48.5909 62.2582 45.8776 64.9715 45.8776 68.3071C45.8776 71.6428 48.5909 74.3561 51.9265 74.3561L107.961 74.3561L107.961 80.9942L51.9265 80.9942C44.9316 80.9942 39.2394 75.302 39.2394 68.3071Z" fill="white"/>
<path d="M98.8902 15.2441L91.3144 28.3627L106.458 28.3627L98.8902 15.2441Z" fill="white"/>
<path d="M19.6144 90.3713L32.733 97.947L32.733 82.7955L19.6144 90.3713Z" fill="white"/>
<path d="M121.743 90.3713L108.625 82.7955L108.625 97.947L121.743 90.3713Z" fill="white"/>
<path d="M20.0624 134.73L12.4867 147.849L27.6299 147.849L20.0624 134.73Z" fill="white"/>
<path d="M141.248 39.8602C141.248 36.8897 143.206 34.5083 146.127 33.9441C149.048 33.3798 151.753 34.8485 152.865 37.6116L178.28 100.798C178.645 101.703 178.828 102.649 178.828 103.619C178.828 104.59 178.645 105.544 178.28 106.441L152.865 169.627C151.753 172.382 149.048 173.859 146.127 173.295C143.206 172.73 141.248 170.349 141.248 167.379L141.248 39.8602Z" fill="#FF0000"/>
<path d="M177.235 103.618C177.235 104.373 177.094 105.128 176.804 105.85L151.388 169.036C149.571 173.559 142.85 172.256 142.85 167.385L142.85 39.8669C142.85 34.9962 149.571 33.6935 151.388 38.2157L176.804 101.402C177.094 102.116 177.235 102.871 177.235 103.634M180.43 103.618C180.43 102.44 180.206 101.286 179.766 100.199L154.35 37.0126C152.965 33.5773 149.463 31.6689 145.829 32.3742C142.194 33.0795 139.655 36.1579 139.655 39.8586L139.655 167.377C139.655 171.078 142.194 174.156 145.829 174.861C149.463 175.567 152.965 173.658 154.35 170.223L179.766 107.036C180.206 105.941 180.43 104.796 180.43 103.618Z" fill="white"/>
<path d="M151.073 73.5136L151.073 71.4973L159.661 71.4973L159.661 73.5136L151.073 73.5136Z" fill="white"/>
<path d="M151.074 76.8162L151.074 74.8082L157.513 74.8082L157.513 76.7083L156.343 76.7083L156.343 76.783C157.123 77.0734 157.604 77.7953 157.604 78.7413C157.604 80.1021 156.642 80.9733 155.181 80.9733L151.074 80.9733L151.074 78.9819L154.8 78.9819C155.521 78.9819 155.953 78.5919 155.961 77.9281C155.961 77.2643 155.513 76.8245 154.766 76.8245L151.082 76.8245L151.074 76.8162Z" fill="white"/>
<path d="M156.044 85.836L156.044 84.6163L151.074 84.6163L151.074 82.6082L156.044 82.6082L156.044 81.7287L157.513 81.7287L157.513 82.6082L157.87 82.6082C159.33 82.6082 160.068 83.4629 160.068 84.7988C160.068 85.2552 160.027 85.6037 159.961 85.9522L158.475 85.9522C158.5 85.6784 158.509 85.4958 158.509 85.4046C158.509 84.8984 158.309 84.608 157.82 84.608L157.513 84.608L157.513 85.8277L156.044 85.8277L156.044 85.836Z" fill="white"/>
<path d="M154.277 86.3418C156.261 86.3418 157.597 87.5699 157.597 89.5779C157.597 91.586 156.261 92.814 154.277 92.814C152.294 92.814 150.958 91.5943 150.958 89.5779C150.958 87.5616 152.294 86.3418 154.277 86.3418ZM152.46 89.5945C152.46 90.3579 153.207 90.7894 154.286 90.7811C155.356 90.7811 156.103 90.3579 156.111 89.5945C156.111 88.8062 155.356 88.3748 154.286 88.3831C153.207 88.3831 152.469 88.8062 152.46 89.5945Z" fill="white"/>
<path d="M157.513 93.8504L157.513 95.7921L156.351 95.7921L156.351 95.8502C157.198 96.0908 157.604 96.655 157.613 97.3686C157.613 97.5512 157.579 97.7752 157.538 97.9412L155.795 97.9412C155.853 97.7503 155.895 97.3936 155.887 97.1446C155.887 96.3978 155.372 95.8419 154.592 95.8502L151.074 95.8502L151.074 93.8421L157.513 93.8421L157.513 93.8504Z" fill="white"/>
<path d="M157.513 98.7463L157.513 100.646L156.343 100.646L156.343 100.721C157.123 100.995 157.604 101.667 157.604 102.547C157.604 103.426 157.115 104.115 156.343 104.289L156.343 104.364C157.106 104.613 157.604 105.36 157.604 106.305C157.604 107.517 156.783 108.355 155.422 108.355L151.082 108.355L151.082 106.347L154.974 106.347C155.629 106.347 155.978 105.974 155.978 105.434C155.978 104.862 155.571 104.513 154.949 104.513L151.082 104.513L151.082 102.588L154.999 102.588C155.604 102.588 155.986 102.223 155.986 101.684C155.986 101.144 155.563 100.738 154.907 100.746L151.09 100.746L151.09 98.738L157.529 98.738L157.513 98.7463Z" fill="white"/>
<path d="M154.875 111.7C154.908 112.165 154.933 112.969 154.949 113.243L155.472 113.243C155.92 113.243 156.178 112.911 156.169 112.364C156.169 111.833 155.937 111.493 155.514 111.418L155.514 109.559C156.651 109.65 157.588 110.613 157.588 112.414C157.588 114.007 156.833 115.243 155.439 115.251L151.066 115.251L151.066 113.368L151.971 113.368L151.971 113.318C151.315 112.97 150.958 112.347 150.95 111.443C150.95 110.206 151.581 109.31 152.858 109.319C154.286 109.319 154.8 110.422 154.875 111.7ZM152.286 112.048C152.286 112.729 152.734 113.268 153.365 113.26L153.78 113.26C153.78 113.019 153.738 112.339 153.705 112.04C153.655 111.534 153.373 111.219 152.95 111.219C152.518 111.219 152.286 111.559 152.286 112.048Z" fill="white"/>
<path d="M156.044 120.064L156.044 118.885L153.09 118.885C152.683 118.885 152.559 119.093 152.559 119.433C152.55 119.599 152.559 119.923 152.583 120.147L151.057 120.147C151.024 119.947 150.99 119.615 150.982 119.151C150.982 117.732 151.571 116.886 152.866 116.894L156.044 116.894L156.044 116.031L157.512 116.031L157.512 116.894L159.056 116.894L159.056 118.885L157.512 118.885L157.512 120.064L156.044 120.064Z" fill="white"/>
<path d="M160.201 122.104C160.201 122.677 159.778 123.141 159.238 123.15C158.707 123.15 158.276 122.685 158.276 122.104C158.276 121.523 158.699 121.075 159.238 121.075C159.778 121.075 160.209 121.54 160.201 122.104ZM157.512 121.092L157.512 123.1L151.074 123.1L151.074 121.092L157.512 121.092Z" fill="white"/>
<path d="M154.277 124.129C156.261 124.129 157.597 125.357 157.597 127.365C157.597 129.373 156.261 130.601 154.277 130.601C152.294 130.601 150.958 129.381 150.958 127.365C150.958 125.348 152.294 124.129 154.277 124.129ZM152.46 127.381C152.46 128.145 153.207 128.576 154.286 128.568C155.356 128.568 156.103 128.145 156.111 127.381C156.111 126.593 155.356 126.162 154.286 126.17C153.207 126.17 152.469 126.593 152.46 127.381Z" fill="white"/>
<path d="M151.074 133.647L151.074 131.639L157.513 131.639L157.513 133.539L156.343 133.539L156.343 133.614C157.123 133.904 157.604 134.626 157.604 135.572C157.604 136.933 156.642 137.804 155.181 137.804L151.074 137.804L151.074 135.813L154.8 135.813C155.521 135.813 155.953 135.423 155.961 134.759C155.961 134.095 155.513 133.655 154.766 133.655L151.082 133.655L151.074 133.647Z" fill="white"/>
</svg>
