<svg width="404" height="602" viewBox="0 0 404 602" fill="none" xmlns="http://www.w3.org/2000/svg">
<path d="M399.605 81.9692H4.03223V597.969H399.605V81.9692Z" fill="#0043FF"/>
<path d="M395.573 86V593.937H8.0625V86H395.573ZM403.635 77.9375H0V602H403.635V77.9375Z" fill="white"/>
<path d="M399.605 4.03076H4.03223V85.6501H399.605V4.03076Z" fill="#0043FF"/>
<path d="M395.573 8.0625V81.6193H8.0625V8.0625H395.573ZM403.635 0H0V89.6818H403.635V0Z" fill="white"/>
<path d="M377.594 528.55L335.104 504.04V553.087L377.594 528.55Z" fill="white"/>
<path d="M131.097 109.489L106.561 151.979H155.634L131.097 109.489Z" fill="white"/>
<path d="M39.0205 341.312V319.812C78.0161 319.812 109.755 288.072 109.755 249.077C109.755 210.081 78.0161 178.342 39.0205 178.342V156.842C89.868 156.842 131.255 198.229 131.255 249.077C131.255 299.924 89.868 341.312 39.0205 341.312Z" fill="white"/>
<path d="M141.98 139.534H120.48V372.218H141.98V139.534Z" fill="white"/>
<path d="M252.06 364.156H39.1299V385.656H252.06V364.156Z" fill="white"/>
<path d="M265.122 440.455H207.985V460.342H265.122V440.455Z" fill="white"/>
<path d="M342.172 519.951H178.719V541.451H342.172V519.951Z" fill="white"/>
<path d="M175.574 541.45C148.565 541.45 126.581 519.466 126.581 492.457C126.581 465.448 148.565 443.464 175.574 443.464H224.567V492.457C224.567 519.466 202.584 541.45 175.574 541.45ZM175.574 464.991C160.417 464.991 148.081 477.326 148.081 492.484C148.081 507.641 160.417 519.977 175.574 519.977C190.732 519.977 203.067 507.641 203.067 492.484V464.991H175.574Z" fill="white"/>
<path d="M252.059 462.142H203.065V413.149C203.065 386.14 225.049 364.156 252.059 364.156C279.068 364.156 301.052 386.14 301.052 413.149C301.052 440.159 279.068 462.142 252.059 462.142ZM224.565 440.642H252.059C267.216 440.642 279.552 428.307 279.552 413.149C279.552 397.992 267.216 385.656 252.059 385.656C236.901 385.656 224.565 397.992 224.565 413.149V440.642Z" fill="white"/>
<path d="M372.432 119.729C374.763 119.729 376.652 117.84 376.652 115.509C376.652 113.179 374.763 111.29 372.432 111.29C370.102 111.29 368.213 113.179 368.213 115.509C368.213 117.84 370.102 119.729 372.432 119.729Z" fill="white"/>
<path d="M372.432 573.593C374.763 573.593 376.652 571.703 376.652 569.373C376.652 567.043 374.763 565.154 372.432 565.154C370.102 565.154 368.213 567.043 368.213 569.373C368.213 571.703 370.102 573.593 372.432 573.593Z" fill="white"/>
<path d="M31.0123 573.593C33.3426 573.593 35.2317 571.703 35.2317 569.373C35.2317 567.043 33.3426 565.154 31.0123 565.154C28.682 565.154 26.793 567.043 26.793 569.373C26.793 571.703 28.682 573.593 31.0123 573.593Z" fill="white"/>
<path d="M31.0123 122.362C33.3426 122.362 35.2317 120.473 35.2317 118.143C35.2317 115.812 33.3426 113.923 31.0123 113.923C28.682 113.923 26.793 115.812 26.793 118.143C26.793 120.473 28.682 122.362 31.0123 122.362Z" fill="white"/>
<path d="M30.8538 56.0629H25.0488V31.3647H30.8538V56.0629Z" fill="white"/>
<path d="M40.3406 56.062H34.5625V37.5451H40.0181V40.9313H40.2331C41.0662 38.7007 43.1356 37.3032 45.85 37.3032C49.7469 37.3032 52.2731 40.0713 52.2731 44.2638V56.062H46.5487V45.3388C46.5487 43.2695 45.42 42.0063 43.5119 42.0063C41.6037 42.0063 40.3406 43.2963 40.3406 45.4463V56.062Z" fill="white"/>
<path d="M66.3006 41.7647H62.78V56.0622H57.0018V41.7647H54.4756V37.5454H57.0018V36.5241C57.0018 32.3316 59.4475 30.2085 63.3175 30.2085C64.6343 30.2085 65.6287 30.316 66.6231 30.531V34.8041C65.8437 34.7235 65.3062 34.7235 65.0643 34.6966C63.6131 34.6966 62.7531 35.261 62.78 36.6854V37.5722H66.3006V41.7916V41.7647Z" fill="white"/>
<path d="M67.752 46.8438C67.752 41.1195 71.2726 37.3032 77.0776 37.3032C82.8826 37.3032 86.4032 41.1463 86.4032 46.8438C86.4032 52.5413 82.8826 56.3845 77.0776 56.3845C71.2726 56.3845 67.752 52.5413 67.752 46.8438ZM77.1045 52.0576C79.3082 52.0576 80.5444 49.9076 80.5176 46.7901C80.5176 43.6995 79.3082 41.5495 77.1045 41.5226C74.847 41.5226 73.6107 43.6995 73.6376 46.7901C73.6376 49.8807 74.847 52.0307 77.1045 52.0576Z" fill="white"/>
<path d="M89.3609 37.5178H94.9509V40.8503H95.1121C95.784 38.4315 97.4233 37.249 99.4658 37.2222C100.003 37.2222 100.621 37.3297 101.105 37.4372V42.4628C100.568 42.3015 99.5196 42.1672 98.8209 42.194C96.6709 42.194 95.0852 43.6722 95.1121 45.9028V56.0347H89.334V37.5178H89.3609Z" fill="white"/>
<path d="M103.442 37.5178H108.898V40.904H109.113C109.892 38.6465 111.827 37.2759 114.381 37.2759C116.934 37.2759 118.896 38.6734 119.406 40.904H119.621C120.347 38.7003 122.497 37.2759 125.211 37.2759C128.678 37.2759 131.124 39.6409 131.124 43.5646V56.0615H125.345V44.8815C125.345 43.0003 124.27 41.979 122.712 41.979C121.045 41.979 120.051 43.1615 120.051 44.9353V56.0615H114.515V44.8009C114.515 43.054 113.467 41.979 111.935 41.979C110.403 41.979 109.221 43.1884 109.247 45.0696V56.0615H103.469V37.5446L103.442 37.5178Z" fill="white"/>
<path d="M140.717 45.0965C142.061 45.0159 144.372 44.9353 145.151 44.8815V43.3765C145.151 42.0865 144.184 41.334 142.625 41.3609C141.12 41.3609 140.126 42.0328 139.884 43.2421H134.536C134.805 39.9634 137.546 37.2759 142.76 37.2759C147.328 37.2759 150.903 39.4528 150.903 43.4571V56.0346H145.474V53.4546H145.34C144.345 55.3359 142.545 56.384 139.938 56.384C136.39 56.384 133.81 54.5565 133.837 50.9015C133.837 46.7896 137.008 45.3115 140.69 45.0965H140.717ZM141.685 52.5678C143.646 52.5678 145.178 51.2778 145.151 49.4771V48.2678C144.453 48.2678 142.518 48.3753 141.631 48.4828C140.18 48.644 139.266 49.4502 139.266 50.6596C139.266 51.8959 140.26 52.5678 141.658 52.5678H141.685Z" fill="white"/>
<path d="M164.772 41.7646H161.385V50.2571C161.385 51.4127 161.977 51.789 162.944 51.789C163.428 51.8158 164.342 51.789 164.987 51.7083V56.1158C164.422 56.1965 163.482 56.304 162.111 56.3308C158.026 56.3308 155.607 54.6377 155.634 50.9021V41.7646H153.135V37.5452H155.634V33.1108H161.359V37.5452H164.745V41.7646H164.772Z" fill="white"/>
<path d="M170.63 29.7778C172.296 29.7778 173.613 31.014 173.64 32.5459C173.64 34.0778 172.296 35.314 170.63 35.314C168.964 35.314 167.674 34.0778 167.674 32.5459C167.674 31.014 169.018 29.7509 170.63 29.7778ZM167.728 37.5178H173.506V56.0346H167.728V37.5178Z" fill="white"/>
<path d="M176.462 46.8438C176.462 41.1195 179.983 37.3032 185.788 37.3032C191.593 37.3032 195.113 41.1463 195.113 46.8438C195.113 52.5413 191.593 56.3845 185.788 56.3845C179.983 56.3845 176.462 52.5413 176.462 46.8438ZM185.814 52.0576C188.018 52.0576 189.254 49.9076 189.228 46.7901C189.228 43.6995 188.018 41.5495 185.814 41.5226C183.557 41.5226 182.321 43.6995 182.348 46.7901C182.348 49.8807 183.557 52.0307 185.814 52.0576Z" fill="white"/>
<path d="M203.821 56.062H198.043V37.5451H203.499V40.9313H203.714C204.547 38.7007 206.616 37.3032 209.33 37.3032C213.227 37.3032 215.754 40.0713 215.754 44.2638V56.062H210.029V45.3388C210.029 43.2695 208.9 42.0063 206.992 42.0063C205.084 42.0063 203.821 43.2963 203.821 45.4463V56.062Z" fill="white"/>
</svg>
