<svg width="125" height="186" viewBox="0 0 125 186" fill="none" xmlns="http://www.w3.org/2000/svg">
<path d="M123.192 25.2697H1.24341V184.344H123.192V25.2697Z" fill="#0043FF"/>
<path d="M121.949 26.5117V183.1H2.48626V26.5117H121.949ZM124.435 24.0262H0.000732422V185.586H124.435V24.0262Z" fill="white"/>
<path d="M123.192 1.24294H1.24341V26.4048H123.192V1.24294Z" fill="#0043FF"/>
<path d="M121.949 2.48584V25.1622H2.48626V2.48584H121.949ZM124.435 0.000305176H0.000732422V27.6477H124.435V0.000305176Z" fill="white"/>
<path d="M116.406 162.942L103.307 155.386V170.507L116.406 162.942Z" fill="white"/>
<path d="M40.4154 33.7528L32.8511 46.8515H47.9797L40.4154 33.7528Z" fill="white"/>
<path d="M12.0299 105.22V98.5915C24.0516 98.5915 33.8363 88.8068 33.8363 76.7851C33.8363 64.7634 24.0516 54.9787 12.0299 54.9787V48.3506C27.7053 48.3506 40.4644 61.1097 40.4644 76.7851C40.4644 92.4605 27.7053 105.22 12.0299 105.22Z" fill="white"/>
<path d="M43.7709 43.0147H37.1428V114.747H43.7709V43.0147Z" fill="white"/>
<path d="M77.7063 112.262H12.0635V118.89H77.7063V112.262Z" fill="white"/>
<path d="M81.7325 135.783H64.1184V141.914H81.7325V135.783Z" fill="white"/>
<path d="M105.485 160.291H55.0952V166.919H105.485V160.291Z" fill="white"/>
<path d="M54.1261 166.918C45.7996 166.918 39.0223 160.141 39.0223 151.814C39.0223 143.488 45.7996 136.711 54.1261 136.711H69.2298V151.814C69.2298 160.141 62.4526 166.918 54.1261 166.918ZM54.1261 143.347C49.4533 143.347 45.6504 147.15 45.6504 151.823C45.6504 156.495 49.4533 160.298 54.1261 160.298C58.7989 160.298 62.6017 156.495 62.6017 151.823V143.347H54.1261Z" fill="white"/>
<path d="M77.7052 142.469H62.6014V127.366C62.6014 119.039 69.3787 112.262 77.7052 112.262C86.0317 112.262 92.8089 119.039 92.8089 127.366C92.8089 135.692 86.0317 142.469 77.7052 142.469ZM69.2295 135.841H77.7052C82.378 135.841 86.1808 132.038 86.1808 127.366C86.1808 122.693 82.378 118.89 77.7052 118.89C73.0324 118.89 69.2295 122.693 69.2295 127.366V135.841Z" fill="white"/>
<path d="M114.813 36.9098C115.532 36.9098 116.114 36.3274 116.114 35.609C116.114 34.8906 115.532 34.3082 114.813 34.3082C114.095 34.3082 113.513 34.8906 113.513 35.609C113.513 36.3274 114.095 36.9098 114.813 36.9098Z" fill="white"/>
<path d="M114.813 176.828C115.532 176.828 116.114 176.245 116.114 175.527C116.114 174.808 115.532 174.226 114.813 174.226C114.095 174.226 113.513 174.808 113.513 175.527C113.513 176.245 114.095 176.828 114.813 176.828Z" fill="white"/>
<path d="M9.56077 176.828C10.2792 176.828 10.8615 176.245 10.8615 175.527C10.8615 174.808 10.2792 174.226 9.56077 174.226C8.84238 174.226 8.26001 174.808 8.26001 175.527C8.26001 176.245 8.84238 176.828 9.56077 176.828Z" fill="white"/>
<path d="M9.56077 37.7215C10.2792 37.7215 10.8615 37.1392 10.8615 36.4208C10.8615 35.7024 10.2792 35.12 9.56077 35.12C8.84238 35.12 8.26001 35.7024 8.26001 36.4208C8.26001 37.1392 8.84238 37.7215 9.56077 37.7215Z" fill="white"/>
<path d="M9.51151 17.2819H7.72192V9.66794H9.51151V17.2819Z" fill="white"/>
<path d="M12.4349 17.2817H10.6536V11.5733H12.3354V12.6172H12.4017C12.6586 11.9296 13.2965 11.4987 14.1333 11.4987C15.3346 11.4987 16.1134 12.3521 16.1134 13.6446V17.2817H14.3487V13.976C14.3487 13.338 14.0007 12.9486 13.4125 12.9486C12.8243 12.9486 12.4349 13.3463 12.4349 14.0091V17.2817Z" fill="white"/>
<path d="M20.4391 12.8744H19.3538V17.282H17.5725V12.8744H16.7937V11.5736H17.5725V11.2588C17.5725 9.96629 18.3264 9.31177 19.5195 9.31177C19.9255 9.31177 20.232 9.34491 20.5386 9.41119V10.7285C20.2983 10.7037 20.1326 10.7037 20.058 10.6954C19.6106 10.6954 19.3455 10.8694 19.3538 11.3085V11.5819H20.4391V12.8826V12.8744Z" fill="white"/>
<path d="M20.8857 14.44C20.8857 12.6752 21.9711 11.4987 23.7607 11.4987C25.5503 11.4987 26.6356 12.6835 26.6356 14.44C26.6356 16.1964 25.5503 17.3812 23.7607 17.3812C21.9711 17.3812 20.8857 16.1964 20.8857 14.44ZM23.769 16.0473C24.4483 16.0473 24.8294 15.3845 24.8212 14.4234C24.8212 13.4706 24.4483 12.8078 23.769 12.7995C23.073 12.7995 22.6919 13.4706 22.7002 14.4234C22.7002 15.3762 23.073 16.039 23.769 16.0473Z" fill="white"/>
<path d="M27.547 11.5647H29.2703V12.5921H29.32C29.5271 11.8464 30.0325 11.4819 30.6622 11.4736C30.8279 11.4736 31.0184 11.5067 31.1676 11.5399V13.0892C31.0019 13.0395 30.6787 12.998 30.4633 13.0063C29.8005 13.0063 29.3117 13.462 29.32 14.1497V17.2732H27.5387V11.5647H27.547Z" fill="white"/>
<path d="M31.8892 11.5649H33.571V12.6089H33.6373C33.8776 11.9129 34.4741 11.4904 35.2612 11.4904C36.0483 11.4904 36.6531 11.9212 36.8105 12.6089H36.8768C37.1005 11.9295 37.7633 11.4904 38.6001 11.4904C39.6689 11.4904 40.4228 12.2195 40.4228 13.4291V17.2817H38.6415V13.8351C38.6415 13.2551 38.3101 12.9403 37.8296 12.9403C37.3159 12.9403 37.0093 13.3048 37.0093 13.8516V17.2817H35.3026V13.8102C35.3026 13.2717 34.9795 12.9403 34.5073 12.9403C34.035 12.9403 33.6705 13.3131 33.6787 13.8931V17.2817H31.8974V11.5732L31.8892 11.5649Z" fill="white"/>
<path d="M43.3808 13.9013C43.7951 13.8765 44.5076 13.8516 44.7479 13.8351V13.3711C44.7479 12.9734 44.4496 12.7414 43.9691 12.7497C43.5051 12.7497 43.1985 12.9568 43.124 13.3297H41.4752C41.5581 12.3189 42.4032 11.4904 44.0105 11.4904C45.4189 11.4904 46.5209 12.1615 46.5209 13.3959V17.2734H44.8473V16.478H44.8059C44.4993 17.058 43.9442 17.3811 43.1405 17.3811C42.0469 17.3811 41.2515 16.8177 41.2598 15.6909C41.2598 14.4233 42.2375 13.9676 43.3725 13.9013H43.3808ZM43.6791 16.2046C44.2839 16.2046 44.7561 15.8069 44.7479 15.2518V14.879C44.5324 14.879 43.9359 14.9121 43.6625 14.9453C43.2151 14.995 42.9334 15.2435 42.9334 15.6164C42.9334 15.9975 43.24 16.2046 43.6708 16.2046H43.6791Z" fill="white"/>
<path d="M50.7952 12.8744H49.7513V15.4925C49.7513 15.8488 49.9336 15.9648 50.2318 15.9648C50.381 15.973 50.6626 15.9648 50.8615 15.9399V17.2987C50.6875 17.3235 50.3975 17.3567 49.975 17.3649C48.7157 17.3649 47.97 16.843 47.9783 15.6914V12.8744H47.2078V11.5737H47.9783V10.2066H49.743V11.5737H50.7869V12.8744H50.7952Z" fill="white"/>
<path d="M52.603 9.1789C53.1167 9.1789 53.5227 9.56002 53.5309 10.0323C53.5309 10.5045 53.1167 10.8856 52.603 10.8856C52.0893 10.8856 51.6917 10.5045 51.6917 10.0323C51.6917 9.56002 52.1059 9.17062 52.603 9.1789ZM51.7082 11.565H53.4895V17.2734H51.7082V11.565Z" fill="white"/>
<path d="M54.4001 14.44C54.4001 12.6752 55.4855 11.4987 57.2751 11.4987C59.0647 11.4987 60.15 12.6835 60.15 14.44C60.15 16.1964 59.0647 17.3812 57.2751 17.3812C55.4855 17.3812 54.4001 16.1964 54.4001 14.44ZM57.2834 16.0473C57.9627 16.0473 58.3439 15.3845 58.3356 14.4234C58.3356 13.4706 57.9627 12.8078 57.2834 12.7995C56.5874 12.7995 56.2063 13.4706 56.2146 14.4234C56.2146 15.3762 56.5874 16.039 57.2834 16.0473Z" fill="white"/>
<path d="M62.8343 17.2817H61.053V11.5733H62.7349V12.6172H62.8011C63.058 11.9296 63.6959 11.4987 64.5327 11.4987C65.7341 11.4987 66.5129 12.3521 66.5129 13.6446V17.2817H64.7481V13.976C64.7481 13.338 64.4002 12.9486 63.8119 12.9486C63.2237 12.9486 62.8343 13.3463 62.8343 14.0091V17.2817Z" fill="white"/>
</svg>
