<svg width="595" height="508" viewBox="0 0 595 508" fill="none" xmlns="http://www.w3.org/2000/svg">
<path d="M590.776 93.9365H4.22278V503.626H590.776V93.9365Z" fill="#353535"/>
<path d="M586.553 98.1601V499.402H8.44704V98.1601H586.553ZM595 89.7129H-0.00012207V507.85H595V89.7129Z" fill="white"/>
<path d="M430.332 182.632H409.214V406.668H430.332V182.632Z" fill="white"/>
<path d="M310.276 404.556H73.7275V425.674H310.276V404.556Z" fill="white"/>
<path d="M506.542 467.751L531.224 424.987H481.861L506.542 467.751Z" fill="white"/>
<path d="M505.988 128.122L481.307 170.886H530.67L505.988 128.122Z" fill="white"/>
<path d="M516.969 165.05H495.851V432.774H516.969V165.05Z" fill="white"/>
<path d="M200.515 252.929H179.397V421.714H200.515V252.929Z" fill="white"/>
<path d="M199.432 364.747H156.431C132.779 364.747 113.561 345.504 113.561 321.878C113.561 298.252 132.805 279.008 156.431 279.008C180.057 279.008 199.432 298.252 199.432 321.878V364.747ZM156.536 300.1C144.42 300.1 134.653 309.867 134.653 321.852C134.653 333.836 144.42 343.603 156.404 343.603H178.288V321.852C178.288 309.841 168.521 300.1 156.536 300.1Z" fill="white"/>
<path d="M275.749 343.631H184.44V364.749H275.749V343.631Z" fill="white"/>
<path d="M340.342 316.6H323.712V295.482H340.342C378.381 295.482 409.319 264.544 409.319 226.505H430.437C430.437 276.186 390.023 316.6 340.342 316.6Z" fill="white"/>
<path d="M279.207 170.516H74.3362V191.634H279.207V170.516Z" fill="white"/>
<path d="M238.791 258.077H179.159C161.842 258.077 145.423 247.94 135.26 230.966L108.413 186.17L126.522 175.32L153.368 220.117C159.783 230.834 169.18 236.959 179.159 236.959H238.791V258.077Z" fill="white"/>
<path d="M49.4153 181.761L91.1498 205.862V157.686L49.4153 181.761Z" fill="white"/>
<path d="M294.912 305.829L336.647 329.93V281.754L294.912 305.829Z" fill="white"/>
<path d="M41.4962 414.059L83.2307 438.16V389.984L41.4962 414.059Z" fill="white"/>
<path d="M300.404 181.761L258.67 157.686V205.862L300.404 181.761Z" fill="white"/>
<path d="M332.081 414.059L290.347 389.984V438.16L332.081 414.059Z" fill="white"/>
<path d="M268.727 247.754L226.993 223.68V271.855L268.727 247.754Z" fill="white"/>
<path d="M297.765 353.344L256.03 329.27V377.445L297.765 353.344Z" fill="white"/>
<path d="M42.1054 77.0419C22.0961 77.0419 5.80884 60.7546 5.80884 40.7453C5.80884 20.736 22.0961 4.44873 42.1054 4.44873H544.978C564.988 4.44873 581.275 20.736 581.275 40.7453C581.275 60.7546 564.988 77.0419 544.978 77.0419H42.1054Z" fill="#353535"/>
<path d="M544.978 8.40851C562.77 8.40851 577.315 22.9535 577.315 40.7455C577.315 58.5374 562.77 73.0824 544.978 73.0824H42.1055C24.3135 73.0824 9.7685 58.5374 9.7685 40.7455C9.7685 22.9535 24.3135 8.40851 42.1055 8.40851H544.978ZM544.978 0.489258H42.1055C19.9051 0.489258 1.84924 18.5452 1.84924 40.7455C1.84924 62.9458 19.9051 81.0017 42.1055 81.0017H544.978C567.179 81.0017 585.235 62.9458 585.235 40.7455C585.235 18.5452 567.179 0.489258 544.978 0.489258Z" fill="white"/>
<path d="M41.0479 136.595C43.9054 136.595 46.2218 134.279 46.2218 131.421C46.2218 128.564 43.9054 126.248 41.0479 126.248C38.1904 126.248 35.874 128.564 35.874 131.421C35.874 134.279 38.1904 136.595 41.0479 136.595Z" fill="white"/>
<path d="M41.0479 471.844C43.9054 471.844 46.2218 469.528 46.2218 466.67C46.2218 463.813 43.9054 461.496 41.0479 461.496C38.1904 461.496 35.874 463.813 35.874 466.67C35.874 469.528 38.1904 471.844 41.0479 471.844Z" fill="white"/>
<path d="M558.439 136.595C561.297 136.595 563.613 134.279 563.613 131.421C563.613 128.564 561.297 126.248 558.439 126.248C555.582 126.248 553.265 128.564 553.265 131.421C553.265 134.279 555.582 136.595 558.439 136.595Z" fill="white"/>
<path d="M558.439 471.844C561.297 471.844 563.613 469.528 563.613 466.67C563.613 463.813 561.297 461.496 558.439 461.496C555.582 461.496 553.265 463.813 553.265 466.67C553.265 469.528 555.582 471.844 558.439 471.844Z" fill="white"/>
<path d="M48.888 53.5216H42.4734V26.2002H48.888V53.5216Z" fill="white"/>
<path d="M59.3948 53.5229H53.0066V33.0384H59.0516V36.7605H59.2892C60.2131 34.2791 62.5097 32.748 65.519 32.748C69.8482 32.748 72.6199 35.8102 72.6199 40.4561V53.5229H66.2845V41.6704C66.2845 39.3738 65.0439 38.0012 62.9321 37.9748C60.8203 37.9748 59.4212 39.4002 59.4212 41.776V53.4965L59.3948 53.5229Z" fill="white"/>
<path d="M88.0885 37.71H84.2081V53.5221H77.8199V37.71H75.0217V33.0377H77.8199V31.9026C77.8199 27.2566 80.5388 24.9072 84.7888 24.9072C86.2407 24.9072 87.3494 25.0392 88.4581 25.2504V29.9755C87.5869 29.8964 87.0062 29.87 86.7158 29.87C85.1056 29.87 84.1817 30.5035 84.1817 32.061V33.0377H88.0621V37.71H88.0885Z" fill="white"/>
<path d="M89.6976 43.3325C89.6976 37.0234 93.6044 32.7734 99.9926 32.7734C106.381 32.7734 110.288 37.0234 110.288 43.3325C110.288 49.6415 106.407 53.8915 99.9926 53.8915C93.5781 53.8915 89.6976 49.6415 89.6976 43.3325ZM100.045 49.1135C102.474 49.1135 103.847 46.7377 103.82 43.3061C103.82 39.9008 102.474 37.525 100.045 37.4986C97.5377 37.4986 96.1651 39.9008 96.1915 43.3061C96.1915 46.7377 97.5377 49.0871 100.045 49.1135Z" fill="white"/>
<path d="M113.587 33.0375H119.764V36.7331H119.949C120.715 34.0406 122.51 32.7471 124.78 32.7207C125.361 32.7207 126.073 32.8263 126.601 32.9583V38.5018C125.994 38.317 124.859 38.185 124.067 38.2114C121.692 38.2114 119.923 39.848 119.949 42.3294V53.5219H113.561V33.0375H113.587Z" fill="white"/>
<path d="M129.163 33.0384H135.208V36.7605H135.446C136.317 34.2791 138.455 32.748 141.253 32.748C144.051 32.748 146.242 34.3055 146.797 36.7605H147.034C147.826 34.3319 150.202 32.748 153.211 32.748C157.065 32.748 159.731 35.3614 159.731 39.6906V53.4965H153.343V41.1161C153.343 39.0307 152.155 37.922 150.44 37.922C148.618 37.922 147.509 39.2154 147.509 41.1952V53.4965H141.385V41.0369C141.385 39.1098 140.224 37.8956 138.508 37.8956C136.792 37.8956 135.499 39.2418 135.525 41.3272V53.4701H129.137V32.9856L129.163 33.0384Z" fill="white"/>
<path d="M170.37 41.4308C171.848 41.3252 174.408 41.246 175.28 41.1932V39.5302C175.28 38.1047 174.224 37.2864 172.481 37.3128C170.792 37.3128 169.71 38.0519 169.472 39.3982H163.559C163.849 35.7817 166.912 32.7988 172.64 32.7988C177.708 32.7988 181.641 35.201 181.668 39.6358V53.5473H175.676V50.6699H175.517C174.408 52.7554 172.429 53.8904 169.551 53.9168C165.618 53.9168 162.767 51.9106 162.794 47.8454C162.794 43.305 166.304 41.6684 170.37 41.4308ZM171.478 49.6668C173.643 49.6668 175.359 48.2414 175.332 46.2352V44.9153C174.567 44.9153 172.402 45.0473 171.452 45.1529C169.842 45.3112 168.839 46.2088 168.839 47.555C168.839 48.9277 169.921 49.6668 171.478 49.6668Z" fill="white"/>
<path d="M196.978 37.7102H193.229V47.1078C193.229 48.4012 193.889 48.7972 194.972 48.7972C195.5 48.8236 196.529 48.7972 197.242 48.718V53.5751C196.608 53.6807 195.552 53.7863 194.074 53.8127C189.56 53.8127 186.868 51.9385 186.894 47.8205V37.7102H184.149V33.0379H186.894V28.1279H193.229V33.0379H196.978V37.7102Z" fill="white"/>
<path d="M203.472 24.4843C205.293 24.4843 206.771 25.8305 206.798 27.5464C206.798 29.2358 205.32 30.6085 203.472 30.6085C201.624 30.6085 200.198 29.2622 200.198 27.5464C200.198 25.8305 201.677 24.4579 203.472 24.4843ZM200.251 33.0371H206.639V53.5215H200.251V33.0371Z" fill="white"/>
<path d="M209.912 43.3325C209.912 37.0234 213.819 32.7734 220.207 32.7734C226.595 32.7734 230.502 37.0234 230.502 43.3325C230.502 49.6415 226.622 53.8915 220.207 53.8915C213.792 53.8915 209.912 49.6415 209.912 43.3325ZM220.26 49.1135C222.688 49.1135 224.061 46.7377 224.035 43.3061C224.035 39.9008 222.688 37.525 220.26 37.4986C217.752 37.4986 216.379 39.9008 216.406 43.3061C216.406 46.7377 217.752 49.0871 220.26 49.1135Z" fill="white"/>
<path d="M240.19 53.5229H233.801V33.0384H239.846V36.7605H240.084C241.008 34.2791 243.305 32.748 246.314 32.748C250.643 32.748 253.415 35.8102 253.415 40.4561V53.5229H247.079V41.6704C247.079 39.3738 245.839 38.0012 243.727 37.9748C241.615 37.9748 240.216 39.4002 240.216 41.776V53.4965L240.19 53.5229Z" fill="white"/>
</svg>
