<svg width="186" height="158" viewBox="0 0 186 158" fill="none" xmlns="http://www.w3.org/2000/svg">
<path d="M183.888 29.0867H1.31299V156.61H183.888V29.0867Z" fill="#353535"/>
<path d="M182.574 30.4021V155.296H2.62835V30.4021H182.574ZM185.204 27.7728H-0.000976562V157.925H185.204V27.7728Z" fill="white"/>
<path d="M133.948 56.6951H127.375V126.43H133.948V56.6951Z" fill="white"/>
<path d="M96.5784 125.774H22.9485V132.347H96.5784V125.774Z" fill="white"/>
<path d="M157.67 145.445L165.352 132.134H149.987L157.67 145.445Z" fill="white"/>
<path d="M157.497 39.7286L149.814 53.0396H165.18L157.497 39.7286Z" fill="white"/>
<path d="M160.915 51.2244H154.342V134.558H160.915V51.2244Z" fill="white"/>
<path d="M62.4128 78.5768H55.8395V131.114H62.4128V78.5768Z" fill="white"/>
<path d="M62.077 113.383H48.6919C41.3298 113.383 35.348 107.393 35.348 100.039C35.348 92.6846 41.338 86.6946 48.6919 86.6946C56.0459 86.6946 62.077 92.6846 62.077 100.039V113.383ZM48.7248 93.2598C44.9534 93.2598 41.9132 96.3 41.9132 100.03C41.9132 103.761 44.9534 106.801 48.6837 106.801H55.4954V100.03C55.4954 96.2918 52.4552 93.2598 48.7248 93.2598Z" fill="white"/>
<path d="M85.8309 106.811H57.4093V113.384H85.8309V106.811Z" fill="white"/>
<path d="M105.937 98.3951H100.761V91.8218H105.937C117.778 91.8218 127.408 82.1918 127.408 70.3515H133.981C133.981 85.8153 121.401 98.3951 105.937 98.3951Z" fill="white"/>
<path d="M86.908 52.9252H23.1382V59.4985H86.908V52.9252Z" fill="white"/>
<path d="M74.327 80.1789H55.7654C50.3753 80.1789 45.2645 77.0237 42.101 71.7404L33.7446 57.7966L39.3813 54.4196L47.7377 68.3633C49.7343 71.6993 52.6595 73.6056 55.7654 73.6056H74.327V80.1789Z" fill="white"/>
<path d="M15.3811 56.4241L28.3717 63.926V48.9305L15.3811 56.4241Z" fill="white"/>
<path d="M91.7963 95.0424L104.787 102.544V87.5488L91.7963 95.0424Z" fill="white"/>
<path d="M12.9167 128.731L25.9074 136.233V121.238L12.9167 128.731Z" fill="white"/>
<path d="M93.5058 56.4241L80.5151 48.9305V63.926L93.5058 56.4241Z" fill="white"/>
<path d="M103.366 128.731L90.3757 121.238V136.233L103.366 128.731Z" fill="white"/>
<path d="M83.6453 76.9667L70.6547 69.473V84.4685L83.6453 76.9667Z" fill="white"/>
<path d="M92.6843 109.832L79.6937 102.339V117.334L92.6843 109.832Z" fill="white"/>
<path d="M13.1047 23.8289C6.87647 23.8289 1.80676 18.7592 1.80676 12.5309C1.80676 6.30265 6.87647 1.23294 13.1047 1.23294H169.633C175.861 1.23294 180.931 6.30265 180.931 12.5309C180.931 18.7592 175.861 23.8289 169.633 23.8289H13.1047Z" fill="#353535"/>
<path d="M169.634 2.46529C175.172 2.46529 179.699 6.99269 179.699 12.5308C179.699 18.0688 175.172 22.5962 169.634 22.5962H13.1057C7.56761 22.5962 3.04021 18.0688 3.04021 12.5308C3.04021 6.99269 7.56761 2.46529 13.1057 2.46529H169.634ZM169.634 0.000274658H13.1057C6.19542 0.000274658 0.575195 5.6205 0.575195 12.5308C0.575195 19.441 6.19542 25.0612 13.1057 25.0612H169.634C176.544 25.0612 182.164 19.441 182.164 12.5308C182.164 5.6205 176.544 0.000274658 169.634 0.000274658Z" fill="white"/>
<path d="M12.7761 42.3663C13.6656 42.3663 14.3866 41.6453 14.3866 40.7559C14.3866 39.8664 13.6656 39.1454 12.7761 39.1454C11.8867 39.1454 11.1656 39.8664 11.1656 40.7559C11.1656 41.6453 11.8867 42.3663 12.7761 42.3663Z" fill="white"/>
<path d="M12.7761 146.719C13.6656 146.719 14.3866 145.998 14.3866 145.108C14.3866 144.219 13.6656 143.498 12.7761 143.498C11.8867 143.498 11.1656 144.219 11.1656 145.108C11.1656 145.998 11.8867 146.719 12.7761 146.719Z" fill="white"/>
<path d="M173.823 42.3663C174.713 42.3663 175.434 41.6453 175.434 40.7559C175.434 39.8664 174.713 39.1454 173.823 39.1454C172.934 39.1454 172.213 39.8664 172.213 40.7559C172.213 41.6453 172.934 42.3663 173.823 42.3663Z" fill="white"/>
<path d="M173.823 146.719C174.713 146.719 175.434 145.998 175.434 145.108C175.434 144.219 174.713 143.498 173.823 143.498C172.934 143.498 172.213 144.219 172.213 145.108C172.213 145.998 172.934 146.719 173.823 146.719Z" fill="white"/>
<path d="M15.2169 16.5072H13.2202V8.00293H15.2169V16.5072Z" fill="white"/>
<path d="M18.4869 16.5084H16.4984V10.1322H18.38V11.2907H18.454C18.7416 10.5184 19.4564 10.0418 20.3931 10.0418C21.7407 10.0418 22.6034 10.9949 22.6034 12.4411V16.5084H20.6314V12.8191C20.6314 12.1042 20.2452 11.6769 19.5879 11.6687C18.9306 11.6687 18.4951 12.1124 18.4951 12.8519V16.5001L18.4869 16.5084Z" fill="white"/>
<path d="M27.4184 11.5853H26.2105V16.5071H24.222V11.5853H23.3511V10.1309H24.222V9.77762C24.222 8.33148 25.0684 7.60019 26.3913 7.60019C26.8432 7.60019 27.1883 7.64127 27.5334 7.70701V9.1778C27.2622 9.15315 27.0815 9.14493 26.9911 9.14493C26.4899 9.14493 26.2023 9.34213 26.2023 9.82692V10.1309H27.4101V11.5853H27.4184Z" fill="white"/>
<path d="M27.9197 13.3352C27.9197 11.3714 29.1357 10.0485 31.1242 10.0485C33.1126 10.0485 34.3287 11.3714 34.3287 13.3352C34.3287 15.299 33.1209 16.6219 31.1242 16.6219C29.1275 16.6219 27.9197 15.299 27.9197 13.3352ZM31.1406 15.1347C31.8966 15.1347 32.3238 14.3952 32.3156 13.327C32.3156 12.267 31.8966 11.5275 31.1406 11.5193C30.3601 11.5193 29.9328 12.267 29.941 13.327C29.941 14.3952 30.3601 15.1264 31.1406 15.1347Z" fill="white"/>
<path d="M35.3551 10.1304H37.2779V11.2807H37.3354C37.5737 10.4426 38.1324 10.04 38.839 10.0318C39.0198 10.0318 39.2416 10.0646 39.406 10.1057V11.8312C39.217 11.7737 38.8637 11.7326 38.6172 11.7408C37.8777 11.7408 37.3272 12.2503 37.3354 13.0227V16.5065H35.3469V10.1304H35.3551Z" fill="white"/>
<path d="M40.2041 10.1322H42.0858V11.2907H42.1597C42.4309 10.5184 43.0964 10.0418 43.9674 10.0418C44.8384 10.0418 45.5204 10.5266 45.6929 11.2907H45.7669C46.0134 10.5348 46.7529 10.0418 47.6896 10.0418C48.8892 10.0418 49.7191 10.8553 49.7191 12.2028V16.5001H47.7307V12.6465C47.7307 11.9974 47.3609 11.6523 46.8268 11.6523C46.2599 11.6523 45.9147 12.0549 45.9147 12.6712V16.5001H44.0085V12.6219C44.0085 12.022 43.647 11.6441 43.1129 11.6441C42.5788 11.6441 42.1762 12.0631 42.1844 12.7122V16.4919H40.1959V10.1158L40.2041 10.1322Z" fill="white"/>
<path d="M53.0298 12.7446C53.4899 12.7118 54.2869 12.6871 54.5581 12.6707V12.153C54.5581 11.7093 54.2294 11.4546 53.6871 11.4628C53.1612 11.4628 52.8243 11.6929 52.7504 12.1119H50.9099C51.0002 10.9863 51.9534 10.0578 53.7364 10.0578C55.314 10.0578 56.5383 10.8055 56.5465 12.1859V16.5161H54.6813V15.6205H54.632C54.2869 16.2696 53.6707 16.6229 52.775 16.6311C51.5508 16.6311 50.6633 16.0067 50.6716 14.7413C50.6716 13.328 51.7644 12.8186 53.0298 12.7446ZM53.3749 15.3082C54.0486 15.3082 54.5827 14.8645 54.5745 14.2401V13.8292C54.3362 13.8292 53.6624 13.8703 53.3666 13.9032C52.8654 13.9525 52.5532 14.2319 52.5532 14.6509C52.5532 15.0782 52.8901 15.3082 53.3749 15.3082Z" fill="white"/>
<path d="M61.3127 11.5855H60.1459V14.5107C60.1459 14.9133 60.3513 15.0365 60.6882 15.0365C60.8525 15.0447 61.173 15.0365 61.3948 15.0119V16.5238C61.1976 16.5566 60.869 16.5895 60.4088 16.5977C59.0038 16.5977 58.1657 16.0143 58.1739 14.7325V11.5855H57.3193V10.1312H58.1739V8.60284H60.1459V10.1312H61.3127V11.5855Z" fill="white"/>
<path d="M63.3331 7.46856C63.9 7.46856 64.3602 7.88761 64.3684 8.4217C64.3684 8.94757 63.9082 9.37484 63.3331 9.37484C62.7579 9.37484 62.3142 8.95579 62.3142 8.4217C62.3142 7.88761 62.7743 7.46034 63.3331 7.46856ZM62.3306 10.1308H64.3191V16.5069H62.3306V10.1308Z" fill="white"/>
<path d="M65.3381 13.3352C65.3381 11.3714 66.5542 10.0485 68.5426 10.0485C70.5311 10.0485 71.7472 11.3714 71.7472 13.3352C71.7472 15.299 70.5393 16.6219 68.5426 16.6219C66.546 16.6219 65.3381 15.299 65.3381 13.3352ZM68.5591 15.1347C69.315 15.1347 69.7423 14.3952 69.7341 13.327C69.7341 12.267 69.315 11.5275 68.5591 11.5193C67.7785 11.5193 67.3512 12.267 67.3594 13.327C67.3594 14.3952 67.7785 15.1264 68.5591 15.1347Z" fill="white"/>
<path d="M74.7623 16.5084H72.7738V10.1322H74.6554V11.2907H74.7294C75.017 10.5184 75.7318 10.0418 76.6685 10.0418C78.0161 10.0418 78.8788 10.9949 78.8788 12.4411V16.5084H76.9068V12.8191C76.9068 12.1042 76.5207 11.6769 75.8633 11.6687C75.206 11.6687 74.7705 12.1124 74.7705 12.8519V16.5001L74.7623 16.5084Z" fill="white"/>
</svg>
