<svg width="368" height="321" viewBox="0 0 368 321" fill="none" xmlns="http://www.w3.org/2000/svg">
<path d="M246.93 76.5125H121.858C56.5591 76.5125 3.62402 129.448 3.62402 194.746V199.232C3.62402 264.53 56.5591 317.465 121.858 317.465H246.93C312.228 317.465 365.164 264.53 365.164 199.232V194.746C365.164 129.448 312.228 76.5125 246.93 76.5125Z" fill="#FF0000"/>
<path d="M246.943 79.351C310.677 79.351 362.338 131.012 362.338 194.747V199.246C362.338 262.981 310.677 314.642 246.943 314.642H121.856C58.1216 314.642 6.46057 262.981 6.46057 199.246V194.747C6.46057 131.012 58.1216 79.351 121.856 79.351H246.943ZM246.943 73.6893H121.856C55.107 73.6893 0.798828 127.997 0.798828 194.747V199.246C0.798828 265.996 55.107 320.304 121.856 320.304H246.943C313.692 320.304 368 265.996 368 199.246V194.747C368 127.997 313.692 73.6893 246.943 73.6893Z" fill="white"/>
<path d="M25.0657 204.645C26.487 204.645 27.6392 203.493 27.6392 202.072C27.6392 200.651 26.487 199.498 25.0657 199.498C23.6444 199.498 22.4922 200.651 22.4922 202.072C22.4922 203.493 23.6444 204.645 25.0657 204.645Z" fill="white"/>
<path d="M344.176 204.645C345.597 204.645 346.75 203.493 346.75 202.072C346.75 200.651 345.597 199.498 344.176 199.498C342.755 199.498 341.603 200.651 341.603 202.072C341.603 203.493 342.755 204.645 344.176 204.645Z" fill="white"/>
<path d="M71.441 69.9726C66.1764 69.9726 61.9559 66.502 60.9559 61.3256C59.956 56.1492 62.5588 51.3552 67.4558 49.3846L179.44 4.34107C181.043 3.69402 182.719 3.3705 184.44 3.3705C186.16 3.3705 187.851 3.69402 189.44 4.34107L301.423 49.3846C306.306 51.3552 308.923 56.1492 307.923 61.3256C306.923 66.502 302.703 69.9726 297.438 69.9726H71.441Z" fill="#FF0000"/>
<path d="M184.438 6.19468C185.776 6.19468 187.114 6.44468 188.394 6.95938L300.378 52.0029C308.392 55.2234 306.083 67.1351 297.451 67.1351H71.4541C62.8219 67.1351 60.5131 55.2234 68.5277 52.0029L180.512 6.95938C181.776 6.44468 183.114 6.19468 184.467 6.19468M184.438 0.53299C182.35 0.53299 180.306 0.930043 178.379 1.70944L66.3953 46.753C60.3072 49.2088 56.9249 55.4146 58.1749 61.8557C59.4249 68.2968 64.8806 72.7967 71.4394 72.7967H297.437C303.995 72.7967 309.451 68.2968 310.701 61.8557C311.951 55.4146 308.569 49.2088 302.481 46.753L190.497 1.70944C188.556 0.930043 186.526 0.53299 184.438 0.53299Z" fill="white"/>
</svg>
