<svg width="768" height="483" viewBox="0 0 768 483" fill="none" xmlns="http://www.w3.org/2000/svg">
<path d="M103.013 129.137H609.379L761.774 294.007L613.417 475.302H103.013V129.137Z" fill="#878787"/>
<path d="M615.629 479.994H98.3209V124.443H611.432L768.001 293.826L615.629 479.994ZM107.706 470.609H611.184L755.548 294.21L607.326 133.851H107.706V470.609Z" fill="white"/>
<path d="M72.0126 3.38477H3.38416V479.181H72.0126V3.38477Z" fill="#0043FF"/>
<path d="M68.6303 6.76809V475.797H6.76992V6.76809H68.6303ZM75.3983 0H0.00183105V482.565H75.3983V0Z" fill="white"/>
<path d="M49.8388 448.23V453.712H26.4889V448.23H49.8388Z" fill="white"/>
<path d="M49.837 439.251V444.711H32.3302V439.545H35.5112V439.342C33.3905 438.552 32.082 436.589 32.082 434.017C32.082 430.318 34.699 427.949 38.6696 427.949H49.837V433.363H39.7074C37.7447 433.363 36.5715 434.424 36.549 436.228C36.549 438.033 37.7672 439.229 39.7977 439.229H49.8144L49.837 439.251Z" fill="white"/>
<path d="M36.3218 414.706V418.022H49.8354V423.482H36.3218V425.873H32.3286V423.482H31.3585C27.3879 423.482 25.38 421.158 25.38 417.526C25.38 416.285 25.4928 415.338 25.6733 414.39H29.7116C29.6439 415.135 29.6213 415.631 29.6213 415.879C29.6213 417.255 30.1628 418.045 31.4938 418.045H32.3286V414.729H36.3218V414.706Z" fill="white"/>
<path d="M41.1314 413.353C35.7395 413.353 32.1073 410.014 32.1073 404.554C32.1073 399.095 35.7395 395.756 41.1314 395.756C46.5233 395.756 50.1555 399.072 50.1555 404.554C50.1555 410.014 46.5233 413.353 41.1314 413.353ZM46.0721 404.509C46.0721 402.434 44.0417 401.261 41.1089 401.283C38.1986 401.283 36.1682 402.434 36.1456 404.509C36.1456 406.652 38.1986 407.826 41.1089 407.803C44.0417 407.803 46.0496 406.652 46.0721 404.509Z" fill="white"/>
<path d="M32.3315 392.935V387.656H35.49V387.498C33.1888 386.844 32.0834 385.31 32.0608 383.37C32.0608 382.873 32.151 382.264 32.2638 381.813H37.0015C36.8436 382.332 36.7308 383.302 36.7533 383.979C36.7533 386.009 38.1521 387.521 40.2727 387.498H49.8383V392.958H32.3315V392.935Z" fill="white"/>
<path d="M32.3302 379.603V374.437H35.5112V374.234C33.3905 373.49 32.082 371.662 32.082 369.271C32.082 366.879 33.4131 365.007 35.5112 364.533V364.33C33.4356 363.653 32.082 361.623 32.082 359.051C32.082 355.757 34.3155 353.479 38.0154 353.479H49.8144V358.938H39.2336C37.4514 358.938 36.5039 359.953 36.5039 361.42C36.5039 362.976 37.6093 363.924 39.3013 363.924H49.8144V369.158H39.166C37.5191 369.158 36.4813 370.151 36.4813 371.617C36.4813 373.083 37.6319 374.189 39.4141 374.166H49.7919V379.626H32.2851L32.3302 379.603Z" fill="white"/>
<path d="M39.5033 344.408C39.4131 343.145 39.3454 340.957 39.3003 340.212H37.879C36.6607 340.212 35.9613 341.114 35.9839 342.603C35.9839 344.047 36.6156 344.972 37.7662 345.175V350.229C34.6754 349.981 32.1261 347.364 32.1261 342.468C32.1261 338.136 34.1791 334.775 37.9692 334.752H49.8585V339.874H47.3994V340.009C49.1817 340.957 50.1518 342.649 50.1743 345.108C50.1743 348.469 48.4598 350.906 44.9855 350.883C41.1051 350.883 39.7064 347.883 39.5033 344.408ZM46.5421 343.461C46.5421 341.611 45.3239 340.144 43.6093 340.167H42.4813C42.4813 340.821 42.5941 342.671 42.6843 343.483C42.8197 344.859 43.5867 345.717 44.7373 345.717C45.9104 345.717 46.5421 344.792 46.5421 343.461Z" fill="white"/>
<path d="M36.3242 321.667V324.871H44.3556C45.4611 324.871 45.7995 324.307 45.7995 323.382C45.822 322.93 45.7995 322.051 45.7318 321.441H49.8829C49.9731 321.983 50.0634 322.885 50.0859 324.149C50.0859 328.006 48.4842 330.308 44.9648 330.285H36.3242V332.631H32.331V330.285H28.1348V324.871H32.331V321.667H36.3242Z" fill="white"/>
<path d="M25.0192 316.117C25.0192 314.561 26.1698 313.297 27.6362 313.275C29.0801 313.275 30.2532 314.538 30.2532 316.117C30.2532 317.697 29.1027 318.915 27.6362 318.915C26.1698 318.915 24.9967 317.652 25.0192 316.117ZM32.3288 318.847V313.388H49.8356V318.847H32.3288Z" fill="white"/>
<path d="M41.1314 310.612C35.7395 310.612 32.1073 307.273 32.1073 301.813C32.1073 296.354 35.7395 293.015 41.1314 293.015C46.5233 293.015 50.1555 296.331 50.1555 301.813C50.1555 307.273 46.5233 310.612 41.1314 310.612ZM46.0721 301.768C46.0721 299.692 44.0417 298.519 41.1089 298.542C38.1986 298.542 36.1682 299.692 36.1456 301.768C36.1456 303.911 38.1986 305.084 41.1089 305.062C44.0417 305.062 46.0496 303.911 46.0721 301.768Z" fill="white"/>
<path d="M49.837 284.736V290.195H32.3302V285.029H35.5112V284.826C33.3905 284.036 32.082 282.074 32.082 279.502C32.082 275.802 34.699 273.433 38.6696 273.433H49.837V278.848H39.7074C37.7447 278.848 36.5715 279.908 36.549 281.713C36.549 283.518 37.7672 284.713 39.7977 284.713H49.8144L49.837 284.736Z" fill="white"/>
<path d="M497.839 198.125H373.149V216.173H497.839V198.125Z" fill="white"/>
<path d="M527.141 302.196H436.426V320.244H527.141V302.196Z" fill="white"/>
<path d="M438.935 320.605C419.465 320.605 403.605 304.767 403.605 285.275C403.605 265.783 419.443 249.946 438.935 249.946H474.264V285.275C474.264 304.745 458.427 320.605 438.935 320.605ZM438.935 268.017C429.414 268.017 421.654 275.777 421.654 285.298C421.654 294.818 429.414 302.579 438.935 302.579C448.455 302.579 456.216 294.841 456.216 285.298V268.017H438.935Z" fill="white"/>
<path d="M493.098 268.401H457.769V233.071C457.769 213.602 473.606 197.742 493.098 197.742C512.59 197.742 528.428 213.579 528.428 233.071C528.428 252.563 512.59 268.401 493.098 268.401ZM475.817 250.352H493.098C502.619 250.352 510.38 242.592 510.38 233.071C510.38 223.551 502.619 215.79 493.098 215.79C483.578 215.79 475.817 223.528 475.817 233.071V250.352Z" fill="white"/>
<path d="M197.021 367.53V349.481C223.732 349.481 245.48 327.733 245.48 301.022C245.48 274.311 223.732 252.562 197.021 252.562V234.514C233.704 234.514 263.528 264.361 263.528 301.022C263.528 337.682 233.681 367.53 197.021 367.53Z" fill="white"/>
<path d="M573.119 433.292H433.922V350.157H573.119V433.292ZM451.97 415.244H555.071V368.205H451.97V415.244Z" fill="white"/>
<path d="M680.146 310.587H626.61C610.367 310.587 595.274 304.541 585.212 294.005L558.343 265.895L571.405 253.419L598.274 281.53C604.862 288.41 615.465 292.539 626.61 292.539H680.146V310.587Z" fill="white"/>
<path d="M311.489 323.402H293.44C293.44 287.351 322.769 258.022 358.82 258.022H370.597V276.071H358.82C332.718 276.071 311.489 297.3 311.489 323.402Z" fill="white"/>
<path d="M164.347 210.193H146.299V397.601H164.347V210.193Z" fill="white"/>
<path d="M311.401 179.714H293.352V435.954H311.401V179.714Z" fill="white"/>
<path d="M573.415 187.453H555.367V383.502H573.415V187.453Z" fill="white"/>
<path d="M164.282 349.232H146.234C146.234 307.676 165.884 283.853 200.13 283.853H210.328V301.901H200.13C164.282 301.901 164.282 337.524 164.282 349.232Z" fill="white"/>
<path d="M154.627 180.412L134.029 216.079H175.224L154.627 180.412Z" fill="white"/>
<path d="M303.526 157.853L282.928 193.52H324.123L303.526 157.853Z" fill="white"/>
<path d="M565.223 164.622L544.625 200.29H585.821L565.223 164.622Z" fill="white"/>
<path d="M699.545 301.201L663.877 280.604V321.799L699.545 301.201Z" fill="white"/>
<path d="M552.907 310.226L517.239 289.628V330.824L552.907 310.226Z" fill="white"/>
<path d="M228.039 292.177L192.371 271.579V312.774L228.039 292.177Z" fill="white"/>
<path d="M388.213 267.361L352.546 246.764V287.959L388.213 267.361Z" fill="white"/>
<path d="M178.227 357.602L213.895 378.2V337.005L178.227 357.602Z" fill="white"/>
<path d="M354.194 206.448L389.862 227.045V185.85L354.194 206.448Z" fill="white"/>
<path d="M129.289 159.591C131.47 159.591 133.237 157.823 133.237 155.643C133.237 153.462 131.47 151.695 129.289 151.695C127.109 151.695 125.341 153.462 125.341 155.643C125.341 157.823 127.109 159.591 129.289 159.591Z" fill="white"/>
<path d="M129.289 452.876C131.47 452.876 133.237 451.108 133.237 448.928C133.237 446.748 131.47 444.98 129.289 444.98C127.109 444.98 125.341 446.748 125.341 448.928C125.341 451.108 127.109 452.876 129.289 452.876Z" fill="white"/>
<path d="M591.774 159.591C593.955 159.591 595.722 157.823 595.722 155.643C595.722 153.462 593.955 151.695 591.774 151.695C589.594 151.695 587.826 153.462 587.826 155.643C587.826 157.823 589.594 159.591 591.774 159.591Z" fill="white"/>
<path d="M727.137 299.465C729.318 299.465 731.085 297.697 731.085 295.517C731.085 293.336 729.318 291.569 727.137 291.569C724.957 291.569 723.189 293.336 723.189 295.517C723.189 297.697 724.957 299.465 727.137 299.465Z" fill="white"/>
<path d="M591.774 452.876C593.955 452.876 595.722 451.108 595.722 448.928C595.722 446.748 593.955 444.98 591.774 444.98C589.594 444.98 587.826 446.748 587.826 448.928C587.826 451.108 589.594 452.876 591.774 452.876Z" fill="white"/>
</svg>
