<svg width="254" height="159" viewBox="0 0 254 159" fill="none" xmlns="http://www.w3.org/2000/svg">
<path d="M33.941 42.5492H200.783L250.996 96.8723L202.114 156.607H33.941V42.5492Z" fill="#878787"/>
<path d="M202.843 158.153H32.3954V41.003H201.46L253.048 96.8128L202.843 158.153ZM35.4877 155.061H201.378L248.945 96.9392L200.107 44.1027H35.4877V155.061Z" fill="white"/>
<path d="M164.032 65.2803H122.948V71.227H164.032V65.2803Z" fill="white"/>
<path d="M173.687 99.5707H143.798V105.517H173.687V99.5707Z" fill="white"/>
<path d="M144.624 105.636C138.209 105.636 132.983 100.418 132.983 93.9954C132.983 87.573 138.201 82.3547 144.624 82.3547H156.265V93.9954C156.265 100.41 151.046 105.636 144.624 105.636ZM144.624 88.3089C141.487 88.3089 138.93 90.8659 138.93 94.0028C138.93 97.1397 141.487 99.6968 144.624 99.6968C147.761 99.6968 150.318 97.1471 150.318 94.0028V88.3089H144.624Z" fill="white"/>
<path d="M162.471 88.4355H150.83V76.7949C150.83 70.3799 156.049 65.1542 162.471 65.1542C168.894 65.1542 174.112 70.3724 174.112 76.7949C174.112 83.2173 168.894 88.4355 162.471 88.4355ZM156.777 82.4888H162.471C165.608 82.4888 168.165 79.9318 168.165 76.7949C168.165 73.658 165.608 71.1009 162.471 71.1009C159.334 71.1009 156.777 73.6505 156.777 76.7949V82.4888Z" fill="white"/>
<path d="M64.916 121.098V115.151C73.7171 115.151 80.8829 107.985 80.8829 99.1841C80.8829 90.383 73.7171 83.2172 64.916 83.2172V77.2705C77.0027 77.2705 86.8296 87.1049 86.8296 99.1841C86.8296 111.263 76.9953 121.098 64.916 121.098Z" fill="white"/>
<path d="M188.837 142.766H142.973V115.374H188.837V142.766ZM148.919 136.819H182.89V121.32H148.919V136.819Z" fill="white"/>
<path d="M224.101 102.335H206.461C201.109 102.335 196.136 100.343 192.821 96.8719L183.968 87.6099L188.272 83.4993L197.125 92.7613C199.295 95.0284 202.789 96.3887 206.461 96.3887H224.101V102.335Z" fill="white"/>
<path d="M102.632 106.558H96.6857C96.6857 94.6794 106.349 85.016 118.228 85.016H122.108V90.9627H118.228C109.627 90.9627 102.632 97.9575 102.632 106.558Z" fill="white"/>
<path d="M54.1508 69.2568H48.2041V131.006H54.1508V69.2568Z" fill="white"/>
<path d="M102.602 59.2142H96.6558V143.643H102.602V59.2142Z" fill="white"/>
<path d="M188.934 61.7639H182.987V126.36H188.934V61.7639Z" fill="white"/>
<path d="M54.1293 115.069H48.1826C48.1826 101.377 54.6571 93.5269 65.941 93.5269H69.3009V99.4736H65.941C54.1293 99.4736 54.1293 111.211 54.1293 115.069Z" fill="white"/>
<path d="M50.9478 59.4443L44.1611 71.1965H57.7345L50.9478 59.4443Z" fill="white"/>
<path d="M100.008 52.0112L93.2217 63.7633H106.795L100.008 52.0112Z" fill="white"/>
<path d="M186.235 54.2414L179.448 65.9936H193.022L186.235 54.2414Z" fill="white"/>
<path d="M230.493 99.243L218.741 92.4563V106.03L230.493 99.243Z" fill="white"/>
<path d="M182.177 102.217L170.425 95.43V109.003L182.177 102.217Z" fill="white"/>
<path d="M75.136 96.2696L63.3838 89.4829V103.056L75.136 96.2696Z" fill="white"/>
<path d="M127.913 88.093L116.16 81.3064V94.8797L127.913 88.093Z" fill="white"/>
<path d="M58.7236 117.827L70.4758 124.613V111.04L58.7236 117.827Z" fill="white"/>
<path d="M116.703 68.0229L128.456 74.8096V61.2363L116.703 68.0229Z" fill="white"/>
<path d="M23.7265 1.11514H1.11414V157.885H23.7265V1.11514Z" fill="#0043FF"/>
<path d="M22.6123 2.23001V156.77H2.23001V2.23001H22.6123ZM24.8424 0H0V159H24.8424V0Z" fill="white"/>
<path d="M16.4207 147.687V149.493H8.72711V147.687H16.4207Z" fill="white"/>
<path d="M16.4198 144.728V146.527H10.6515V144.825H11.6996V144.758C11.0009 144.498 10.5698 143.851 10.5698 143.004C10.5698 141.785 11.432 141.004 12.7403 141.004H16.4198V142.788H13.0822C12.4355 142.788 12.049 143.137 12.0416 143.732C12.0416 144.327 12.443 144.721 13.112 144.721H16.4124L16.4198 144.728Z" fill="white"/>
<path d="M11.9676 136.641V137.734H16.4201V139.533H11.9676V140.321H10.6518V139.533H10.3322C9.02394 139.533 8.36237 138.767 8.36237 137.57C8.36237 137.161 8.39953 136.849 8.459 136.537H9.78957C9.76727 136.782 9.75984 136.946 9.75984 137.028C9.75984 137.481 9.93824 137.741 10.3768 137.741H10.6518V136.649H11.9676V136.641Z" fill="white"/>
<path d="M13.5521 136.195C11.7755 136.195 10.5787 135.095 10.5787 133.296C10.5787 131.497 11.7755 130.397 13.5521 130.397C15.3287 130.397 16.5254 131.49 16.5254 133.296C16.5254 135.095 15.3287 136.195 13.5521 136.195ZM15.18 133.281C15.18 132.598 14.511 132.211 13.5447 132.218C12.5857 132.218 11.9167 132.598 11.9093 133.281C11.9093 133.988 12.5857 134.374 13.5447 134.367C14.511 134.367 15.1726 133.988 15.18 133.281Z" fill="white"/>
<path d="M10.652 129.468V127.728H11.6927V127.676C10.9345 127.461 10.5702 126.955 10.5628 126.316C10.5628 126.153 10.5925 125.952 10.6297 125.803H12.1907C12.1387 125.974 12.1015 126.294 12.1089 126.517C12.1089 127.186 12.5698 127.684 13.2686 127.676H16.4203V129.475H10.652V129.468Z" fill="white"/>
<path d="M10.6515 125.075V123.373H11.6996V123.306C11.0009 123.06 10.5698 122.458 10.5698 121.67C10.5698 120.882 11.0083 120.265 11.6996 120.109V120.042C11.0158 119.819 10.5698 119.15 10.5698 118.303C10.5698 117.218 11.3057 116.467 12.5247 116.467H16.4124V118.266H12.9261C12.3389 118.266 12.0267 118.6 12.0267 119.084C12.0267 119.596 12.3909 119.909 12.9484 119.909H16.4124V121.633H12.9038C12.3612 121.633 12.0193 121.96 12.0193 122.443C12.0193 122.927 12.3984 123.291 12.9856 123.283H16.405V125.082H10.6367L10.6515 125.075Z" fill="white"/>
<path d="M13.0154 113.479C12.9857 113.063 12.9634 112.341 12.9485 112.096H12.4802C12.0788 112.096 11.8484 112.393 11.8558 112.884C11.8558 113.36 12.064 113.665 12.4431 113.732V115.397C11.4247 115.315 10.5847 114.453 10.5847 112.84C10.5847 111.412 11.2612 110.305 12.51 110.297H16.4274V111.985H15.6171V112.029C16.2044 112.341 16.524 112.899 16.5314 113.709C16.5314 114.817 15.9665 115.62 14.8217 115.612C13.5432 115.612 13.0823 114.624 13.0154 113.479ZM15.3346 113.167C15.3346 112.557 14.9332 112.074 14.3683 112.081H13.9966C13.9966 112.297 14.0338 112.906 14.0635 113.174C14.1081 113.627 14.3609 113.91 14.74 113.91C15.1265 113.91 15.3346 113.605 15.3346 113.167Z" fill="white"/>
<path d="M11.9675 105.986V107.041H14.6138C14.9781 107.041 15.0896 106.855 15.0896 106.551C15.097 106.402 15.0896 106.112 15.0673 105.911H16.435C16.4647 106.09 16.4945 106.387 16.5019 106.803C16.5019 108.075 15.9741 108.833 14.8145 108.825H11.9675V109.598H10.6518V108.825H9.26923V107.041H10.6518V105.986H11.9675Z" fill="white"/>
<path d="M8.2429 104.157C8.2429 103.644 8.62201 103.228 9.10518 103.221C9.58091 103.221 9.96745 103.637 9.96745 104.157C9.96745 104.678 9.58834 105.079 9.10518 105.079C8.62201 105.079 8.23547 104.663 8.2429 104.157ZM10.6513 105.057V103.258H16.4196V105.057H10.6513Z" fill="white"/>
<path d="M13.5521 102.343C11.7755 102.343 10.5787 101.243 10.5787 99.4444C10.5787 97.6455 11.7755 96.5453 13.5521 96.5453C15.3287 96.5453 16.5254 97.638 16.5254 99.4444C16.5254 101.243 15.3287 102.343 13.5521 102.343ZM15.18 99.4295C15.18 98.7456 14.511 98.3591 13.5447 98.3665C12.5857 98.3665 11.9167 98.7456 11.9093 99.4295C11.9093 100.136 12.5857 100.522 13.5447 100.515C14.511 100.515 15.1726 100.136 15.18 99.4295Z" fill="white"/>
<path d="M16.4198 93.8173V95.6162H10.6515V93.9139H11.6996V93.847C11.0009 93.5868 10.5698 92.9401 10.5698 92.0927C10.5698 90.8737 11.432 90.0932 12.7403 90.0932H16.4198V91.8772H13.0822C12.4355 91.8772 12.049 92.2265 12.0416 92.8212C12.0416 93.4159 12.443 93.8098 13.112 93.8098H16.4124L16.4198 93.8173Z" fill="white"/>
<path d="M42.6 52.5838C43.3185 52.5838 43.9009 52.0014 43.9009 51.283C43.9009 50.5646 43.3185 49.9822 42.6 49.9822C41.8816 49.9822 41.2992 50.5646 41.2992 51.283C41.2992 52.0014 41.8816 52.5838 42.6 52.5838Z" fill="white"/>
<path d="M42.6 149.218C43.3185 149.218 43.9009 148.636 43.9009 147.917C43.9009 147.199 43.3185 146.617 42.6 146.617C41.8816 146.617 41.2992 147.199 41.2992 147.917C41.2992 148.636 41.8816 149.218 42.6 149.218Z" fill="white"/>
<path d="M194.984 52.5838C195.703 52.5838 196.285 52.0014 196.285 51.283C196.285 50.5646 195.703 49.9822 194.984 49.9822C194.266 49.9822 193.683 50.5646 193.683 51.283C193.683 52.0014 194.266 52.5838 194.984 52.5838Z" fill="white"/>
<path d="M239.585 98.671C240.303 98.671 240.886 98.0886 240.886 97.3701C240.886 96.6517 240.303 96.0693 239.585 96.0693C238.866 96.0693 238.284 96.6517 238.284 97.3701C238.284 98.0886 238.866 98.671 239.585 98.671Z" fill="white"/>
<path d="M194.984 149.218C195.703 149.218 196.285 148.636 196.285 147.917C196.285 147.199 195.703 146.617 194.984 146.617C194.266 146.617 193.683 147.199 193.683 147.917C193.683 148.636 194.266 149.218 194.984 149.218Z" fill="white"/>
</svg>
