<svg width="234" height="167" viewBox="0 0 234 167" fill="none" xmlns="http://www.w3.org/2000/svg">
<path d="M53.7271 165.885L1.40393 97.8797L53.7271 29.8744L180.061 29.8744L232.384 97.8797L180.061 165.885L53.7271 165.885Z" fill="#FF3000"/>
<path d="M179.512 30.9893L230.98 97.8798L179.512 164.77L54.2779 164.77L2.80942 97.8798L54.2779 30.9893L179.512 30.9893ZM180.612 28.7596L53.1854 28.7596L52.5165 29.6292L1.04798 96.5197L0 97.8798L1.04798 99.2399L52.5165 166.13L53.1854 167L180.612 167L181.281 166.13L232.749 99.2399L233.797 97.8798L232.749 96.5197L181.281 29.6292L180.612 28.7596Z" fill="white"/>
<path d="M79.7188 69.512L79.5205 114.96L85.4663 114.986L85.6646 69.538L79.7188 69.512Z" fill="white"/>
<path d="M65.552 91.8228H59.6062V106.643H65.552V91.8228Z" fill="white"/>
<path d="M45.8237 68.584L39.8779 68.5923L39.9602 127.5L45.906 127.492L45.8237 68.584Z" fill="white"/>
<path d="M72.7469 127.943C65.6417 127.943 59.8594 122.161 59.8594 115.056V102.168H72.7469C79.8522 102.168 85.6344 107.95 85.6344 115.056C85.6344 122.161 79.8522 127.943 72.7469 127.943ZM65.8052 108.106V115.048C65.8052 118.876 68.9193 121.99 72.7469 121.99C76.5745 121.99 79.6886 118.876 79.6886 115.048C79.6886 111.22 76.5745 108.106 72.7469 108.106H65.8052Z" fill="white"/>
<path d="M65.8132 108.106H52.9256C45.8204 108.106 40.0381 102.324 40.0381 95.2186C40.0381 88.1134 45.8204 82.3311 52.9256 82.3311C60.0309 82.3311 65.8132 88.1134 65.8132 95.2186V108.106ZM52.9182 88.2694C49.0906 88.2694 45.9765 91.3836 45.9765 95.2112C45.9765 99.0388 49.0906 102.153 52.9182 102.153H59.86V95.2112C59.86 91.3836 56.7458 88.2694 52.9182 88.2694Z" fill="white"/>
<path d="M163.086 144.992C152.406 144.992 143.725 136.304 143.725 125.631C143.725 114.958 152.414 106.27 163.086 106.27C173.759 106.27 182.447 114.958 182.447 125.631C182.447 136.304 173.759 144.992 163.086 144.992ZM163.086 112.216C155.691 112.216 149.671 118.236 149.671 125.631C149.671 133.026 155.691 139.046 163.086 139.046C170.481 139.046 176.502 133.026 176.502 125.631C176.502 118.236 170.481 112.216 163.086 112.216Z" fill="white"/>
<path d="M183.889 110.108L139.574 135.858L142.561 140.999L186.876 115.249L183.889 110.108Z" fill="white"/>
<path d="M100.046 118.98L96.2931 114.365L106.609 105.973C109.091 103.952 110.57 100.741 110.57 97.3818V59.9752H116.516V97.3818C116.516 102.51 114.212 107.445 110.355 110.581L100.039 118.973L100.046 118.98Z" fill="white"/>
<path d="M101.754 69.3992H95.8086L95.8086 139.433H101.754L101.754 69.3992Z" fill="white"/>
<path d="M202.841 94.6835L130.488 94.6835V100.629L202.841 100.629V94.6835Z" fill="white"/>
<path d="M165.822 86.0475H155.38C149.634 86.0475 144.967 81.3726 144.967 75.6349C144.967 69.8972 149.642 65.2223 155.38 65.2223C161.117 65.2223 165.822 69.8972 165.822 75.6349V86.0475ZM155.409 71.1607C152.92 71.1607 150.913 73.1674 150.913 75.6275C150.913 78.0876 152.919 80.0943 155.38 80.0943H159.876V75.6275C159.876 73.1674 157.869 71.1607 155.409 71.1607Z" fill="white"/>
<path d="M182.849 80.1011H161.83V86.047H182.849V80.1011Z" fill="white"/>
<path d="M166.074 100.139H160.128V45.8236L181.8 67.5333L177.594 71.7399L166.074 60.1976V100.139Z" fill="white"/>
<path d="M42.8546 59.7737L36.069 71.5241H49.6403L42.8546 59.7737Z" fill="white"/>
<path d="M82.9888 59.7734L76.2031 71.5239H89.7745L82.9888 59.7734Z" fill="white"/>
<path d="M98.5961 59.7737L91.8104 71.5241H105.382L98.5961 59.7737Z" fill="white"/>
<path d="M98.5961 148.278L105.382 136.528H91.8104L98.5961 148.278Z" fill="white"/>
<path d="M113.463 50.8559L106.677 62.6063H120.248L113.463 50.8559Z" fill="white"/>
<path d="M121.235 97.3368L132.986 104.122V90.5511L121.235 97.3368Z" fill="white"/>
<path d="M209.739 97.3368L197.988 90.5511V104.122L209.739 97.3368Z" fill="white"/>
<path d="M191.158 83.2152L179.408 76.4295V90.0008L191.158 83.2152Z" fill="white"/>
<path d="M194.368 1.11475L37.6217 1.11475L37.6217 23.7237L194.368 23.7237V1.11475Z" fill="#009B00"/>
<path d="M193.253 2.22968V22.609L38.7357 22.609V2.22968L193.253 2.22968ZM195.482 0L36.506 0L36.506 24.8387L195.482 24.8387V0Z" fill="white"/>
<path d="M47.8197 16.419H46.0137V8.72662H47.8197V16.419Z" fill="white"/>
<path d="M50.7772 16.4179H48.9786V10.6504H50.6806V11.6984H50.7475C51.0077 10.9997 51.6542 10.5687 52.5015 10.5687C53.7204 10.5687 54.5008 11.4308 54.5008 12.7389V16.4179H52.7171V13.0808C52.7171 12.4342 52.3678 12.0477 51.7732 12.0403C51.1786 12.0403 50.7846 12.4416 50.7846 13.1105V16.4104L50.7772 16.4179Z" fill="white"/>
<path d="M58.8563 11.9666H57.7638V16.4185H55.9652V11.9666H55.1774V10.6511H55.9652V10.3315C55.9652 9.02341 56.7307 8.36194 57.9273 8.36194C58.336 8.36194 58.6482 8.3991 58.9604 8.45856V9.78893C58.7151 9.76664 58.5517 9.75921 58.4699 9.75921C58.0165 9.75921 57.7563 9.93758 57.7563 10.3761V10.6511H58.849V11.9666H58.8563Z" fill="white"/>
<path d="M59.3098 13.5498C59.3098 11.7735 60.4097 10.5769 62.2083 10.5769C64.0069 10.5769 65.1069 11.7735 65.1069 13.5498C65.1069 15.3261 64.0144 16.5227 62.2083 16.5227C60.4023 16.5227 59.3098 15.3261 59.3098 13.5498ZM62.2232 15.1775C62.907 15.1775 63.2935 14.5086 63.2861 13.5424C63.2861 12.5836 62.907 11.9147 62.2232 11.9073C61.5171 11.9073 61.1307 12.5836 61.1381 13.5424C61.1381 14.5086 61.5171 15.17 62.2232 15.1775Z" fill="white"/>
<path d="M66.0355 10.6506H67.7746V11.6911H67.8267C68.0423 10.933 68.5476 10.5688 69.1868 10.5614C69.3503 10.5614 69.551 10.5911 69.6997 10.6283V12.1891C69.5287 12.137 69.2091 12.0999 68.9861 12.1073C68.3172 12.1073 67.8193 12.5681 67.8267 13.2667V16.418H66.0281V10.6506H66.0355Z" fill="white"/>
<path d="M70.4211 10.6504H72.1232V11.6984H72.19C72.4353 10.9997 73.0373 10.5687 73.8251 10.5687C74.6129 10.5687 75.2299 11.0072 75.3859 11.6984H75.4528C75.6758 11.0146 76.3446 10.5687 77.1919 10.5687C78.277 10.5687 79.0277 11.3045 79.0277 12.5234V16.4104H77.2291V12.9247C77.2291 12.3375 76.8946 12.0254 76.4115 12.0254C75.8987 12.0254 75.5865 12.3896 75.5865 12.947V16.4104H73.8623V12.9024C73.8623 12.3598 73.5353 12.018 73.0522 12.018C72.5691 12.018 72.2049 12.397 72.2123 12.9842V16.403H70.4137V10.6356L70.4211 10.6504Z" fill="white"/>
<path d="M82.0224 13.0135C82.4386 12.9838 83.1595 12.9615 83.4048 12.9466V12.4784C83.4048 12.077 83.1075 11.8466 82.617 11.854C82.1413 11.854 81.8366 12.0622 81.7697 12.4412H80.1049C80.1867 11.423 81.0488 10.5831 82.6616 10.5831C84.0886 10.5831 85.196 11.2595 85.2034 12.5081V16.4249H83.5163V15.6148H83.4716C83.1595 16.2019 82.6022 16.5215 81.792 16.5289C80.6846 16.5289 79.8819 15.9641 79.8893 14.8195C79.8893 13.5412 80.8778 13.0804 82.0224 13.0135ZM82.3346 15.3324C82.944 15.3324 83.4271 14.931 83.4197 14.3662V13.9945C83.2041 13.9945 82.5947 14.0317 82.3271 14.0614C81.8738 14.106 81.5914 14.3587 81.5914 14.7378C81.5914 15.1242 81.8961 15.3324 82.3346 15.3324Z" fill="white"/>
<path d="M89.5141 11.9659H88.4587V14.6117C88.4587 14.9759 88.6446 15.0874 88.9493 15.0874C89.0979 15.0948 89.3878 15.0874 89.5884 15.0651V16.4327C89.4101 16.4624 89.1127 16.4921 88.6965 16.4995C87.4256 16.4995 86.6675 15.9719 86.675 14.8124V11.9659H85.902V10.6503H86.675V9.26794H88.4587V10.6503H89.5141V11.9659Z" fill="white"/>
<path d="M91.3425 8.24217C91.8553 8.24217 92.2715 8.62122 92.279 9.10431C92.279 9.57998 91.8628 9.96646 91.3425 9.96646C90.8222 9.96646 90.4209 9.58741 90.4209 9.10431C90.4209 8.62122 90.8371 8.23474 91.3425 8.24217ZM90.4358 10.6502H92.2343V16.4177H90.4358V10.6502Z" fill="white"/>
<path d="M93.1565 13.5498C93.1565 11.7735 94.2565 10.5769 96.0551 10.5769C97.8611 10.5769 98.9537 11.7735 98.9537 13.5498C98.9537 15.3261 97.8611 16.5227 96.0551 16.5227C94.2565 16.5227 93.1565 15.3261 93.1565 13.5498ZM96.07 15.1775C96.7537 15.1775 97.1402 14.5086 97.1327 13.5424C97.1327 12.5836 96.7537 11.9147 96.07 11.9073C95.3639 11.9073 94.9775 12.5836 94.9849 13.5424C94.9849 14.5086 95.3639 15.17 96.07 15.1775Z" fill="white"/>
<path d="M101.682 16.4179H99.8831V10.6504H101.585V11.6984H101.652C101.912 10.9997 102.559 10.5687 103.406 10.5687C104.625 10.5687 105.405 11.4308 105.405 12.7389V16.4179H103.622V13.0808C103.622 12.4342 103.272 12.0477 102.678 12.0403C102.083 12.0403 101.689 12.4416 101.689 13.1105V16.4104L101.682 16.4179Z" fill="white"/>
<path d="M57.5482 38.7942C58.2665 38.7942 58.8489 38.2119 58.8489 37.4936C58.8489 36.7753 58.2665 36.1929 57.5482 36.1929C56.8299 36.1929 56.2476 36.7753 56.2476 37.4936C56.2476 38.2119 56.8299 38.7942 57.5482 38.7942Z" fill="white"/>
<path d="M175.722 38.7942C176.44 38.7942 177.022 38.2119 177.022 37.4936C177.022 36.7753 176.44 36.1929 175.722 36.1929C175.003 36.1929 174.421 36.7753 174.421 37.4936C174.421 38.2119 175.003 38.7942 175.722 38.7942Z" fill="white"/>
<path d="M221.801 98.9946C222.52 98.9946 223.102 98.4123 223.102 97.694C223.102 96.9756 222.52 96.3933 221.801 96.3933C221.083 96.3933 220.501 96.9756 220.501 97.694C220.501 98.4123 221.083 98.9946 221.801 98.9946Z" fill="white"/>
<path d="M11.4674 98.9946C12.1857 98.9946 12.768 98.4123 12.768 97.694C12.768 96.9756 12.1857 96.3933 11.4674 96.3933C10.7491 96.3933 10.1667 96.9756 10.1667 97.694C10.1667 98.4123 10.7491 98.9946 11.4674 98.9946Z" fill="white"/>
<path d="M57.5482 159.94C58.2665 159.94 58.8489 159.357 58.8489 158.639C58.8489 157.921 58.2665 157.339 57.5482 157.339C56.8299 157.339 56.2476 157.921 56.2476 158.639C56.2476 159.357 56.8299 159.94 57.5482 159.94Z" fill="white"/>
<path d="M175.722 159.94C176.44 159.94 177.022 159.357 177.022 158.639C177.022 157.921 176.44 157.339 175.722 157.339C175.003 157.339 174.421 157.921 174.421 158.639C174.421 159.357 175.003 159.94 175.722 159.94Z" fill="white"/>
</svg>
