<svg width="710" height="507" viewBox="0 0 710 507" fill="none" xmlns="http://www.w3.org/2000/svg">
<path d="M163.101 503.585L4.26099 297.139L163.101 90.6919L546.617 90.6919L705.457 297.139L546.617 503.585L163.101 503.585Z" fill="#FF3000"/>
<path d="M544.949 94.0764L701.194 297.139L544.949 500.201L164.772 500.201L8.52673 297.139L164.772 94.0764L544.949 94.0764ZM548.288 87.3076L161.455 87.3076L159.425 89.9474L3.17943 293.01L-0.00195312 297.139L3.17943 301.268L159.425 504.33L161.455 506.97L548.288 506.97L550.319 504.33L706.565 301.268L709.746 297.139L706.565 293.01L550.319 89.9474L548.288 87.3076Z" fill="white"/>
<path d="M242.004 211.02L241.402 348.988L259.452 349.067L260.054 211.099L242.004 211.02Z" fill="white"/>
<path d="M198.999 278.751H180.949V323.741H198.999V278.751Z" fill="white"/>
<path d="M139.109 208.204L121.059 208.229L121.309 387.059L139.358 387.034L139.109 208.204Z" fill="white"/>
<path d="M220.84 388.403C199.271 388.403 181.717 370.849 181.717 349.28V310.156H220.84C242.41 310.156 259.964 327.71 259.964 349.28C259.964 370.849 242.41 388.403 220.84 388.403ZM199.767 328.184V349.257C199.767 360.877 209.221 370.33 220.84 370.33C232.46 370.33 241.914 360.877 241.914 349.257C241.914 337.637 232.46 328.184 220.84 328.184H199.767Z" fill="white"/>
<path d="M199.791 328.183H160.667C139.098 328.183 121.544 310.629 121.544 289.059C121.544 267.49 139.098 249.936 160.667 249.936C182.237 249.936 199.791 267.49 199.791 289.059V328.183ZM160.645 267.963C149.025 267.963 139.572 277.417 139.572 289.037C139.572 300.656 149.025 310.11 160.645 310.11H181.718V289.037C181.718 277.417 172.265 267.963 160.645 267.963Z" fill="white"/>
<path d="M495.088 440.159C462.665 440.159 436.312 413.783 436.312 381.384C436.312 348.984 462.688 322.608 495.088 322.608C527.487 322.608 553.863 348.984 553.863 381.384C553.863 413.783 527.487 440.159 495.088 440.159ZM495.088 340.658C472.638 340.658 454.362 358.934 454.362 381.384C454.362 403.833 472.638 422.109 495.088 422.109C517.537 422.109 535.813 403.833 535.813 381.384C535.813 358.934 517.537 340.658 495.088 340.658Z" fill="white"/>
<path d="M558.238 334.26L423.71 412.432L432.779 428.038L567.306 349.867L558.238 334.26Z" fill="white"/>
<path d="M303.713 361.192L292.319 347.181L323.636 321.708C331.172 315.571 335.662 305.824 335.662 295.626V182.069H353.712V295.626C353.712 311.194 346.717 326.175 335.007 335.697L303.691 361.17L303.713 361.192Z" fill="white"/>
<path d="M308.901 210.679H290.851L290.851 423.285H308.901L308.901 210.679Z" fill="white"/>
<path d="M615.774 287.435L396.128 287.435V305.485L615.774 305.485V287.435Z" fill="white"/>
<path d="M503.395 261.219H471.694C454.254 261.219 440.085 247.027 440.085 229.609C440.085 212.191 454.276 197.999 471.694 197.999C489.113 197.999 503.395 212.191 503.395 229.609V261.219ZM471.785 216.026C464.226 216.026 458.134 222.118 458.134 229.586C458.134 237.055 464.226 243.147 471.694 243.147H485.345V229.586C485.345 222.118 479.253 216.026 471.785 216.026Z" fill="white"/>
<path d="M555.083 243.167H491.277V261.216H555.083V243.167Z" fill="white"/>
<path d="M504.156 303.996H486.106V139.109L551.898 205.014L539.128 217.785L504.156 182.745V303.996Z" fill="white"/>
<path d="M130.096 181.458L109.497 217.13H150.696L130.096 181.458Z" fill="white"/>
<path d="M251.932 181.457L231.332 217.128H272.531L251.932 181.457Z" fill="white"/>
<path d="M299.312 181.458L278.712 217.13H319.911L299.312 181.458Z" fill="white"/>
<path d="M299.312 450.135L319.911 414.464H278.712L299.312 450.135Z" fill="white"/>
<path d="M344.444 154.386L323.845 190.057H365.044L344.444 154.386Z" fill="white"/>
<path d="M368.038 295.49L403.709 316.089V274.89L368.038 295.49Z" fill="white"/>
<path d="M636.712 295.49L601.041 274.89V316.089L636.712 295.49Z" fill="white"/>
<path d="M580.308 252.621L544.637 232.021V273.22L580.308 252.621Z" fill="white"/>
<path d="M590.053 3.38477L114.21 3.38477L114.21 72.0198L590.053 72.0198V3.38477Z" fill="#009B00"/>
<path d="M586.664 6.76874V68.635L117.591 68.635L117.591 6.76874L586.664 6.76874ZM593.433 0L110.822 0L110.822 75.4038L593.433 75.4038V0Z" fill="white"/>
<path d="M145.167 49.8443H139.685V26.4922H145.167V49.8443Z" fill="white"/>
<path d="M154.145 49.8411H148.685V32.3327H153.852V35.514H154.055C154.845 33.3931 156.808 32.0845 159.38 32.0845C163.08 32.0845 165.449 34.7017 165.449 38.6727V49.8411H160.034V39.7106C160.034 37.7477 158.974 36.5744 157.169 36.5518C155.364 36.5518 154.168 37.7702 154.168 39.8008V49.8186L154.145 49.8411Z" fill="white"/>
<path d="M178.673 36.3271H175.356V49.842H169.896V36.3271H167.504V32.3335H169.896V31.3633C169.896 27.3923 172.22 25.3843 175.852 25.3843C177.093 25.3843 178.041 25.4971 178.989 25.6776V29.7163C178.244 29.6486 177.748 29.626 177.5 29.626C176.123 29.626 175.334 30.1675 175.334 31.4987V32.3335H178.65V36.3271H178.673Z" fill="white"/>
<path d="M180.048 41.1344C180.048 35.7419 183.387 32.1094 188.847 32.1094C194.307 32.1094 197.646 35.7419 197.646 41.1344C197.646 46.5268 194.329 50.1593 188.847 50.1593C183.364 50.1593 180.048 46.5268 180.048 41.1344ZM188.892 46.0755C190.968 46.0755 192.141 44.0449 192.118 41.1118C192.118 38.2012 190.968 36.1706 188.892 36.1481C186.748 36.1481 185.575 38.2012 185.598 41.1118C185.598 44.0449 186.748 46.053 188.892 46.0755Z" fill="white"/>
<path d="M200.467 32.3328H205.746V35.4915H205.904C206.559 33.1901 208.093 32.0846 210.033 32.062C210.53 32.062 211.139 32.1523 211.59 32.2651V37.0032C211.071 36.8453 210.101 36.7324 209.424 36.755C207.393 36.755 205.882 38.1539 205.904 40.2748V49.8412H200.444V32.3328H200.467Z" fill="white"/>
<path d="M213.78 32.3327H218.947V35.514H219.15C219.895 33.3931 221.722 32.0845 224.114 32.0845C226.506 32.0845 228.378 33.4157 228.852 35.514H229.055C229.732 33.4382 231.763 32.0845 234.335 32.0845C237.629 32.0845 239.908 34.3182 239.908 38.0184V49.8186H234.448V39.2368C234.448 37.4543 233.432 36.5067 231.966 36.5067C230.409 36.5067 229.461 37.6123 229.461 39.3045V49.8186H224.227V39.1691C224.227 37.522 223.234 36.4842 221.768 36.4842C220.301 36.4842 219.195 37.6348 219.218 39.4173V49.796H213.758V32.2875L213.78 32.3327Z" fill="white"/>
<path d="M248.999 39.5054C250.263 39.4151 252.451 39.3474 253.196 39.3023V37.8809C253.196 36.6625 252.293 35.9631 250.804 35.9856C249.36 35.9856 248.435 36.6174 248.232 37.7681H243.178C243.426 34.677 246.044 32.1274 250.94 32.1274C255.272 32.1274 258.633 34.1806 258.656 37.9711V49.8615H253.534V47.4022H253.399C252.451 49.1847 250.759 50.1549 248.3 50.1774C244.938 50.1774 242.501 48.4627 242.524 44.988C242.524 41.1073 245.525 39.7084 248.999 39.5054ZM249.947 46.5449C251.797 46.5449 253.264 45.3265 253.241 43.6117V42.4836C252.587 42.4836 250.737 42.5964 249.924 42.6867C248.548 42.8221 247.691 43.5892 247.691 44.7399C247.691 45.9131 248.616 46.5449 249.947 46.5449Z" fill="white"/>
<path d="M271.742 36.3254H268.538V44.3577C268.538 45.4632 269.102 45.8017 270.027 45.8017C270.478 45.8242 271.358 45.8017 271.968 45.734V49.8855C271.426 49.9757 270.523 50.066 269.26 50.0885C265.402 50.0885 263.1 48.4866 263.123 44.9669V36.3254H260.776V32.3319H263.123V28.1353H268.538V32.3319H271.742V36.3254Z" fill="white"/>
<path d="M277.291 25.0213C278.847 25.0213 280.111 26.172 280.134 27.6386C280.134 29.0826 278.87 30.2558 277.291 30.2558C275.711 30.2558 274.493 29.1051 274.493 27.6386C274.493 26.172 275.756 24.9988 277.291 25.0213ZM274.538 32.3316H279.998V49.84H274.538V32.3316Z" fill="white"/>
<path d="M282.798 41.1344C282.798 35.7419 286.137 32.1094 291.597 32.1094C297.08 32.1094 300.396 35.7419 300.396 41.1344C300.396 46.5268 297.08 50.1593 291.597 50.1593C286.137 50.1593 282.798 46.5268 282.798 41.1344ZM291.642 46.0755C293.718 46.0755 294.891 44.0449 294.868 41.1118C294.868 38.2012 293.718 36.1706 291.642 36.1481C289.499 36.1481 288.326 38.2012 288.348 41.1118C288.348 44.0449 289.499 46.053 291.642 46.0755Z" fill="white"/>
<path d="M308.676 49.8411H303.216V32.3327H308.383V35.514H308.586C309.376 33.3931 311.339 32.0845 313.911 32.0845C317.611 32.0845 319.98 34.7017 319.98 38.6727V49.8411H314.565V39.7106C314.565 37.7477 313.505 36.5744 311.7 36.5518C309.895 36.5518 308.699 37.7702 308.699 39.8008V49.8186L308.676 49.8411Z" fill="white"/>
<path d="M174.703 117.77C176.883 117.77 178.651 116.002 178.651 113.821C178.651 111.641 176.883 109.873 174.703 109.873C172.522 109.873 170.754 111.641 170.754 113.821C170.754 116.002 172.522 117.77 174.703 117.77Z" fill="white"/>
<path d="M533.443 117.77C535.624 117.77 537.392 116.002 537.392 113.821C537.392 111.641 535.624 109.873 533.443 109.873C531.263 109.873 529.495 111.641 529.495 113.821C529.495 116.002 531.263 117.77 533.443 117.77Z" fill="white"/>
<path d="M673.332 300.521C675.512 300.521 677.28 298.754 677.28 296.573C677.28 294.392 675.512 292.625 673.332 292.625C671.151 292.625 669.383 294.392 669.383 296.573C669.383 298.754 671.151 300.521 673.332 300.521Z" fill="white"/>
<path d="M34.8115 300.521C36.9921 300.521 38.7599 298.754 38.7599 296.573C38.7599 294.392 36.9921 292.625 34.8115 292.625C32.6308 292.625 30.863 294.392 30.863 296.573C30.863 298.754 32.6308 300.521 34.8115 300.521Z" fill="white"/>
<path d="M174.703 485.537C176.883 485.537 178.651 483.769 178.651 481.588C178.651 479.407 176.883 477.64 174.703 477.64C172.522 477.64 170.754 479.407 170.754 481.588C170.754 483.769 172.522 485.537 174.703 485.537Z" fill="white"/>
<path d="M533.443 485.537C535.624 485.537 537.392 483.769 537.392 481.588C537.392 479.407 535.624 477.64 533.443 477.64C531.263 477.64 529.495 479.407 529.495 481.588C529.495 483.769 531.263 485.537 533.443 485.537Z" fill="white"/>
</svg>
