<svg width="305" height="261" viewBox="0 0 305 261" fill="none" xmlns="http://www.w3.org/2000/svg">
<path d="M302.269 48.605H2.4082V258.049H302.269V48.605Z" fill="#353535"/>
<path d="M300.11 50.7652V255.891H4.56743V50.7652H300.11ZM304.429 46.4468H0.249023V260.209H304.429V46.4468Z" fill="white"/>
<path d="M21.2349 70.4156C22.6957 70.4156 23.8799 69.2313 23.8799 67.7705C23.8799 66.3097 22.6957 65.1255 21.2349 65.1255C19.7741 65.1255 18.5898 66.3097 18.5898 67.7705C18.5898 69.2313 19.7741 70.4156 21.2349 70.4156Z" fill="white"/>
<path d="M21.2349 241.804C22.6957 241.804 23.8799 240.62 23.8799 239.159C23.8799 237.698 22.6957 236.514 21.2349 236.514C19.7741 236.514 18.5898 237.698 18.5898 239.159C18.5898 240.62 19.7741 241.804 21.2349 241.804Z" fill="white"/>
<path d="M285.738 70.4156C287.199 70.4156 288.383 69.2313 288.383 67.7705C288.383 66.3097 287.199 65.1255 285.738 65.1255C284.277 65.1255 283.093 66.3097 283.093 67.7705C283.093 69.2313 284.277 70.4156 285.738 70.4156Z" fill="white"/>
<path d="M285.738 241.804C287.199 241.804 288.383 240.62 288.383 239.159C288.383 237.698 287.199 236.514 285.738 236.514C284.277 236.514 283.093 237.698 283.093 239.159C283.093 240.62 284.277 241.804 285.738 241.804Z" fill="white"/>
<path d="M21.7735 39.9704C11.5443 39.9704 3.21777 31.644 3.21777 21.4147C3.21777 11.1854 11.5443 2.85889 21.7735 2.85889H278.855C289.085 2.85889 297.411 11.1854 297.411 21.4147C297.411 31.644 289.085 39.9704 278.855 39.9704H21.7735Z" fill="#353535"/>
<path d="M278.857 4.88203C287.953 4.88203 295.389 12.3178 295.389 21.4135C295.389 30.5092 287.953 37.945 278.857 37.945H21.7754C12.6797 37.945 5.24385 30.5092 5.24385 21.4135C5.24385 12.3178 12.6797 4.88203 21.7754 4.88203H278.857ZM278.857 0.833496H21.7754C10.426 0.833496 1.19531 10.0641 1.19531 21.4135C1.19531 32.7629 10.426 41.9936 21.7754 41.9936H278.857C290.207 41.9936 299.437 32.7629 299.437 21.4135C299.437 10.0641 290.207 0.833496 278.857 0.833496Z" fill="white"/>
</svg>
