<svg width="245" height="365" viewBox="0 0 245 365" fill="none" xmlns="http://www.w3.org/2000/svg">
<path d="M242.471 49.7642H2.76074V362.451H242.471V49.7642Z" fill="#0043FF"/>
<path d="M240.027 52.2046V360.006H5.20214V52.2046H240.027ZM244.913 47.3188H0.316406V364.891H244.913V47.3188Z" fill="white"/>
<path d="M242.471 2.53418H2.76074V51.9941H242.471V2.53418Z" fill="#0043FF"/>
<path d="M240.027 4.97851V49.5527H5.20214V4.97851H240.027ZM244.913 0.0927734H0.316406V54.4384H244.913V0.0927734Z" fill="white"/>
<path d="M226 72.6445C227.412 72.6445 228.557 71.4997 228.557 70.0876C228.557 68.6755 227.412 67.5308 226 67.5308C224.588 67.5308 223.443 68.6755 223.443 70.0876C223.443 71.4997 224.588 72.6445 226 72.6445Z" fill="white"/>
<path d="M226 347.677C227.412 347.677 228.557 346.532 228.557 345.12C228.557 343.708 227.412 342.563 226 342.563C224.588 342.563 223.443 343.708 223.443 345.12C223.443 346.532 224.588 347.677 226 347.677Z" fill="white"/>
<path d="M19.1076 347.677C20.5198 347.677 21.6645 346.532 21.6645 345.12C21.6645 343.708 20.5198 342.563 19.1076 342.563C17.6955 342.563 16.5508 343.708 16.5508 345.12C16.5508 346.532 17.6955 347.677 19.1076 347.677Z" fill="white"/>
<path d="M19.1076 74.2397C20.5198 74.2397 21.6645 73.095 21.6645 71.6828C21.6645 70.2707 20.5198 69.126 19.1076 69.126C17.6955 69.126 16.5508 70.2707 16.5508 71.6828C16.5508 73.095 17.6955 74.2397 19.1076 74.2397Z" fill="white"/>
</svg>
