<svg width="549" height="460" viewBox="0 0 549 460" fill="none" xmlns="http://www.w3.org/2000/svg">
<path d="M544.251 83.1499H3.84424V455.9H544.251V83.1499Z" fill="#009B00"/>
<path d="M540.406 86.9933V452.056H7.68715V86.9933H540.406ZM548.094 79.3062H0V459.743H548.094V79.3062Z" fill="white"/>
<path d="M544.251 3.84375H3.84424V81.7914H544.251V3.84375Z" fill="#009B00"/>
<path d="M540.406 7.68715V77.9477H7.68715V7.68715H540.406ZM548.094 0H0V85.6348H548.094V0Z" fill="white"/>
<path d="M370.547 278.096L356.044 263.593C365.346 254.291 370.47 241.915 370.47 228.744C370.47 215.573 365.346 203.197 356.044 193.896C346.743 184.594 334.366 179.47 321.196 179.47C308.025 179.47 295.649 184.594 286.347 193.896L271.844 179.393C285.015 166.222 302.542 158.945 321.196 158.945C339.85 158.945 357.351 166.196 370.547 179.393C397.76 206.605 397.76 250.883 370.547 278.096Z" fill="white"/>
<path d="M168.298 406.599C121.919 406.599 84.2007 368.881 84.2007 322.501H104.7C104.7 357.58 133.245 386.1 168.298 386.1C203.351 386.1 231.896 357.555 231.896 322.501H252.395C252.395 368.881 214.677 406.599 168.298 406.599Z" fill="white"/>
<path d="M443.883 397.092V376.592C458.617 376.592 470.583 364.601 470.583 349.892C470.583 335.184 458.591 323.192 443.883 323.192V302.693C469.917 302.693 491.082 323.859 491.082 349.892C491.082 375.926 469.917 397.092 443.883 397.092Z" fill="white"/>
<path d="M156.792 310.433H136.293V171.423H126.761L70.6195 260.056L53.2979 249.089L115.487 150.924H156.792V310.433Z" fill="white"/>
<path d="M443.523 134.885H423.024V305.181H443.523V134.885Z" fill="white"/>
<path d="M485.827 134.885H465.328V331.189H485.827V134.885Z" fill="white"/>
<path d="M273.253 203.863H202.762V224.362H273.253V203.863Z" fill="white"/>
<path d="M221.724 145.415H201.225V310.432H221.724V145.415Z" fill="white"/>
<path d="M380.118 137.067L291.258 254.817L307.621 267.165L396.481 149.415L380.118 137.067Z" fill="white"/>
<path d="M470.842 199.399L429.495 240.746L443.99 255.241L485.337 213.894L470.842 199.399Z" fill="white"/>
<path d="M446.24 302.721H294.624V323.22H446.24V302.721Z" fill="white"/>
<path d="M38.1805 121.868C40.9542 121.868 43.2027 119.619 43.2027 116.846C43.2027 114.072 40.9542 111.823 38.1805 111.823C35.4067 111.823 33.1582 114.072 33.1582 116.846C33.1582 119.619 35.4067 121.868 38.1805 121.868Z" fill="white"/>
<path d="M510.555 121.868C513.329 121.868 515.578 119.619 515.578 116.846C515.578 114.072 513.329 111.823 510.555 111.823C507.782 111.823 505.533 114.072 505.533 116.846C505.533 119.619 507.782 121.868 510.555 121.868Z" fill="white"/>
<path d="M38.1805 428.277C40.9542 428.277 43.2027 426.028 43.2027 423.255C43.2027 420.481 40.9542 418.232 38.1805 418.232C35.4067 418.232 33.1582 420.481 33.1582 423.255C33.1582 426.028 35.4067 428.277 38.1805 428.277Z" fill="white"/>
<path d="M510.555 428.277C513.329 428.277 515.578 426.028 515.578 423.255C515.578 420.481 513.329 418.232 510.555 418.232C507.782 418.232 505.533 420.481 505.533 423.255C505.533 426.028 507.782 428.277 510.555 428.277Z" fill="white"/>
<path d="M41.8696 285.937L83.2521 264.131L43.6889 239.199L41.8696 285.937Z" fill="white"/>
<path d="M212.575 120.765L189.181 161.276H235.97L212.575 120.765Z" fill="white"/>
<path d="M408.495 386.074L449.006 409.469V362.705L408.495 386.074Z" fill="white"/>
<path d="M403.166 126.274L360.041 144.39L397.272 172.679L403.166 126.274Z" fill="white"/>
<path d="M39 56.6027H32.7734V30.082H39V56.6027Z" fill="white"/>
<path d="M49.199 56.6034H42.998V36.7194H48.8659V40.3323H49.0965C49.9934 37.9237 52.2226 36.4375 55.1438 36.4375C59.3461 36.4375 62.0366 39.4099 62.0366 43.9197V56.6034H55.8868V45.0983C55.8868 42.8691 54.6825 41.5366 52.6326 41.511C50.5827 41.511 49.2247 42.8947 49.2247 45.2008V56.5778L49.199 56.6034Z" fill="white"/>
<path d="M77.0525 41.2542H73.2858V56.6029H67.0848V41.2542H64.3687V36.7188H67.0848V35.617C67.0848 31.1072 69.7241 28.8267 73.8495 28.8267C75.2588 28.8267 76.335 28.9548 77.4112 29.1598V33.7464C76.5656 33.6696 76.0019 33.6439 75.72 33.6439C74.157 33.6439 73.2601 34.2589 73.2601 35.7707V36.7188H77.0268V41.2542H77.0525Z" fill="white"/>
<path d="M78.6143 46.7119C78.6143 40.5878 82.4066 36.4624 88.6076 36.4624C94.8085 36.4624 98.6008 40.5878 98.6008 46.7119C98.6008 52.836 94.8342 56.9615 88.6076 56.9615C82.381 56.9615 78.6143 52.836 78.6143 46.7119ZM88.6588 52.3235C91.0162 52.3235 92.3486 50.0174 92.323 46.6863C92.323 43.3808 91.0162 41.0747 88.6588 41.049C86.2246 41.049 84.8921 43.3808 84.9177 46.6863C84.9177 50.0174 86.2246 52.2979 88.6588 52.3235Z" fill="white"/>
<path d="M101.803 36.7191H107.799V40.3065H107.978C108.721 37.6928 110.464 36.4372 112.667 36.4116C113.231 36.4116 113.923 36.5141 114.436 36.6422V42.0232C113.846 41.8439 112.744 41.7158 111.976 41.7414C109.669 41.7414 107.953 43.3301 107.978 45.7387V56.6032H101.777V36.7191H101.803Z" fill="white"/>
<path d="M116.923 36.7194H122.79V40.3323H123.021C123.867 37.9237 125.942 36.4375 128.658 36.4375C131.374 36.4375 133.501 37.9493 134.039 40.3323H134.27C135.039 37.9749 137.345 36.4375 140.266 36.4375C144.007 36.4375 146.595 38.9743 146.595 43.1766V56.5778H140.394V44.5602C140.394 42.536 139.241 41.4598 137.575 41.4598C135.807 41.4598 134.731 42.7153 134.731 44.6371V56.5778H128.786V44.4834C128.786 42.6128 127.659 41.4341 125.993 41.4341C124.328 41.4341 123.072 42.741 123.098 44.7652V56.5522H116.897V36.6681L116.923 36.7194Z" fill="white"/>
<path d="M156.922 44.8668C158.357 44.7643 160.843 44.6874 161.688 44.6362V43.0219C161.688 41.6382 160.663 40.8438 158.972 40.8695C157.332 40.8695 156.281 41.5869 156.051 42.8937H150.311C150.593 39.3833 153.565 36.4878 159.126 36.4878C164.046 36.4878 167.863 38.8196 167.889 43.1244V56.6281H162.072V53.8351H161.919C160.843 55.8594 158.921 56.9612 156.128 56.9869C152.31 56.9869 149.542 55.0395 149.568 51.0934C149.568 46.6861 152.976 45.0974 156.922 44.8668ZM157.998 52.8614C160.099 52.8614 161.765 51.4777 161.739 49.5303V48.2491C160.996 48.2491 158.895 48.3772 157.973 48.4797C156.41 48.6335 155.436 49.5047 155.436 50.8115C155.436 52.144 156.487 52.8614 157.998 52.8614Z" fill="white"/>
<path d="M182.751 41.2546H179.112V50.3767C179.112 51.6322 179.753 52.0166 180.803 52.0166C181.316 52.0422 182.315 52.0166 183.007 51.9397V56.6545C182.392 56.757 181.367 56.8595 179.932 56.8851C175.55 56.8851 172.937 55.0658 172.962 51.0685V41.2546H170.297V36.7192H172.962V31.9531H179.112V36.7192H182.751V41.2546Z" fill="white"/>
<path d="M189.054 28.4169C190.822 28.4169 192.257 29.7237 192.283 31.3892C192.283 33.0292 190.848 34.3616 189.054 34.3616C187.261 34.3616 185.877 33.0548 185.877 31.3892C185.877 29.7237 187.312 28.3912 189.054 28.4169ZM185.928 36.719H192.129V56.6031H185.928V36.719Z" fill="white"/>
<path d="M195.305 46.7119C195.305 40.5878 199.097 36.4624 205.298 36.4624C211.499 36.4624 215.292 40.5878 215.292 46.7119C215.292 52.836 211.525 56.9615 205.298 56.9615C199.072 56.9615 195.305 52.836 195.305 46.7119ZM205.35 52.3235C207.707 52.3235 209.04 50.0174 209.014 46.6863C209.014 43.3808 207.707 41.0747 205.35 41.049C202.915 41.049 201.583 43.3808 201.609 46.6863C201.609 50.0174 202.915 52.2979 205.35 52.3235Z" fill="white"/>
<path d="M224.698 56.6034H218.497V36.7194H224.365V40.3323H224.596C225.492 37.9237 227.722 36.4375 230.643 36.4375C234.845 36.4375 237.536 39.4099 237.536 43.9197V56.6034H231.386V45.0983C231.386 42.8691 230.182 41.5366 228.132 41.511C226.082 41.511 224.724 42.8947 224.724 45.2008V56.5778L224.698 56.6034Z" fill="white"/>
</svg>
