<svg width="158" height="133" viewBox="0 0 158 133" fill="none" xmlns="http://www.w3.org/2000/svg">
<path d="M156.863 23.9651H1.10803V131.399H156.863V23.9651Z" fill="#009B00"/>
<path d="M155.755 25.0732V130.291H2.21558V25.0732H155.755ZM157.971 22.8576H0V132.507H157.971V22.8576Z" fill="white"/>
<path d="M156.863 1.10742H1.10803V23.5734H156.863V1.10742Z" fill="#009B00"/>
<path d="M155.755 2.21587V22.4662H2.21558V2.21587H155.755ZM157.971 0.000289917H0V24.6818H157.971V0.000289917Z" fill="white"/>
<path d="M106.798 80.1523L102.618 75.9722C105.298 73.2914 106.775 69.7243 106.775 65.9283C106.775 62.1323 105.298 58.5652 102.618 55.8843C99.9367 53.2035 96.3696 51.7264 92.5736 51.7264C88.7776 51.7264 85.2105 53.2035 82.5297 55.8843L78.3496 51.7043C82.1456 47.9082 87.1972 45.8108 92.5736 45.8108C97.9501 45.8108 102.994 47.9009 106.798 51.7043C114.641 59.5474 114.641 72.3091 106.798 80.1523Z" fill="white"/>
<path d="M48.5068 117.19C35.1395 117.19 24.2684 106.318 24.2684 92.9511H30.1766C30.1766 103.062 38.4038 111.281 48.5068 111.281C58.6099 111.281 66.8371 103.054 66.8371 92.9511H72.7453C72.7453 106.318 61.8742 117.19 48.5068 117.19Z" fill="white"/>
<path d="M127.935 114.45V108.542C132.181 108.542 135.63 105.086 135.63 100.847C135.63 96.6074 132.174 93.1511 127.935 93.1511V87.2429C135.438 87.2429 141.538 93.3431 141.538 100.847C141.538 108.35 135.438 114.45 127.935 114.45Z" fill="white"/>
<path d="M45.1904 89.4723H39.2822V49.4072H36.5349L20.3538 74.9528L15.3613 71.792L33.2854 43.499H45.1904V89.4723Z" fill="white"/>
<path d="M127.831 38.8761H121.923V87.9585H127.831V38.8761Z" fill="white"/>
<path d="M140.024 38.8761H134.116V95.4546H140.024V38.8761Z" fill="white"/>
<path d="M78.7573 58.7576H58.4404V64.6658H78.7573V58.7576Z" fill="white"/>
<path d="M63.9047 41.9114H57.9965V89.4725H63.9047V41.9114Z" fill="white"/>
<path d="M109.558 39.5056L83.9465 73.4433L88.6626 77.0022L114.274 43.0646L109.558 39.5056Z" fill="white"/>
<path d="M135.705 57.4706L123.788 69.3876L127.965 73.5654L139.882 61.6484L135.705 57.4706Z" fill="white"/>
<path d="M128.614 87.2496H84.9158V93.1578H128.614V87.2496Z" fill="white"/>
<path d="M11.0044 35.1244C11.8038 35.1244 12.4519 34.4763 12.4519 33.6769C12.4519 32.8775 11.8038 32.2294 11.0044 32.2294C10.205 32.2294 9.55688 32.8775 9.55688 33.6769C9.55688 34.4763 10.205 35.1244 11.0044 35.1244Z" fill="white"/>
<path d="M147.151 35.1244C147.951 35.1244 148.599 34.4763 148.599 33.6769C148.599 32.8775 147.951 32.2294 147.151 32.2294C146.352 32.2294 145.704 32.8775 145.704 33.6769C145.704 34.4763 146.352 35.1244 147.151 35.1244Z" fill="white"/>
<path d="M11.0044 123.438C11.8038 123.438 12.4519 122.789 12.4519 121.99C12.4519 121.191 11.8038 120.542 11.0044 120.542C10.205 120.542 9.55688 121.191 9.55688 121.99C9.55688 122.789 10.205 123.438 11.0044 123.438Z" fill="white"/>
<path d="M147.151 123.438C147.951 123.438 148.599 122.789 148.599 121.99C148.599 121.191 147.951 120.542 147.151 120.542C146.352 120.542 145.704 121.191 145.704 121.99C145.704 122.789 146.352 123.438 147.151 123.438Z" fill="white"/>
<path d="M12.0674 82.4126L23.9946 76.1277L12.5917 68.9419L12.0674 82.4126Z" fill="white"/>
<path d="M61.2679 34.8067L54.5251 46.4828H68.0106L61.2679 34.8067Z" fill="white"/>
<path d="M117.735 111.274L129.411 118.016V104.538L117.735 111.274Z" fill="white"/>
<path d="M116.2 36.394L103.77 41.6154L114.501 49.7687L116.2 36.394Z" fill="white"/>
<path d="M11.241 16.3142H9.44635V8.67047H11.241V16.3142Z" fill="white"/>
<path d="M14.1796 16.3147H12.3923V10.5838H14.0836V11.6251H14.15C14.4085 10.9309 15.051 10.5025 15.893 10.5025C17.1041 10.5025 17.8796 11.3592 17.8796 12.659V16.3147H16.1071V12.9988C16.1071 12.3562 15.76 11.9722 15.1692 11.9648C14.5784 11.9648 14.187 12.3636 14.187 13.0283V16.3074L14.1796 16.3147Z" fill="white"/>
<path d="M22.2092 11.8907H21.1236V16.3145H19.3364V11.8907H18.5535V10.5835H19.3364V10.266C19.3364 8.96617 20.0971 8.30888 21.2861 8.30888C21.6923 8.30888 22.0025 8.34581 22.3126 8.40489V9.72685C22.0689 9.7047 21.9064 9.69731 21.8252 9.69731C21.3747 9.69731 21.1162 9.87456 21.1162 10.3103V10.5835H22.2018V11.8907H22.2092Z" fill="white"/>
<path d="M22.6583 13.4637C22.6583 11.6986 23.7513 10.5096 25.5385 10.5096C27.3258 10.5096 28.4188 11.6986 28.4188 13.4637C28.4188 15.2288 27.3331 16.4178 25.5385 16.4178C23.7439 16.4178 22.6583 15.2288 22.6583 13.4637ZM25.5533 15.0811C26.2327 15.0811 26.6168 14.4164 26.6094 13.4563C26.6094 12.5036 26.2327 11.839 25.5533 11.8316C24.8517 11.8316 24.4677 12.5036 24.475 13.4563C24.475 14.4164 24.8517 15.0737 25.5533 15.0811Z" fill="white"/>
<path d="M29.3414 10.5829H31.0696V11.6168H31.1213C31.3354 10.8635 31.8376 10.5016 32.4728 10.4942C32.6353 10.4942 32.8347 10.5238 32.9824 10.5607V12.1116C32.8125 12.0599 32.4949 12.023 32.2734 12.0304C31.6087 12.0304 31.1139 12.4883 31.1213 13.1825V16.3138H29.334V10.5829H29.3414Z" fill="white"/>
<path d="M33.6989 10.5838H35.3901V11.6251H35.4565C35.7003 10.9309 36.2985 10.5025 37.0813 10.5025C37.8641 10.5025 38.4771 10.9383 38.6322 11.6251H38.6987C38.9202 10.9457 39.5849 10.5025 40.4268 10.5025C41.5051 10.5025 42.251 11.2337 42.251 12.4449V16.3074H40.4637V12.8437C40.4637 12.2602 40.1314 11.9501 39.6514 11.9501C39.1418 11.9501 38.8316 12.3119 38.8316 12.8658V16.3074H37.1182V12.8215C37.1182 12.2824 36.7933 11.9427 36.3132 11.9427C35.8332 11.9427 35.4713 12.3193 35.4787 12.9028V16.3H33.6915V10.569L33.6989 10.5838Z" fill="white"/>
<path d="M45.2275 12.9317C45.6411 12.9021 46.3575 12.88 46.6012 12.8652V12.3999C46.6012 12.0011 46.3058 11.7722 45.8184 11.7796C45.3457 11.7796 45.0429 11.9864 44.9764 12.363H43.3221C43.4034 11.3512 44.2601 10.5167 45.8627 10.5167C47.2806 10.5167 48.381 11.1888 48.3884 12.4295V16.3215H46.712V15.5165H46.6677C46.3575 16.1 45.8036 16.4175 44.9986 16.4249C43.8982 16.4249 43.1006 15.8636 43.108 14.7263C43.108 13.456 44.0902 12.9981 45.2275 12.9317ZM45.5377 15.2359C46.1433 15.2359 46.6233 14.8371 46.616 14.2758V13.9065C46.4018 13.9065 45.7962 13.9435 45.5303 13.973C45.0798 14.0173 44.7992 14.2684 44.7992 14.6451C44.7992 15.0291 45.102 15.2359 45.5377 15.2359Z" fill="white"/>
<path d="M52.6722 11.8908H51.6235V14.52C51.6235 14.8818 51.8081 14.9926 52.1109 14.9926C52.2586 15 52.5466 14.9926 52.746 14.9705V16.3294C52.5688 16.3589 52.2734 16.3884 51.8598 16.3958C50.5969 16.3958 49.8436 15.8715 49.851 14.7194V11.8908H49.0829V10.5836H49.851V9.20996H51.6235V10.5836H52.6722V11.8908Z" fill="white"/>
<path d="M54.4883 8.19053C54.9979 8.19053 55.4115 8.56718 55.4189 9.04722C55.4189 9.51988 55.0053 9.90391 54.4883 9.90391C53.9714 9.90391 53.5726 9.52727 53.5726 9.04722C53.5726 8.56718 53.9861 8.18315 54.4883 8.19053ZM53.5873 10.5834H55.3746V16.3143H53.5873V10.5834Z" fill="white"/>
<path d="M56.2907 13.4637C56.2907 11.6986 57.3837 10.5096 59.171 10.5096C60.9582 10.5096 62.0512 11.6986 62.0512 13.4637C62.0512 15.2288 60.9656 16.4178 59.171 16.4178C57.3763 16.4178 56.2907 15.2288 56.2907 13.4637ZM59.1857 15.0811C59.8652 15.0811 60.2492 14.4164 60.2418 13.4563C60.2418 12.5036 59.8652 11.839 59.1857 11.8316C58.4841 11.8316 58.1001 12.5036 58.1075 13.4563C58.1075 14.4164 58.4841 15.0737 59.1857 15.0811Z" fill="white"/>
<path d="M64.7621 16.3147H62.9749V10.5838H64.6661V11.6251H64.7325C64.991 10.9309 65.6336 10.5025 66.4755 10.5025C67.6867 10.5025 68.4621 11.3592 68.4621 12.659V16.3147H66.6896V12.9988C66.6896 12.3562 66.3425 11.9722 65.7517 11.9648C65.1609 11.9648 64.7695 12.3636 64.7695 13.0283V16.3074L64.7621 16.3147Z" fill="white"/>
</svg>
