<svg width="583" height="529" viewBox="0 0 583 529" fill="none" xmlns="http://www.w3.org/2000/svg">
<path d="M234.172 492.484L91.2197 349.531V147.398L234.172 4.44531H436.305L579.258 147.398V349.531L436.305 492.484H234.172Z" fill="#F2FF29"/>
<path d="M434.76 8.18689L575.518 148.945V347.986L434.76 488.743H235.72L94.9619 347.986V148.945L235.72 8.18689H434.76ZM437.853 0.705078H232.602L230.408 2.89973L89.6498 143.657L87.4551 145.852V351.103L89.6498 353.298L230.408 494.056L232.602 496.25H437.853L440.048 494.056L580.806 353.298L583 351.103V145.852L580.806 143.657L440.048 2.89973L437.853 0.705078Z" fill="black"/>
<path d="M146.885 524.905L3.93262 381.953V179.819L146.885 36.8667H349.018L491.971 179.819V381.953L349.018 524.905H146.885Z" fill="#F2FF29"/>
<path d="M347.471 40.6078L488.229 181.366V380.407L347.471 521.164H148.431L7.67279 380.407V181.366L148.431 40.6078H347.471ZM350.564 33.126H145.313L143.118 35.3206L2.36069 176.078L0.166016 178.273V383.524L2.36069 385.719L143.118 526.476L145.313 528.671H350.564L352.759 526.476L493.516 385.719L495.711 383.524V178.273L493.516 176.078L352.759 35.3206L350.564 33.126Z" fill="black"/>
<path d="M247.939 76.4959C250.349 76.4959 252.303 74.5419 252.303 72.1315C252.303 69.7211 250.349 67.7671 247.939 67.7671C245.528 67.7671 243.574 69.7211 243.574 72.1315C243.574 74.5419 245.528 76.4959 247.939 76.4959Z" fill="black"/>
<path d="M247.939 498.719C250.349 498.719 252.303 496.765 252.303 494.354C252.303 491.944 250.349 489.99 247.939 489.99C245.528 489.99 243.574 491.944 243.574 494.354C243.574 496.765 245.528 498.719 247.939 498.719Z" fill="black"/>
<path d="M147.134 417.79C103.515 417.79 68.0264 382.301 68.0264 338.682C68.0264 295.063 103.515 259.575 147.134 259.575C190.753 259.575 226.242 295.063 226.242 338.682C226.242 382.301 190.753 417.79 147.134 417.79ZM147.134 279.526C114.513 279.526 87.9779 306.062 87.9779 338.682C87.9779 371.303 114.513 397.839 147.134 397.839C179.755 397.839 206.29 371.303 206.29 338.682C206.29 306.062 179.755 279.526 147.134 279.526Z" fill="black"/>
<path d="M271.057 273.815V253.864C296.87 253.864 315.624 235.06 315.624 209.173C315.624 185.854 298.54 171.389 271.057 171.389H248.911V151.438H271.057C309.638 151.438 335.575 174.632 335.575 209.173C335.575 246.033 307.843 273.815 271.057 273.815Z" fill="black"/>
<path d="M214.994 270.923L152.296 167.225H141.298L79.1738 270.873L62.0654 260.598L130 147.273H163.544L232.052 260.598L214.994 270.923Z" fill="black"/>
<path d="M374.829 148.969H354.878V283.217H374.829V148.969Z" fill="black"/>
<path d="M419.82 148.969H399.868V283.217H419.82V148.969Z" fill="black"/>
<path d="M236.366 275.866L49.4561 384.476L59.48 401.726L246.39 293.117L236.366 275.866Z" fill="black"/>
<path d="M384.082 387.34H355.427V367.388H384.082C408.947 367.388 410.518 348.983 410.568 345.292C410.568 335.142 406.727 328.433 398.447 324.293C391.439 320.776 384.007 320.602 383.932 320.602H259.959V300.65H384.057C385.304 300.65 395.804 300.9 406.603 306.087C422.015 313.494 430.494 327.435 430.494 345.392C430.494 347.112 430.195 362.824 418.199 374.845C409.894 383.175 398.397 387.389 384.032 387.389L384.082 387.34Z" fill="black"/>
<path d="M401.942 189.715L356.941 248.044L372.738 260.231L417.739 201.902L401.942 189.715Z" fill="black"/>
<path d="M229.708 161.488L269.137 184.258V138.719L229.708 161.488Z" fill="black"/>
<path d="M329.467 378.461L368.896 401.23V355.691L329.467 378.461Z" fill="black"/>
<path d="M397.125 48.489L392.836 44.1995L411.091 25.9438L415.381 30.2334L397.125 48.489Z" fill="black"/>
<path d="M404.133 55.4964L399.868 51.2317L413.56 37.54L417.6 41.5802L415.106 44.0741L415.256 44.2238C417.525 43.2013 420.069 43.7001 422.089 45.7201C424.982 48.6131 424.808 52.5036 421.69 55.5961L412.961 64.3249L408.722 60.0852L416.627 52.1794C418.174 50.6332 418.249 48.8874 416.852 47.4659C415.43 46.0693 413.56 46.0693 411.964 47.6654L404.133 55.4964Z" fill="black"/>
<path d="M433.886 64.1255L431.292 61.5319L420.743 72.0812L416.479 67.8166L427.028 57.2672L425.157 55.3968L428.275 52.2794L430.145 54.1498L430.894 53.4016C433.986 50.3091 437.378 50.5585 440.221 53.4016C441.193 54.3743 441.842 55.1973 442.44 56.0701L439.298 59.2125C438.774 58.589 438.4 58.19 438.201 57.9905C437.128 56.943 436.081 56.6936 435.058 57.766L434.41 58.4144L437.004 61.0081L433.886 64.1255Z" fill="black"/>
<path d="M431.193 68.9382C435.407 64.7235 440.869 64.499 445.134 68.7637C449.398 73.0283 449.174 78.49 444.959 82.7048C440.744 86.9195 435.307 87.1689 431.018 82.8794C426.728 78.5898 426.978 73.153 431.193 68.9382ZM434.235 79.7121C435.881 81.3331 438.35 80.6598 440.644 78.3404C442.939 76.0709 443.612 73.577 442.016 71.931C440.32 70.26 437.826 70.9583 435.557 73.2528C433.263 75.5222 432.589 78.0162 434.235 79.7121Z" fill="black"/>
<path d="M454.036 78.0171L458.176 82.157L455.707 84.626L455.832 84.7507C458.127 83.4539 460.197 83.803 461.743 85.2994C462.117 85.6984 462.516 86.2221 462.79 86.6711L459.074 90.387C458.8 89.8633 458.127 88.9904 457.578 88.4916C456.007 86.8955 453.712 86.8207 452.091 88.4916L444.61 95.9734L440.345 91.7088L454.036 78.0171Z" fill="black"/>
<path d="M464.437 88.4409L468.477 92.4811L465.983 94.9751L466.133 95.1247C468.377 94.0523 470.796 94.4513 472.692 96.3467C474.587 98.2421 474.986 100.711 473.714 102.731L473.864 102.881C476.009 101.784 478.652 102.332 480.672 104.352C483.241 106.921 483.291 110.462 480.398 113.355L471.171 122.583L466.906 118.318L475.186 110.038C476.607 108.642 476.532 107.096 475.385 105.948C474.163 104.726 472.542 104.851 471.22 106.173L462.99 114.403L458.9 110.313L467.23 101.983C468.502 100.711 468.552 99.115 467.405 97.9678C466.258 96.8206 464.512 96.8455 463.115 98.2671L455.01 106.372L450.745 102.108L464.437 88.416V88.4409Z" fill="black"/>
<path d="M486.384 121.561C487.431 122.483 489.202 124.129 489.8 124.678L490.897 123.581C491.845 122.633 491.695 121.386 490.523 120.214C489.401 119.092 488.179 118.842 487.107 119.591L483.141 115.625C485.76 113.406 489.775 113.43 493.641 117.296C497.007 120.663 498.055 124.903 495.112 127.895L485.81 137.198L481.794 133.182L483.715 131.262L483.615 131.162C481.495 131.811 479.4 131.262 477.455 129.342C474.836 126.698 474.288 123.481 477.006 120.763C480.024 117.72 483.466 118.992 486.359 121.536L486.384 121.561ZM481.595 127.82C483.042 129.267 485.111 129.466 486.458 128.095L487.331 127.222C486.807 126.723 485.286 125.351 484.588 124.778C483.391 123.83 482.119 123.73 481.246 124.653C480.323 125.551 480.573 126.798 481.595 127.82Z" fill="black"/>
<path d="M506.609 136.849L504.115 134.355L497.831 140.64C496.983 141.513 497.157 142.211 497.831 142.934C498.155 143.308 498.878 143.957 499.402 144.406L496.16 147.648C495.686 147.299 494.888 146.675 493.89 145.678C490.898 142.66 490.324 139.617 493.117 136.874L499.875 130.115L498.03 128.27L501.147 125.152L502.993 126.998L506.26 123.731L510.5 127.971L507.233 131.238L509.727 133.732L506.609 136.849Z" fill="black"/>
<path d="M519.803 132.335C521.025 133.557 521.1 135.452 519.978 136.6C518.83 137.722 516.935 137.647 515.713 136.425C514.491 135.203 514.416 133.332 515.563 132.185C516.71 131.038 518.606 131.113 519.803 132.335ZM511.922 135.926L516.187 140.191L502.495 153.883L498.23 149.618L511.922 135.926Z" fill="black"/>
<path d="M511.497 149.268C515.712 145.054 521.173 144.829 525.438 149.094C529.703 153.358 529.478 158.82 525.264 163.035C521.049 167.25 515.612 167.499 511.323 163.209C507.033 158.92 507.282 153.483 511.497 149.268ZM514.565 160.017C516.211 161.638 518.68 160.965 520.974 158.646C523.269 156.376 523.942 153.882 522.346 152.236C520.65 150.565 518.156 151.263 515.886 153.558C513.592 155.827 512.919 158.321 514.565 160.017Z" fill="black"/>
<path d="M524.915 176.278L520.65 172.013L534.342 158.322L538.382 162.362L535.888 164.856L536.038 165.006C538.307 163.983 540.851 164.482 542.871 166.502C545.764 169.395 545.59 173.285 542.472 176.378L533.744 185.107L529.504 180.867L537.41 172.961C538.956 171.415 539.031 169.669 537.634 168.248C536.212 166.851 534.342 166.851 532.746 168.447L524.915 176.278Z" fill="black"/>
</svg>
