<svg width="185" height="168" viewBox="0 0 185 168" fill="none" xmlns="http://www.w3.org/2000/svg">
<path d="M74.5225 155.971L29.2477 110.697V46.6784L74.5225 1.40359H138.541L183.816 46.6784V110.697L138.541 155.971H74.5225Z" fill="#F2FF29"/>
<path d="M138.051 2.58873L182.63 47.1685V110.207L138.051 154.787H75.0119L30.4322 110.207V47.1685L75.0119 2.58873H138.051ZM139.03 0.219147H74.0246L73.3295 0.914222L28.7498 45.494L28.0547 46.1891V111.195L28.7498 111.89L73.3295 156.469L74.0246 157.165H139.03L139.725 156.469L184.305 111.89L185 111.195V46.1891L184.305 45.494L139.725 0.914222L139.03 0.219147Z" fill="black"/>
<path d="M46.877 166.24L1.60217 120.965V56.9466L46.877 11.6718H110.895L156.17 56.9466V120.965L110.895 166.24H46.877Z" fill="#F2FF29"/>
<path d="M110.406 12.8576L154.986 57.4373V120.476L110.406 165.056H47.3674L2.78765 120.476V57.4373L47.3674 12.8576H110.406ZM111.386 10.488H46.3801L45.685 11.1831L1.10524 55.7628L0.410156 56.4579V121.463L1.10524 122.159L45.685 166.738L46.3801 167.433H111.386L112.081 166.738L156.66 122.159L157.356 121.463V56.4579L156.66 55.7628L112.081 11.1831L111.386 10.488Z" fill="black"/>
<path d="M78.8823 24.223C79.6457 24.223 80.2645 23.6042 80.2645 22.8408C80.2645 22.0774 79.6457 21.4585 78.8823 21.4585C78.1189 21.4585 77.5 22.0774 77.5 22.8408C77.5 23.6042 78.1189 24.223 78.8823 24.223Z" fill="black"/>
<path d="M78.8823 157.947C79.6457 157.947 80.2645 157.328 80.2645 156.564C80.2645 155.801 79.6457 155.182 78.8823 155.182C78.1189 155.182 77.5 155.801 77.5 156.564C77.5 157.328 78.1189 157.947 78.8823 157.947Z" fill="black"/>
<path d="M46.9577 132.316C33.1431 132.316 21.9033 121.076 21.9033 107.261C21.9033 93.4468 33.1431 82.207 46.9577 82.207C60.7724 82.207 72.0121 93.4468 72.0121 107.261C72.0121 121.076 60.7724 132.316 46.9577 132.316ZM46.9577 88.5259C36.6264 88.5259 28.2222 96.93 28.2222 107.261C28.2222 117.593 36.6264 125.997 46.9577 125.997C57.2891 125.997 65.6932 117.593 65.6932 107.261C65.6932 96.93 57.2891 88.5259 46.9577 88.5259Z" fill="black"/>
<path d="M86.2056 86.7169V80.398C94.3807 80.398 100.32 74.4424 100.32 66.2437C100.32 58.8585 94.9099 54.2773 86.2056 54.2773H79.1917V47.9584H86.2056C98.4248 47.9584 106.639 55.3041 106.639 66.2437C106.639 77.9178 97.8561 86.7169 86.2056 86.7169Z" fill="black"/>
<path d="M68.4487 85.8007L48.5916 52.9582H45.1083L25.4328 85.7849L20.0144 82.5306L41.5302 46.6393H52.1539L73.8514 82.5306L68.4487 85.8007Z" fill="black"/>
<path d="M119.071 47.175H112.752V89.6933H119.071V47.175Z" fill="black"/>
<path d="M133.32 47.175H127.001V89.6933H133.32V47.175Z" fill="black"/>
<path d="M75.2182 87.3671L16.0215 121.765L19.1962 127.229L78.3929 92.8306L75.2182 87.3671Z" fill="black"/>
<path d="M122.001 122.671H112.926V116.352H122.001C129.876 116.352 130.374 110.523 130.39 109.354C130.39 106.139 129.173 104.014 126.551 102.703C124.331 101.589 121.978 101.534 121.954 101.534H82.6899V95.2152H121.993C122.388 95.2152 125.714 95.2942 129.134 96.9371C134.015 99.283 136.701 103.698 136.701 109.385C136.701 109.93 136.606 114.906 132.807 118.714C130.176 121.352 126.535 122.687 121.986 122.687L122.001 122.671Z" fill="black"/>
<path d="M127.658 60.0812L113.406 78.5548L118.409 82.4146L132.661 63.941L127.658 60.0812Z" fill="black"/>
<path d="M73.1089 51.1405L85.5966 58.352V43.9291L73.1089 51.1405Z" fill="black"/>
<path d="M104.705 119.859L117.192 127.07V112.648L104.705 119.859Z" fill="black"/>
<path d="M126.132 15.3532L124.773 13.9946L130.555 8.21283L131.914 9.57139L126.132 15.3532Z" fill="black"/>
<path d="M128.352 17.5721L127.001 16.2215L131.338 11.8851L132.617 13.1647L131.827 13.9546L131.875 14.002C132.594 13.6781 133.399 13.8361 134.039 14.4759C134.955 15.3921 134.9 16.6243 133.913 17.6037L131.148 20.3683L129.805 19.0255L132.309 16.5216C132.799 16.0319 132.823 15.479 132.38 15.0288C131.93 14.5865 131.338 14.5865 130.832 15.092L128.352 17.5721Z" fill="black"/>
<path d="M137.776 20.3052L136.954 19.4837L133.613 22.8249L132.262 21.4742L135.604 18.1331L135.011 17.5407L135.998 16.5534L136.591 17.1458L136.828 16.9088C137.807 15.9294 138.882 16.0084 139.782 16.9088C140.09 17.2168 140.295 17.4775 140.485 17.7539L139.49 18.7492C139.324 18.5517 139.205 18.4253 139.142 18.3621C138.802 18.0304 138.471 17.9514 138.147 18.2911L137.942 18.4964L138.763 19.3179L137.776 20.3052Z" fill="black"/>
<path d="M136.923 21.8302C138.258 20.4953 139.988 20.4242 141.338 21.7749C142.689 23.1255 142.618 24.8553 141.283 26.1902C139.948 27.5251 138.226 27.6041 136.868 26.2455C135.509 24.8869 135.588 23.165 136.923 21.8302ZM137.887 25.2424C138.408 25.7558 139.19 25.5425 139.916 24.8079C140.643 24.0892 140.856 23.2993 140.351 22.778C139.814 22.2488 139.024 22.47 138.305 23.1966C137.579 23.9154 137.365 24.7053 137.887 25.2424Z" fill="black"/>
<path d="M144.158 24.7047L145.469 26.0158L144.687 26.7978L144.726 26.8373C145.453 26.4266 146.109 26.5371 146.598 27.011C146.717 27.1374 146.843 27.3033 146.93 27.4455L145.753 28.6224C145.666 28.4565 145.453 28.18 145.279 28.0221C144.782 27.5166 144.055 27.4929 143.542 28.0221L141.172 30.3917L139.821 29.041L144.158 24.7047Z" fill="black"/>
<path d="M147.45 28.0069L148.73 29.2865L147.94 30.0764L147.988 30.1237C148.698 29.7841 149.465 29.9105 150.065 30.5108C150.665 31.1111 150.792 31.893 150.389 32.5328L150.436 32.5802C151.115 32.2327 151.953 32.4064 152.592 33.0462C153.406 33.8598 153.422 34.9814 152.506 35.8976L149.583 38.8201L148.232 37.4695L150.855 34.8471C151.305 34.4048 151.281 33.9151 150.918 33.5517C150.531 33.1647 150.017 33.2042 149.599 33.6228L146.992 36.2294L145.697 34.934L148.335 32.2959C148.738 31.893 148.754 31.3875 148.39 31.0242C148.027 30.6609 147.474 30.6688 147.032 31.119L144.465 33.686L143.114 32.3354L147.45 27.999V28.0069Z" fill="black"/>
<path d="M154.402 38.4959C154.734 38.7882 155.294 39.3095 155.484 39.4832L155.831 39.1357C156.132 38.8356 156.084 38.4406 155.713 38.0694C155.357 37.714 154.97 37.635 154.631 37.8719L153.375 36.6161C154.204 35.9131 155.476 35.921 156.7 37.1453C157.767 38.2116 158.098 39.5543 157.166 40.5022L154.22 43.4483L152.948 42.1767L153.557 41.5685L153.525 41.5369C152.854 41.7423 152.19 41.5685 151.574 40.9603C150.745 40.123 150.571 39.1041 151.432 38.2432C152.388 37.2795 153.478 37.6824 154.394 38.488L154.402 38.4959ZM152.885 40.4785C153.343 40.9366 153.999 40.9998 154.425 40.5654L154.702 40.2889C154.536 40.1309 154.054 39.6965 153.833 39.5148C153.454 39.2147 153.051 39.1831 152.775 39.4753C152.482 39.7597 152.561 40.1546 152.885 40.4785Z" fill="black"/>
<path d="M160.807 43.3381L160.017 42.5483L158.027 44.5387C157.758 44.8152 157.814 45.0363 158.027 45.2654C158.129 45.3839 158.359 45.5892 158.524 45.7314L157.498 46.7582C157.347 46.6476 157.095 46.4502 156.779 46.1342C155.831 45.1785 155.649 44.2149 156.534 43.346L158.674 41.2055L158.09 40.621L159.077 39.6337L159.662 40.2182L160.697 39.1835L162.039 40.5262L161.005 41.5609L161.794 42.3508L160.807 43.3381Z" fill="black"/>
<path d="M164.986 41.9081C165.373 42.2952 165.396 42.8955 165.041 43.2588C164.678 43.6142 164.077 43.5905 163.69 43.2035C163.303 42.8165 163.279 42.2241 163.643 41.8607C164.006 41.4974 164.607 41.5211 164.986 41.9081ZM162.49 43.0455L163.84 44.3962L159.504 48.7325L158.153 47.3819L162.49 43.0455Z" fill="black"/>
<path d="M162.355 47.2716C163.69 45.9367 165.42 45.8656 166.77 47.2163C168.121 48.5669 168.05 50.2967 166.715 51.6316C165.38 52.9665 163.658 53.0455 162.3 51.6869C160.941 50.3283 161.02 48.6064 162.355 47.2716ZM163.327 50.6759C163.848 51.1893 164.63 50.976 165.357 50.2415C166.083 49.5227 166.297 48.7328 165.791 48.2115C165.254 47.6823 164.464 47.9035 163.745 48.6301C163.019 49.3489 162.805 50.1388 163.327 50.6759Z" fill="black"/>
<path d="M166.605 55.825L165.255 54.4743L169.591 50.138L170.871 51.4176L170.081 52.2074L170.128 52.2548C170.847 51.931 171.653 52.0889 172.292 52.7287C173.209 53.645 173.153 54.8771 172.166 55.8566L169.401 58.6211L168.059 57.2783L170.562 54.7745C171.052 54.2848 171.076 53.7318 170.634 53.2816C170.183 52.8393 169.591 52.8393 169.085 53.3448L166.605 55.825Z" fill="black"/>
</svg>
