<svg width="304" height="275" viewBox="0 0 304 275" fill="none" xmlns="http://www.w3.org/2000/svg">
<path d="M121.917 255.884L47.5576 181.524V76.3808L121.917 2.02148H227.06L301.42 76.3808V181.524L227.06 255.884H121.917Z" fill="#F2FF29"/>
<path d="M226.257 3.96748L299.475 77.1852V180.72L226.257 253.938H122.722L49.5044 180.72V77.1852L122.722 3.96748H226.257ZM227.865 0.0756836H121.1L119.959 1.21727L46.7412 74.435L45.5996 75.5766V182.342L46.7412 183.483L119.959 256.701L121.1 257.842H227.865L229.007 256.701L302.225 183.483L303.366 182.342V75.5766L302.225 74.435L229.007 1.21727L227.865 0.0756836Z" fill="black"/>
<path d="M76.5126 272.747L2.15332 198.387V93.2441L76.5126 18.8848H181.656L256.015 93.2441V198.387L181.656 272.747H76.5126Z" fill="#F2FF29"/>
<path d="M180.852 20.8327L254.069 94.0504V197.585L180.852 270.803H77.3168L4.09912 197.585V94.0504L77.3168 20.8327H180.852ZM182.46 16.9409H75.6952L74.5536 18.0825L1.33594 91.3002L0.194336 92.4418V199.207L1.33594 200.348L74.5536 273.566L75.6952 274.708H182.46L183.602 273.566L256.819 200.348L257.961 199.207V92.4418L256.819 91.3002L183.602 18.0825L182.46 16.9409Z" fill="black"/>
<path d="M129.077 39.4999C130.331 39.4999 131.347 38.4835 131.347 37.2297C131.347 35.9759 130.331 34.9595 129.077 34.9595C127.823 34.9595 126.807 35.9759 126.807 37.2297C126.807 38.4835 127.823 39.4999 129.077 39.4999Z" fill="black"/>
<path d="M129.077 259.127C130.331 259.127 131.347 258.11 131.347 256.857C131.347 255.603 130.331 254.586 129.077 254.586C127.823 254.586 126.807 255.603 126.807 256.857C126.807 258.11 127.823 259.127 129.077 259.127Z" fill="black"/>
</svg>
