<svg width="291" height="291" viewBox="0 0 291 291" fill="none" xmlns="http://www.w3.org/2000/svg">
<path d="M145.111 288.51C224.027 288.51 288 224.537 288 145.622C288 66.7063 224.027 2.73291 145.111 2.73291C66.1961 2.73291 2.22266 66.7063 2.22266 145.622C2.22266 224.537 66.1961 288.51 145.111 288.51Z" fill="#FF4800" stroke="white" stroke-width="4.15682" stroke-miterlimit="10"/>
<path d="M30.6592 56.2231H258.995" stroke="white" stroke-width="4.15682" stroke-miterlimit="10"/>
<path d="M146.865 274.994C148.058 274.994 149.025 274.027 149.025 272.834C149.025 271.641 148.058 270.674 146.865 270.674C145.672 270.674 144.705 271.641 144.705 272.834C144.705 274.027 145.672 274.994 146.865 274.994Z" fill="white"/>
<path d="M43.1892 72.5786C44.3821 72.5786 45.3492 71.6116 45.3492 70.4187C45.3492 69.2258 44.3821 68.2588 43.1892 68.2588C41.9963 68.2588 41.0293 69.2258 41.0293 70.4187C41.0293 71.6116 41.9963 72.5786 43.1892 72.5786Z" fill="white"/>
<path d="M246.84 72.5786C248.033 72.5786 249 71.6116 249 70.4187C249 69.2258 248.033 68.2588 246.84 68.2588C245.647 68.2588 244.68 69.2258 244.68 70.4187C244.68 71.6116 245.647 72.5786 246.84 72.5786Z" fill="white"/>
</svg>
