<svg width="290" height="243" viewBox="0 0 290 243" fill="none" xmlns="http://www.w3.org/2000/svg">
<path d="M287.476 44.6455H2.91016V240.927H287.476V44.6455Z" fill="#009B00"/>
<path d="M285.452 46.669V238.903H4.93362V46.669H285.452ZM289.5 42.6211H0.885742V242.951H289.5V42.6211Z" fill="white"/>
<path d="M287.476 2.88379H2.91016V43.9293H287.476V2.88379Z" fill="#009B00"/>
<path d="M285.452 4.90872V41.9063H4.93362V4.90872H285.452ZM289.5 0.86084H0.885742V45.9542H289.5V0.86084Z" fill="white"/>
<path d="M20.9903 65.0334C22.4509 65.0334 23.6349 63.8493 23.6349 62.3888C23.6349 60.9282 22.4509 59.7441 20.9903 59.7441C19.5297 59.7441 18.3457 60.9282 18.3457 62.3888C18.3457 63.8493 19.5297 65.0334 20.9903 65.0334Z" fill="white"/>
<path d="M269.731 65.0334C271.191 65.0334 272.375 63.8493 272.375 62.3888C272.375 60.9282 271.191 59.7441 269.731 59.7441C268.27 59.7441 267.086 60.9282 267.086 62.3888C267.086 63.8493 268.27 65.0334 269.731 65.0334Z" fill="white"/>
<path d="M20.9903 226.382C22.4509 226.382 23.6349 225.198 23.6349 223.737C23.6349 222.277 22.4509 221.093 20.9903 221.093C19.5297 221.093 18.3457 222.277 18.3457 223.737C18.3457 225.198 19.5297 226.382 20.9903 226.382Z" fill="white"/>
<path d="M269.731 226.382C271.191 226.382 272.375 225.198 272.375 223.737C272.375 222.277 271.191 221.093 269.731 221.093C268.27 221.093 267.086 222.277 267.086 223.737C267.086 225.198 268.27 226.382 269.731 226.382Z" fill="white"/>
</svg>
