<svg width="534" height="476" viewBox="0 0 534 476" fill="none" xmlns="http://www.w3.org/2000/svg">
<path d="M508.894 3.00781L25.1251 3.00781C13.007 3.00781 3.18311 12.2738 3.18311 23.7039L3.18311 452.232C3.18311 463.662 13.007 472.928 25.1251 472.928L508.894 472.928C521.012 472.928 530.836 463.662 530.836 452.232L530.836 23.7039C530.836 12.2738 521.012 3.00781 508.894 3.00781Z" fill="#FF00DD"/>
<path d="M508.894 6.00965C519.254 6.00965 527.651 13.9301 527.651 23.7021L527.651 452.23C527.651 462.002 519.254 469.923 508.894 469.923L25.1026 469.923C14.7423 469.923 6.34487 462.002 6.34487 452.23L6.34487 23.7021C6.34487 13.9301 14.7423 6.00965 25.1026 6.00965L508.894 6.00965ZM508.894 0.00244141L25.1026 0.00244141C11.2526 0.00244141 -0.00195312 10.6179 -0.00195312 23.6815L-0.00195312 452.209C-0.00195312 465.273 11.2526 475.889 25.1026 475.889L508.894 475.889C522.744 475.889 533.998 465.273 533.998 452.209L533.998 23.7021C533.998 10.6385 522.744 0.0230145 508.894 0.0230145V0.00244141Z" fill="white"/>
<path d="M326.926 444.307H321.625V421.732H326.926V444.307Z" fill="white"/>
<path d="M335.606 444.305H330.327V427.38H335.322V430.455H335.518C336.282 428.405 338.179 427.14 340.666 427.14C344.243 427.14 346.533 429.67 346.533 433.508V444.305H341.298V434.512C341.298 432.614 340.273 431.48 338.528 431.458C336.783 431.458 335.628 432.636 335.628 434.599V444.283L335.606 444.305Z" fill="white"/>
<path d="M359.339 431.238H356.133V444.303H350.855V431.238H348.542V427.377H350.855V426.44C350.855 422.601 353.101 420.66 356.612 420.66C357.812 420.66 358.728 420.769 359.644 420.943V424.847C358.925 424.782 358.445 424.76 358.205 424.76C356.874 424.76 356.111 425.284 356.111 426.57V427.377H359.317V431.238H359.339Z" fill="white"/>
<path d="M360.645 435.888C360.645 430.676 363.873 427.164 369.151 427.164C374.429 427.164 377.657 430.676 377.657 435.888C377.657 441.101 374.451 444.613 369.151 444.613C363.851 444.613 360.645 441.101 360.645 435.888ZM369.195 440.665C371.201 440.665 372.335 438.702 372.314 435.867C372.314 433.053 371.201 431.09 369.195 431.068C367.123 431.068 365.989 433.053 366.01 435.867C366.01 438.702 367.123 440.643 369.195 440.665Z" fill="white"/>
<path d="M380.383 427.382H385.487V430.435H385.639C386.272 428.211 387.755 427.142 389.631 427.12C390.111 427.12 390.7 427.207 391.136 427.316V431.897C390.634 431.744 389.696 431.635 389.042 431.657C387.079 431.657 385.618 433.009 385.639 435.059V444.307H380.361V427.382H380.383Z" fill="white"/>
<path d="M393.275 427.38H398.27V430.455H398.466C399.186 428.405 400.953 427.14 403.265 427.14C405.577 427.14 407.387 428.427 407.845 430.455H408.041C408.696 428.448 410.658 427.14 413.145 427.14C416.329 427.14 418.533 429.299 418.533 432.876V444.283H413.254V434.054C413.254 432.331 412.273 431.415 410.855 431.415C409.35 431.415 408.434 432.483 408.434 434.119V444.283H403.374V433.988C403.374 432.396 402.414 431.393 400.996 431.393C399.579 431.393 398.51 432.505 398.532 434.228V444.261H393.253V427.336L393.275 427.38Z" fill="white"/>
<path d="M427.325 434.296C428.546 434.209 430.662 434.144 431.382 434.1V432.726C431.382 431.548 430.509 430.872 429.07 430.894C427.674 430.894 426.78 431.504 426.583 432.617H421.698C421.938 429.629 424.468 427.164 429.201 427.164C433.388 427.164 436.638 429.149 436.66 432.813V444.308H431.709V441.93H431.578C430.662 443.653 429.026 444.591 426.649 444.613C423.399 444.613 421.043 442.955 421.065 439.596C421.065 435.845 423.966 434.493 427.325 434.296ZM428.219 441.123C430.008 441.123 431.425 439.945 431.404 438.288V437.197C430.771 437.197 428.983 437.306 428.197 437.393C426.867 437.524 426.038 438.266 426.038 439.378C426.038 440.512 426.932 441.123 428.219 441.123Z" fill="white"/>
<path d="M449.286 431.238H446.189V439.003C446.189 440.072 446.734 440.399 447.628 440.399C448.064 440.421 448.915 440.399 449.504 440.333V444.347C448.981 444.434 448.108 444.521 446.887 444.543C443.157 444.543 440.932 442.994 440.954 439.592V431.238H438.686V427.378H440.954V423.321H446.189V427.378H449.286V431.238Z" fill="white"/>
<path d="M454.648 420.293C456.153 420.293 457.375 421.405 457.397 422.823C457.397 424.219 456.175 425.353 454.648 425.353C453.122 425.353 451.944 424.241 451.944 422.823C451.944 421.405 453.165 420.271 454.648 420.293ZM452.009 427.381H457.287V444.307H452.009V427.381Z" fill="white"/>
<path d="M459.996 435.888C459.996 430.676 463.224 427.164 468.502 427.164C473.802 427.164 477.008 430.676 477.008 435.888C477.008 441.101 473.802 444.613 468.502 444.613C463.224 444.613 459.996 441.101 459.996 435.888ZM468.524 440.665C470.531 440.665 471.665 438.702 471.643 435.867C471.643 433.053 470.531 431.09 468.524 431.068C466.452 431.068 465.318 433.053 465.34 435.867C465.34 438.702 466.452 440.643 468.524 440.665Z" fill="white"/>
<path d="M484.987 444.305H479.708V427.38H484.703V430.455H484.899C485.663 428.405 487.56 427.14 490.046 427.14C493.623 427.14 495.914 429.67 495.914 433.508V444.305H490.679V434.512C490.679 432.614 489.654 431.48 487.909 431.458C486.164 431.458 485.008 432.636 485.008 434.599V444.283L484.987 444.305Z" fill="white"/>
<path d="M6.36768 399.703L527.652 399.703" stroke="white" stroke-width="8.56685" stroke-miterlimit="10"/>
<path d="M394.732 250.194L380.163 240.597C398.92 212.134 391.046 173.725 362.583 154.946C348.798 145.85 332.287 142.688 316.125 146.003C299.942 149.318 286.026 158.741 276.931 172.525L262.361 162.928C274.008 145.261 291.85 133.178 312.614 128.925C333.356 124.672 354.513 128.75 372.201 140.398C408.691 164.455 418.812 213.726 394.732 250.216V250.194Z" fill="white"/>
<path d="M391.936 82.9999L292.298 255.44L307.406 264.17L407.045 91.7296L391.936 82.9999Z" fill="white"/>
<path d="M229.447 181.297L61.5024 181.297V198.746L229.447 198.746V181.297Z" fill="white"/>
<path d="M170.524 119.743L61.4702 120.2L61.5433 137.649L170.598 137.192L170.524 119.743Z" fill="white"/>
<path d="M179.765 274.733H134.726C120.57 274.733 108.029 263.674 100.308 244.415L80.0454 193.792L96.2514 187.314L116.513 237.937C121.29 249.89 128.27 257.306 134.726 257.306H179.765V274.754V274.733Z" fill="white"/>
<path d="M242.796 83.6025H225.347L225.347 317.112H242.796L242.796 83.6025Z" fill="white"/>
<path d="M467.386 83.6025H449.938L449.938 317.112H467.386L467.386 83.6025Z" fill="white"/>
<path d="M30.0103 129.207L64.4936 149.121V109.294L30.0103 129.207Z" fill="white"/>
<path d="M188.814 129.207L154.331 109.294V149.121L188.814 129.207Z" fill="white"/>
<path d="M234.817 59.6309L214.925 94.0923H254.73L234.817 59.6309Z" fill="white"/>
<path d="M459.468 59.6309L439.577 94.0923H479.382L459.468 59.6309Z" fill="white"/>
<path d="M407.037 72.8276L372.553 92.7411L407.037 112.655V72.8276Z" fill="white"/>
<path d="M234.817 344.919L254.73 310.458H214.925L234.817 344.919Z" fill="white"/>
<path d="M459.468 344.919L479.382 310.458H439.577L459.468 344.919Z" fill="white"/>
<path d="M212.811 266.62L178.327 246.707V286.534L212.811 266.62Z" fill="white"/>
<path d="M30.0103 190.28L64.4936 210.194V170.367L30.0103 190.28Z" fill="white"/>
<path d="M30.6875 40.0543C32.7956 40.0543 34.5045 38.3454 34.5045 36.2373C34.5045 34.1293 32.7956 32.4204 30.6875 32.4204C28.5795 32.4204 26.8706 34.1293 26.8706 36.2373C26.8706 38.3454 28.5795 40.0543 30.6875 40.0543Z" fill="white"/>
<path d="M30.6875 372.502C32.7956 372.502 34.5045 370.793 34.5045 368.685C34.5045 366.577 32.7956 364.868 30.6875 364.868C28.5795 364.868 26.8706 366.577 26.8706 368.685C26.8706 370.793 28.5795 372.502 30.6875 372.502Z" fill="white"/>
<path d="M497.444 40.0533C499.552 40.0533 501.261 38.3444 501.261 36.2364C501.261 34.1283 499.552 32.4194 497.444 32.4194C495.336 32.4194 493.627 34.1283 493.627 36.2364C493.627 38.3444 495.336 40.0533 497.444 40.0533Z" fill="white"/>
<path d="M497.444 372.502C499.552 372.502 501.261 370.793 501.261 368.685C501.261 366.577 499.552 364.868 497.444 364.868C495.336 364.868 493.627 366.577 493.627 368.685C493.627 370.793 495.336 372.502 497.444 372.502Z" fill="white"/>
</svg>
