<svg width="187" height="167" viewBox="0 0 187 167" fill="none" xmlns="http://www.w3.org/2000/svg">
<path d="M178.209 1.05328H8.79881C4.55518 1.05328 1.11499 4.2981 1.11499 8.30079V158.366C1.11499 162.369 4.55518 165.613 8.79881 165.613H178.209C182.452 165.613 185.892 162.369 185.892 158.366V8.30079C185.892 4.2981 182.452 1.05328 178.209 1.05328Z" fill="#FF00DD"/>
<path d="M178.209 2.10438C181.837 2.10438 184.777 4.87803 184.777 8.30006V158.365C184.777 161.787 181.837 164.561 178.209 164.561H8.79129C5.16326 164.561 2.22258 161.787 2.22258 158.365V8.30006C2.22258 4.87803 5.16326 2.10438 8.79129 2.10438H178.209ZM178.209 0.000732422H8.79129C3.94119 0.000732422 0 3.71814 0 8.29285V158.358C0 162.933 3.94119 166.65 8.79129 166.65H178.209C183.059 166.65 187 162.933 187 158.358V8.30006C187 3.72534 183.059 0.00793686 178.209 0.00793686V0.000732422Z" fill="white"/>
<path d="M138.231 87.6153L133.129 84.2547C139.698 74.2871 136.94 60.8367 126.973 54.2604C122.146 51.0754 116.364 49.9679 110.704 51.1289C105.037 52.2898 100.164 55.5894 96.9787 60.4166L91.8766 57.0559C95.9553 50.8692 102.203 46.6378 109.474 45.1484C116.738 43.659 124.147 45.0873 130.341 49.1659C143.119 57.5906 146.664 74.8447 138.231 87.623V87.6153Z" fill="white"/>
<path d="M137.251 29.0653L102.359 89.4516L107.65 92.5086L142.542 32.1223L137.251 29.0653Z" fill="white"/>
<path d="M80.351 63.4878H21.5388V69.5982H80.351V63.4878Z" fill="white"/>
<path d="M59.7162 41.9332L21.5268 42.0931L21.5524 48.2034L59.7418 48.0435L59.7162 41.9332Z" fill="white"/>
<path d="M62.9519 96.2077H47.1796C42.2226 96.2077 37.8308 92.3352 35.1269 85.5909L28.0312 67.8633L33.7064 65.5948L40.8019 83.3225C42.4746 87.5081 44.9188 90.105 47.1796 90.105H62.9519V96.2153V96.2077Z" fill="white"/>
<path d="M85.0248 29.2769H78.9144V111.049H85.0248V29.2769Z" fill="white"/>
<path d="M163.673 29.2769H157.563V111.049H163.673V29.2769Z" fill="white"/>
<path d="M10.5101 45.2472L22.5858 52.2207V38.2738L10.5101 45.2472Z" fill="white"/>
<path d="M66.1212 45.2472L54.0455 38.2738V52.2207L66.1212 45.2472Z" fill="white"/>
<path d="M82.2306 20.882L75.2649 32.95H89.2041L82.2306 20.882Z" fill="white"/>
<path d="M160.901 20.882L153.935 32.95H167.875L160.901 20.882Z" fill="white"/>
<path d="M142.54 25.5034L130.464 32.4769L142.54 39.4503V25.5034Z" fill="white"/>
<path d="M82.2306 120.787L89.2041 108.719H75.2649L82.2306 120.787Z" fill="white"/>
<path d="M160.901 120.787L167.875 108.719H153.935L160.901 120.787Z" fill="white"/>
<path d="M74.5243 93.3673L62.4486 86.3939V100.341L74.5243 93.3673Z" fill="white"/>
<path d="M10.5101 66.6337L22.5858 73.6071V59.6602L10.5101 66.6337Z" fill="white"/>
<path d="M114.486 155.591H112.63V147.685H114.486V155.591Z" fill="white"/>
<path d="M117.525 155.59H115.677V149.663H117.426V150.74H117.494C117.762 150.022 118.426 149.579 119.297 149.579C120.55 149.579 121.352 150.465 121.352 151.81V155.59H119.518V152.161C119.518 151.496 119.159 151.099 118.548 151.092C117.937 151.092 117.533 151.504 117.533 152.191V155.583L117.525 155.59Z" fill="white"/>
<path d="M125.836 151.014H124.713V155.589H122.865V151.014H122.055V149.662H122.865V149.334C122.865 147.99 123.652 147.31 124.881 147.31C125.301 147.31 125.622 147.348 125.943 147.409V148.776C125.691 148.753 125.523 148.746 125.439 148.746C124.973 148.746 124.706 148.929 124.706 149.38V149.662H125.828V151.014H125.836Z" fill="white"/>
<path d="M126.294 152.643C126.294 150.817 127.424 149.588 129.273 149.588C131.121 149.588 132.252 150.817 132.252 152.643C132.252 154.468 131.129 155.698 129.273 155.698C127.417 155.698 126.294 154.468 126.294 152.643ZM129.288 154.315C129.991 154.315 130.388 153.628 130.38 152.635C130.38 151.65 129.991 150.962 129.288 150.955C128.562 150.955 128.165 151.65 128.173 152.635C128.173 153.628 128.562 154.308 129.288 154.315Z" fill="white"/>
<path d="M133.206 149.664H134.993V150.733H135.047C135.268 149.954 135.788 149.58 136.445 149.572C136.613 149.572 136.819 149.603 136.972 149.641V151.245C136.796 151.191 136.468 151.153 136.238 151.161C135.551 151.161 135.039 151.634 135.047 152.352V155.591H133.199V149.664H133.206Z" fill="white"/>
<path d="M137.72 149.663H139.469V150.74H139.538C139.79 150.022 140.409 149.579 141.219 149.579C142.028 149.579 142.662 150.03 142.822 150.74H142.891C143.12 150.038 143.808 149.579 144.678 149.579C145.793 149.579 146.565 150.335 146.565 151.588V155.583H144.717V152.001C144.717 151.397 144.373 151.076 143.877 151.076C143.35 151.076 143.029 151.451 143.029 152.023V155.583H141.257V151.978C141.257 151.42 140.921 151.069 140.424 151.069C139.928 151.069 139.553 151.458 139.561 152.062V155.575H137.713V149.648L137.72 149.663Z" fill="white"/>
<path d="M149.644 152.085C150.072 152.055 150.813 152.032 151.065 152.016V151.535C151.065 151.123 150.759 150.886 150.255 150.894C149.766 150.894 149.453 151.108 149.384 151.497H147.673C147.758 150.451 148.643 149.588 150.301 149.588C151.767 149.588 152.905 150.283 152.913 151.566V155.591H151.179V154.758H151.134C150.813 155.362 150.24 155.69 149.407 155.698C148.269 155.698 147.444 155.117 147.452 153.941C147.452 152.627 148.468 152.154 149.644 152.085ZM149.957 154.476C150.584 154.476 151.08 154.063 151.072 153.483V153.101C150.851 153.101 150.225 153.139 149.95 153.17C149.484 153.216 149.193 153.475 149.193 153.865C149.193 154.262 149.507 154.476 149.957 154.476Z" fill="white"/>
<path d="M157.335 151.015H156.251V153.734C156.251 154.108 156.442 154.223 156.755 154.223C156.907 154.23 157.205 154.223 157.412 154.2V155.605C157.228 155.636 156.923 155.666 156.495 155.674C155.189 155.674 154.41 155.132 154.417 153.94V151.015H153.623V149.663H154.417V148.242H156.251V149.663H157.335V151.015Z" fill="white"/>
<path d="M159.213 147.182C159.74 147.182 160.168 147.571 160.175 148.068C160.175 148.556 159.748 148.954 159.213 148.954C158.678 148.954 158.266 148.564 158.266 148.068C158.266 147.571 158.693 147.174 159.213 147.182ZM158.289 149.664H160.137V155.591H158.289V149.664Z" fill="white"/>
<path d="M161.085 152.643C161.085 150.817 162.215 149.588 164.064 149.588C165.92 149.588 167.042 150.817 167.042 152.643C167.042 154.468 165.92 155.698 164.064 155.698C162.215 155.698 161.085 154.468 161.085 152.643ZM164.071 154.315C164.774 154.315 165.171 153.628 165.164 152.635C165.164 151.65 164.774 150.962 164.071 150.955C163.346 150.955 162.949 151.65 162.956 152.635C162.956 153.628 163.346 154.308 164.071 154.315Z" fill="white"/>
<path d="M169.837 155.59H167.989V149.663H169.738V150.74H169.806C170.074 150.022 170.738 149.579 171.609 149.579C172.862 149.579 173.664 150.465 173.664 151.81V155.59H171.83V152.161C171.83 151.496 171.471 151.099 170.86 151.092C170.249 151.092 169.845 151.504 169.845 152.191V155.583L169.837 155.59Z" fill="white"/>
<path d="M10.7465 14.0271C11.4847 14.0271 12.0831 13.4287 12.0831 12.6905C12.0831 11.9523 11.4847 11.3538 10.7465 11.3538C10.0083 11.3538 9.40985 11.9523 9.40985 12.6905C9.40985 13.4287 10.0083 14.0271 10.7465 14.0271Z" fill="white"/>
<path d="M10.7465 130.446C11.4847 130.446 12.0831 129.848 12.0831 129.109C12.0831 128.371 11.4847 127.773 10.7465 127.773C10.0083 127.773 9.40985 128.371 9.40985 129.109C9.40985 129.848 10.0083 130.446 10.7465 130.446Z" fill="white"/>
<path d="M174.199 14.0271C174.937 14.0271 175.536 13.4287 175.536 12.6905C175.536 11.9523 174.937 11.3538 174.199 11.3538C173.461 11.3538 172.862 11.9523 172.862 12.6905C172.862 13.4287 173.461 14.0271 174.199 14.0271Z" fill="white"/>
<path d="M174.199 130.446C174.937 130.446 175.536 129.848 175.536 129.109C175.536 128.371 174.937 127.773 174.199 127.773C173.461 127.773 172.862 128.371 172.862 129.109C172.862 129.848 173.461 130.446 174.199 130.446Z" fill="white"/>
<path d="M2.2309 139.971H184.778" stroke="white" stroke-width="3.7075" stroke-miterlimit="10"/>
</svg>
