<svg width="274" height="308" viewBox="0 0 274 308" fill="none" xmlns="http://www.w3.org/2000/svg">
<path d="M272.184 293.147L272.184 14.9085C272.184 7.93873 266.854 2.28857 260.28 2.28857L13.8138 2.28856C7.23975 2.28856 1.91043 7.93872 1.91043 14.9085L1.91042 293.147C1.91042 300.116 7.23973 305.767 13.8137 305.767L260.28 305.767C266.854 305.767 272.184 300.116 272.184 293.147Z" fill="#FF00DD"/>
<path d="M270.457 293.146C270.457 299.105 265.902 303.934 260.281 303.934L13.8148 303.934C8.19446 303.934 3.63902 299.105 3.63902 293.146L3.63903 14.8953C3.63903 8.93666 8.19447 4.10689 13.8148 4.10689L260.281 4.1069C265.902 4.1069 270.457 8.93667 270.457 14.8953L270.457 293.146ZM273.912 293.146L273.912 14.8953C273.912 6.92955 267.807 0.456543 260.293 0.456542L13.8266 0.456532C6.31313 0.456531 0.207676 6.92953 0.207676 14.8953L0.207663 293.146C0.207663 301.112 6.31312 307.585 13.8266 307.585L260.281 307.585C267.795 307.585 273.9 301.112 273.9 293.146L273.912 293.146Z" fill="white"/>
<path d="M44.0244 4.12012L44.0244 303.935" stroke="white" stroke-width="4.92719" stroke-miterlimit="10"/>
<path d="M250.875 18.1074C250.875 19.3198 251.858 20.3027 253.07 20.3027C254.283 20.3027 255.266 19.3198 255.266 18.1074C255.266 16.895 254.283 15.9121 253.07 15.9121C251.858 15.9121 250.875 16.895 250.875 18.1074Z" fill="white"/>
<path d="M59.669 18.1074C59.669 19.3198 60.6518 20.3027 61.8643 20.3027C63.0767 20.3027 64.0596 19.3198 64.0596 18.1074C64.0596 16.895 63.0767 15.9121 61.8643 15.9121C60.6518 15.9121 59.669 16.895 59.669 18.1074Z" fill="white"/>
<path d="M250.875 286.561C250.875 287.773 251.858 288.756 253.07 288.756C254.283 288.756 255.266 287.773 255.266 286.561C255.266 285.348 254.283 284.365 253.07 284.365C251.858 284.365 250.875 285.348 250.875 286.561Z" fill="white"/>
<path d="M59.669 286.561C59.669 287.773 60.6518 288.756 61.8643 288.756C63.0767 288.756 64.0596 287.773 64.0596 286.561C64.0596 285.348 63.0767 284.365 61.8643 284.365C60.6518 284.365 59.669 285.348 59.669 286.561Z" fill="white"/>
</svg>
