<svg width="293" height="277" viewBox="0 0 293 277" fill="none" xmlns="http://www.w3.org/2000/svg">
<path d="M290.54 58.7378H3.29492V273.796H290.54V58.7378Z" fill="white"/>
<path d="M288.166 61.1285V271.419H5.68592V61.1285H288.166ZM292.932 56.3477H0.920898V276.173H292.932V56.3477Z" fill="black"/>
<path d="M17.0991 73.8206C18.3748 73.8206 19.4091 72.7858 19.4091 71.5094C19.4091 70.233 18.3748 69.1982 17.0991 69.1982C15.8233 69.1982 14.7891 70.233 14.7891 71.5094C14.7891 72.7858 15.8233 73.8206 17.0991 73.8206Z" fill="black"/>
<path d="M277.143 73.8211C278.419 73.8211 279.453 72.7863 279.453 71.5099C279.453 70.2335 278.419 69.1987 277.143 69.1987C275.867 69.1987 274.833 70.2335 274.833 71.5099C274.833 72.7863 275.867 73.8211 277.143 73.8211Z" fill="black"/>
<path d="M17.0991 263.996C18.3748 263.996 19.4091 262.962 19.4091 261.685C19.4091 260.409 18.3748 259.374 17.0991 259.374C15.8233 259.374 14.7891 260.409 14.7891 261.685C14.7891 262.962 15.8233 263.996 17.0991 263.996Z" fill="black"/>
<path d="M277.143 263.996C278.419 263.996 279.453 262.962 279.453 261.685C279.453 260.409 278.419 259.374 277.143 259.374C275.867 259.374 274.833 260.409 274.833 261.685C274.833 262.962 275.867 263.996 277.143 263.996Z" fill="black"/>
<path d="M163.379 3.11572H2.89648V44.0192H163.379V3.11572Z" fill="white"/>
<path d="M161.179 5.33469V41.8166H5.11534V5.33469H161.179ZM165.583 0.913086H0.696289V46.2236H165.583V0.913086Z" fill="black"/>
</svg>
