<svg width="178" height="178" viewBox="0 0 178 178" fill="none" xmlns="http://www.w3.org/2000/svg">
<path d="M89 176C137.049 176 176 137.049 176 89C176 40.9512 137.049 2 89 2C40.9512 2 2 40.9512 2 89C2 137.049 40.9512 176 89 176Z" fill="#FF4800" stroke="white" stroke-width="3.7075" stroke-miterlimit="10"/>
<path d="M90.0674 167.77C90.7937 167.77 91.3825 167.181 91.3825 166.455C91.3825 165.729 90.7937 165.14 90.0674 165.14C89.3411 165.14 88.7523 165.729 88.7523 166.455C88.7523 167.181 89.3411 167.77 90.0674 167.77Z" fill="white"/>
<path d="M26.9427 44.5265C27.669 44.5265 28.2578 43.9377 28.2578 43.2114C28.2578 42.4851 27.669 41.8963 26.9427 41.8963C26.2164 41.8963 25.6276 42.4851 25.6276 43.2114C25.6276 43.9377 26.2164 44.5265 26.9427 44.5265Z" fill="white"/>
<path d="M150.938 44.5265C151.665 44.5265 152.254 43.9377 152.254 43.2114C152.254 42.4851 151.665 41.8963 150.938 41.8963C150.212 41.8963 149.623 42.4851 149.623 43.2114C149.623 43.9377 150.212 44.5265 150.938 44.5265Z" fill="white"/>
<path d="M48.6084 107.275C39.1547 107.275 31.4595 99.5798 31.4595 90.126C31.4595 80.6723 39.1547 72.977 48.6084 72.977C58.0622 72.977 65.7574 80.6723 65.7574 90.126C65.7574 99.5798 58.0622 107.275 48.6084 107.275ZM48.6084 78.9889C42.4688 78.9889 37.4714 83.9863 37.4714 90.126C37.4714 96.2657 42.4688 101.263 48.6084 101.263C54.7481 101.263 59.7455 96.2657 59.7455 90.126C59.7455 83.9863 54.7481 78.9889 48.6084 78.9889Z" fill="white"/>
<path d="M127.252 142.595C116.182 142.595 107.172 133.585 107.172 122.515C107.172 111.446 116.182 102.436 127.252 102.436C138.321 102.436 147.332 111.446 147.332 122.515C147.332 133.585 138.321 142.595 127.252 142.595ZM127.252 108.447C119.496 108.447 113.184 114.76 113.184 122.515C113.184 130.271 119.496 136.583 127.252 136.583C135.007 136.583 141.32 130.271 141.32 122.515C141.32 114.76 135.007 108.447 127.252 108.447Z" fill="white"/>
<path d="M60.5113 77.3593L53.7479 66.7483C52.1998 64.3209 49.9228 62.9307 47.4955 62.9307H35.389V56.9188H47.4955C51.9519 56.9188 56.1827 59.3836 58.8129 63.5168L65.5763 74.1279L60.5113 77.3593Z" fill="white"/>
<path d="M76.8031 72.7364H24.1312V78.7483H76.8031V72.7364Z" fill="white"/>
<path d="M108.296 55.3254L108.012 100.489L114.024 100.527L114.308 55.3632L108.296 55.3254Z" fill="white"/>
<path d="M117.94 127.566H100.851V121.554H117.94C129.355 121.554 135.142 115.452 135.142 103.421L135.457 54.7016L141.469 54.7392L141.154 103.443C141.154 118.774 132.692 127.574 117.94 127.574V127.566Z" fill="white"/>
<path d="M93.3222 87.7368H90.3313V81.7249H93.3222C106.811 81.7249 108.367 71.8578 108.367 64.4406H114.379C114.379 79.4629 106.902 87.7368 93.3222 87.7368Z" fill="white"/>
<path d="M141.155 91.1561H135.143C135.143 81.6723 142.861 73.9545 152.344 73.9545H155.313V79.9664H152.344C146.175 79.9664 141.155 84.9863 141.155 91.1561Z" fill="white"/>
<path d="M81.1389 54.4605H75.127V133.39H81.1389V54.4605Z" fill="white"/>
<path d="M51.7048 76.5922H45.6929V122.29H51.7048V76.5922Z" fill="white"/>
<path d="M78.0219 118.096H29.8589V124.108H78.0219V118.096Z" fill="white"/>
<path d="M28.2122 60.1416L40.0933 67.0027V53.2805L28.2122 60.1416Z" fill="white"/>
<path d="M15.4374 75.9235L27.3185 82.7846V69.0624L15.4374 75.9235Z" fill="white"/>
<path d="M19.9459 121.012L31.827 127.873V114.151L19.9459 121.012Z" fill="white"/>
<path d="M78.2163 143.955L85.0774 132.074H71.3552L78.2163 143.955Z" fill="white"/>
<path d="M89.8351 124.762L101.716 131.623V117.901L89.8351 124.762Z" fill="white"/>
<path d="M162.789 76.667L150.908 69.8059V83.5281L162.789 76.667Z" fill="white"/>
<path d="M84.5746 84.9336L96.4557 91.7947V78.0725L84.5746 84.9336Z" fill="white"/>
<path d="M59.0075 26.9333H57.1814V19.1554H59.0075V26.9333Z" fill="white"/>
<path d="M61.9991 26.9329H60.1805V21.1014H61.9014V22.161H61.9691C62.2321 21.4546 62.8859 21.0187 63.7426 21.0187C64.975 21.0187 65.7641 21.8904 65.7641 23.2131V26.9329H63.9606V23.5587C63.9606 22.9049 63.6073 22.5142 63.0062 22.5067C62.405 22.5067 62.0066 22.9125 62.0066 23.5888V26.9254L61.9991 26.9329Z" fill="white"/>
<path d="M70.1683 22.4312H69.0637V26.9326H67.2451V22.4312H66.4485V21.1011H67.2451V20.7779C67.2451 19.4553 68.0191 18.7865 69.229 18.7865C69.6423 18.7865 69.9579 18.8241 70.2735 18.8842V20.2294C70.0256 20.2068 69.8603 20.1993 69.7776 20.1993C69.3192 20.1993 69.0561 20.3797 69.0561 20.823V21.1011H70.1609V22.4312H70.1683Z" fill="white"/>
<path d="M70.6262 24.0326C70.6262 22.2366 71.7384 21.0267 73.557 21.0267C75.3756 21.0267 76.4878 22.2366 76.4878 24.0326C76.4878 25.8287 75.3831 27.0386 73.557 27.0386C71.7308 27.0386 70.6262 25.8287 70.6262 24.0326ZM73.572 25.6784C74.2634 25.6784 74.6542 25.0021 74.6467 24.0251C74.6467 23.0557 74.2634 22.3794 73.572 22.3718C72.8581 22.3718 72.4673 23.0557 72.4749 24.0251C72.4749 25.0021 72.8581 25.6709 73.572 25.6784Z" fill="white"/>
<path d="M77.4272 21.1023H79.1857V22.1544H79.2383C79.4562 21.3879 79.9672 21.0196 80.6135 21.0121C80.7788 21.0121 80.9818 21.0422 81.1321 21.0797V22.6579C80.9592 22.6053 80.636 22.5677 80.4106 22.5752C79.7343 22.5752 79.2308 23.0411 79.2383 23.7475V26.9339H77.4197V21.1023H77.4272Z" fill="white"/>
<path d="M81.8615 21.1014H83.5825V22.161H83.6501C83.8981 21.4546 84.5067 21.0187 85.3033 21.0187C86.0999 21.0187 86.7237 21.4621 86.8815 22.161H86.9491C87.1746 21.4696 87.8509 21.0187 88.7076 21.0187C89.8048 21.0187 90.5637 21.7627 90.5637 22.9951V26.9254H88.7452V23.4009C88.7452 22.8073 88.407 22.4916 87.9185 22.4916C87.4 22.4916 87.0843 22.8599 87.0843 23.4235V26.9254H85.3409V23.3784C85.3409 22.8298 85.0103 22.4841 84.5218 22.4841C84.0334 22.4841 83.6651 22.8674 83.6726 23.461V26.9179H81.854V21.0863L81.8615 21.1014Z" fill="white"/>
<path d="M93.591 23.4911C94.0119 23.461 94.7408 23.4385 94.9888 23.4235V22.95C94.9888 22.5442 94.6882 22.3113 94.1923 22.3188C93.7113 22.3188 93.4032 22.5292 93.3355 22.9124H91.6522C91.7349 21.8829 92.6066 21.0337 94.2373 21.0337C95.6802 21.0337 96.7999 21.7176 96.8074 22.9801V26.9404H95.1015V26.1213H95.0564C94.7408 26.715 94.1772 27.0381 93.3581 27.0456C92.2384 27.0456 91.4267 26.4745 91.4343 25.3172C91.4343 24.0246 92.4337 23.5587 93.591 23.4911ZM93.9067 25.8357C94.5229 25.8357 95.0113 25.4299 95.0038 24.8588V24.4831C94.7859 24.4831 94.1697 24.5206 93.8992 24.5507C93.4408 24.5958 93.1552 24.8513 93.1552 25.2346C93.1552 25.6253 93.4633 25.8357 93.9067 25.8357Z" fill="white"/>
<path d="M101.166 22.4322H100.099V25.1075C100.099 25.4757 100.287 25.5884 100.595 25.5884C100.746 25.596 101.039 25.5885 101.242 25.5659V26.9486C101.061 26.9787 100.761 27.0088 100.34 27.0163C99.0547 27.0163 98.2882 26.4827 98.2957 25.3104V22.4322H97.5142V21.1021H98.2957V19.7043H100.099V21.1021H101.166V22.4322Z" fill="white"/>
<path d="M103.016 18.6663C103.534 18.6663 103.955 19.0496 103.963 19.538C103.963 20.019 103.542 20.4098 103.016 20.4098C102.49 20.4098 102.084 20.0265 102.084 19.538C102.084 19.0496 102.505 18.6588 103.016 18.6663ZM102.099 21.1011H103.917V26.9327H102.099V21.1011Z" fill="white"/>
<path d="M104.849 24.0326C104.849 22.2366 105.961 21.0267 107.78 21.0267C109.598 21.0267 110.711 22.2366 110.711 24.0326C110.711 25.8287 109.606 27.0386 107.78 27.0386C105.954 27.0386 104.849 25.8287 104.849 24.0326ZM107.795 25.6784C108.486 25.6784 108.877 25.0021 108.869 24.0251C108.869 23.0557 108.486 22.3794 107.795 22.3718C107.081 22.3718 106.69 23.0557 106.698 24.0251C106.698 25.0021 107.081 25.6709 107.795 25.6784Z" fill="white"/>
<path d="M113.468 26.9329H111.65V21.1014H113.371V22.161H113.438C113.701 21.4546 114.355 21.0187 115.212 21.0187C116.444 21.0187 117.233 21.8904 117.233 23.2131V26.9329H115.43V23.5587C115.43 22.9049 115.077 22.5142 114.476 22.5067C113.874 22.5067 113.476 22.9125 113.476 23.5888V26.9254L113.468 26.9329Z" fill="white"/>
<path d="M19.3143 34.5685H158.34" stroke="white" stroke-width="3.7075" stroke-miterlimit="10"/>
</svg>
