<svg width="417" height="262" viewBox="0 0 417 262" fill="none" xmlns="http://www.w3.org/2000/svg">
<path d="M56.5146 69.9229H330.536L413.005 159.143L332.721 257.251H56.5146V69.9229Z" fill="#878787"/>
<path d="M333.918 259.79H53.9756V67.3833H331.647L416.375 159.045L333.918 259.79ZM59.0543 254.712H331.513L409.636 159.253L329.425 72.4743H59.0543V254.712Z" fill="white"/>
<path d="M39.7391 1.87207H2.60059V259.351H39.7391V1.87207Z" fill="#0043FF"/>
<path d="M37.907 3.7031V257.519H4.43113V3.7031H37.907ZM41.5696 0.0405273H0.768555V261.182H41.5696V0.0405273Z" fill="white"/>
<path d="M70.7342 86.4034C71.9141 86.4034 72.8707 85.4468 72.8707 84.2669C72.8707 83.0869 71.9141 82.1304 70.7342 82.1304C69.5542 82.1304 68.5977 83.0869 68.5977 84.2669C68.5977 85.4468 69.5542 86.4034 70.7342 86.4034Z" fill="white"/>
<path d="M70.7342 245.115C71.9141 245.115 72.8707 244.159 72.8707 242.979C72.8707 241.799 71.9141 240.842 70.7342 240.842C69.5542 240.842 68.5977 241.799 68.5977 242.979C68.5977 244.159 69.5542 245.115 70.7342 245.115Z" fill="white"/>
<path d="M321.01 86.4034C322.19 86.4034 323.146 85.4468 323.146 84.2669C323.146 83.0869 322.19 82.1304 321.01 82.1304C319.83 82.1304 318.873 83.0869 318.873 84.2669C318.873 85.4468 319.83 86.4034 321.01 86.4034Z" fill="white"/>
<path d="M394.262 162.097C395.442 162.097 396.399 161.14 396.399 159.96C396.399 158.78 395.442 157.824 394.262 157.824C393.083 157.824 392.126 158.78 392.126 159.96C392.126 161.14 393.083 162.097 394.262 162.097Z" fill="white"/>
<path d="M321.01 245.115C322.19 245.115 323.146 244.159 323.146 242.979C323.146 241.799 322.19 240.842 321.01 240.842C319.83 240.842 318.873 241.799 318.873 242.979C318.873 244.159 319.83 245.115 321.01 245.115Z" fill="white"/>
</svg>
