<svg width="538" height="538" viewBox="0 0 538 538" fill="none" xmlns="http://www.w3.org/2000/svg">
<path d="M268.999 533C414.802 533 532.999 414.804 532.999 269C532.999 123.197 414.802 5.00049 268.999 5.00049C123.196 5.00049 4.9989 123.197 4.9989 269C4.9989 414.804 123.196 533 268.999 533Z" fill="#FF4800" stroke="white" stroke-width="9.10345" stroke-miterlimit="10"/>
<path d="M57.5397 103.828H479.411" stroke="white" stroke-width="9.10345" stroke-miterlimit="10"/>
<path d="M272.24 508.027C274.444 508.027 276.231 506.241 276.231 504.037C276.231 501.833 274.444 500.046 272.24 500.046C270.036 500.046 268.25 501.833 268.25 504.037C268.25 506.241 270.036 508.027 272.24 508.027Z" fill="white"/>
<path d="M80.6886 134.047C82.8926 134.047 84.6793 132.26 84.6793 130.056C84.6793 127.852 82.8926 126.065 80.6886 126.065C78.4846 126.065 76.6979 127.852 76.6979 130.056C76.6979 132.26 78.4846 134.047 80.6886 134.047Z" fill="white"/>
<path d="M456.953 134.047C459.157 134.047 460.943 132.26 460.943 130.056C460.943 127.852 459.157 126.065 456.953 126.065C454.749 126.065 452.962 127.852 452.962 130.056C452.962 132.26 454.749 134.047 456.953 134.047Z" fill="white"/>
<path d="M146.433 324.454C117.746 324.454 94.3947 301.103 94.3947 272.416C94.3947 243.729 117.746 220.377 146.433 220.377C175.12 220.377 198.471 243.729 198.471 272.416C198.471 301.103 175.12 324.454 146.433 324.454ZM146.433 238.621C127.802 238.621 112.638 253.785 112.638 272.416C112.638 291.046 127.802 306.211 146.433 306.211C165.064 306.211 180.228 291.046 180.228 272.416C180.228 253.785 165.064 238.621 146.433 238.621Z" fill="white"/>
<path d="M385.074 431.633C351.484 431.633 324.142 404.291 324.142 370.701C324.142 337.111 351.484 309.769 385.074 309.769C418.664 309.769 446.006 337.111 446.006 370.701C446.006 404.291 418.664 431.633 385.074 431.633ZM385.074 328.012C361.54 328.012 342.385 347.167 342.385 370.701C342.385 394.234 361.54 413.39 385.074 413.39C408.607 413.39 427.763 394.234 427.763 370.701C427.763 347.167 408.607 328.012 385.074 328.012Z" fill="white"/>
<path d="M182.55 233.676L162.027 201.477C157.329 194.112 150.42 189.893 143.054 189.893H106.317V171.65H143.054C156.577 171.65 169.415 179.13 177.397 191.672L197.92 223.871L182.55 233.676Z" fill="white"/>
<path d="M231.987 219.649H72.1549V237.892H231.987V219.649Z" fill="white"/>
<path d="M327.555 166.815L326.694 303.863L344.936 303.977L345.798 166.929L327.555 166.815Z" fill="white"/>
<path d="M356.819 386.027H304.963V367.784H356.819C391.458 367.784 409.017 349.268 409.017 312.759L409.974 164.921L428.217 165.035L427.26 312.827C427.26 359.347 401.583 386.05 356.819 386.05V386.027Z" fill="white"/>
<path d="M282.115 265.167H273.039V246.924H282.115C323.048 246.924 327.768 216.982 327.768 194.475H346.011C346.011 240.06 323.321 265.167 282.115 265.167Z" fill="white"/>
<path d="M427.262 275.542H409.019C409.019 246.764 432.438 223.344 461.217 223.344H470.224V241.587H461.217C442.495 241.587 427.262 256.82 427.262 275.542Z" fill="white"/>
<path d="M245.145 164.191H226.902V403.7H245.145V164.191Z" fill="white"/>
<path d="M155.83 231.348H137.587V370.018H155.83V231.348Z" fill="white"/>
<path d="M235.688 357.291H89.5379V375.534H235.688V357.291Z" fill="white"/>
<path d="M84.5386 181.43L120.592 202.25V160.61L84.5386 181.43Z" fill="white"/>
<path d="M45.7766 229.319L81.8295 250.139V208.499L45.7766 229.319Z" fill="white"/>
<path d="M59.4581 366.141L95.5111 386.961V345.321L59.4581 366.141Z" fill="white"/>
<path d="M236.277 435.759L257.097 399.706H215.458L236.277 435.759Z" fill="white"/>
<path d="M271.533 377.519L307.586 398.339V356.699L271.533 377.519Z" fill="white"/>
<path d="M492.913 231.575L456.86 210.755V252.395L492.913 231.575Z" fill="white"/>
<path d="M255.569 256.661L291.622 277.481V235.841L255.569 256.661Z" fill="white"/>
<path d="M177.988 80.6596H172.447V57.0576H177.988V80.6596Z" fill="white"/>
<path d="M187.066 80.6585H181.547V62.9628H186.769V66.1781H186.975C187.773 64.0345 189.757 62.7119 192.356 62.7119C196.096 62.7119 198.49 65.3572 198.49 69.3706V80.6585H193.018V70.4196C193.018 68.4357 191.946 67.2499 190.122 67.2271C188.297 67.2271 187.089 68.4585 187.089 70.5108V80.6357L187.066 80.6585Z" fill="white"/>
<path d="M211.857 66.9978H208.505V80.6573H202.987V66.9978H200.569V62.9616H202.987V61.981C202.987 57.9675 205.335 55.938 209.007 55.938C210.261 55.938 211.219 56.052 212.176 56.2344V60.3163C211.424 60.2479 210.922 60.2251 210.672 60.2251C209.281 60.2251 208.482 60.7724 208.482 62.1178V62.9616H211.835V66.9978H211.857Z" fill="white"/>
<path d="M213.246 71.8574C213.246 66.4073 216.621 62.7358 222.139 62.7358C227.658 62.7358 231.033 66.4073 231.033 71.8574C231.033 77.3075 227.681 80.9789 222.139 80.9789C216.598 80.9789 213.246 77.3075 213.246 71.8574ZM222.185 76.8514C224.283 76.8514 225.469 74.7991 225.446 71.8346C225.446 68.8929 224.283 66.8405 222.185 66.8177C220.019 66.8177 218.833 68.8929 218.856 71.8346C218.856 74.7991 220.019 76.8286 222.185 76.8514Z" fill="white"/>
<path d="M233.882 62.9651H239.218V66.1576H239.378C240.039 63.8316 241.59 62.7142 243.551 62.6914C244.052 62.6914 244.668 62.7826 245.124 62.8966V67.6855C244.6 67.5258 243.619 67.4118 242.935 67.4346C240.883 67.4346 239.355 68.8484 239.378 70.992V80.6608H233.859V62.9651H233.882Z" fill="white"/>
<path d="M247.339 62.9628H252.562V66.1781H252.767C253.519 64.0345 255.366 62.7119 257.784 62.7119C260.201 62.7119 262.094 64.0573 262.573 66.1781H262.778C263.462 64.0801 265.514 62.7119 268.114 62.7119C271.443 62.7119 273.746 64.9695 273.746 68.7093V80.6357H268.228V69.9407C268.228 68.1392 267.201 67.1815 265.719 67.1815C264.146 67.1815 263.188 68.2988 263.188 70.0091V80.6357H257.898V69.8723C257.898 68.2076 256.894 67.1587 255.412 67.1587C253.93 67.1587 252.812 68.3217 252.835 70.1232V80.6129H247.317V62.9171L247.339 62.9628Z" fill="white"/>
<path d="M282.931 70.2147C284.208 70.1234 286.42 70.055 287.173 70.0094V68.5728C287.173 67.3414 286.261 66.6345 284.756 66.6573C283.296 66.6573 282.361 67.2958 282.156 68.4588H277.048C277.299 65.3346 279.944 62.7578 284.892 62.7578C289.271 62.7578 292.669 64.833 292.691 68.664V80.6816H287.515V78.196H287.378C286.42 79.9975 284.71 80.9781 282.225 81.0009C278.827 81.0009 276.364 79.2678 276.387 75.756C276.387 71.8337 279.42 70.4199 282.931 70.2147ZM283.889 77.3295C285.759 77.3295 287.241 76.0981 287.219 74.365V73.2248C286.557 73.2248 284.687 73.3388 283.866 73.43C282.475 73.5668 281.609 74.3422 281.609 75.5052C281.609 76.691 282.544 77.3295 283.889 77.3295Z" fill="white"/>
<path d="M305.918 67.0014H302.68V75.1196C302.68 76.237 303.25 76.579 304.185 76.579C304.641 76.6018 305.531 76.579 306.146 76.5106V80.7065C305.599 80.7977 304.687 80.889 303.41 80.9118C299.51 80.9118 297.184 79.2927 297.207 75.7353V67.0014H294.836V62.9651H297.207V58.7236H302.68V62.9651H305.918V67.0014Z" fill="white"/>
<path d="M311.53 55.5736C313.103 55.5736 314.38 56.7366 314.403 58.2188C314.403 59.6783 313.126 60.8641 311.53 60.8641C309.934 60.8641 308.702 59.7011 308.702 58.2188C308.702 56.7366 309.979 55.5508 311.53 55.5736ZM308.748 62.962H314.266V80.6578H308.748V62.962Z" fill="white"/>
<path d="M317.094 71.8574C317.094 66.4073 320.469 62.7358 325.987 62.7358C331.506 62.7358 334.881 66.4073 334.881 71.8574C334.881 77.3075 331.529 80.9789 325.987 80.9789C320.446 80.9789 317.094 77.3075 317.094 71.8574ZM326.033 76.8514C328.131 76.8514 329.317 74.7991 329.294 71.8346C329.294 68.8929 328.131 66.8405 326.033 66.8177C323.867 66.8177 322.681 68.8929 322.704 71.8346C322.704 74.7991 323.867 76.8286 326.033 76.8514Z" fill="white"/>
<path d="M343.25 80.6585H337.732V62.9628H342.954V66.1781H343.159C343.958 64.0345 345.941 62.7119 348.541 62.7119C352.281 62.7119 354.675 65.3572 354.675 69.3706V80.6585H349.203V70.4196C349.203 68.4357 348.131 67.2499 346.306 67.2271C344.482 67.2271 343.273 68.4585 343.273 70.5108V80.6357L343.25 80.6585Z" fill="white"/>
</svg>
